{
.appVersion = "3340";
.formatVersion = 3;
classes = (
{
automatic = 1;

glyphs = (
{
glyphname = A;
kernLeft = A;
kernRight = A;
lastChange = "2025-01-07 12:10:05 +0000";
layers = (
{
anchors = (
{
name = bottom;
pos = (320,0);
},
{
name = ogonek;
pos = (673,0);
},
{
name = top;
pos = (341,660);
}
);
hints = (
{
horizontal = 1;
place = (660,-20);
target = down;
type = TopGhost;
},
{
horizontal = 1;
options = 4;
origin = (0,18);
stem = -1;
target = (0,11);
type = TTStem;
},
{
horizontal = 1;
options = 4;
origin = (0,33);
stem = -1;
target = (1,2);
type = TTStem;
},
{
horizontal = 1;
options = 4;
origin = (0,4);
type = TTSnap;
},
{
horizontal = 1;
options = 4;
origin = (0,4);
stem = -1;
target = (1,0);
type = TTStem;
}
);
layerId = "6AD408C6-91F3-4F0B-A103-73D10F5280D9";
shapes = (
{
closed = 1;
nodes = (
(410,649,ls),
(407,656,o),
(402,660,o),
(395,660,cs),
(289,660,ls),
(281,660,o),
(276,656,o),
(274,649,cs),
(84,136,ls),
(68,91,o),
(54,53,o),
(18,53,cs),
(6,53,o),
(5,48,o),
(5,40,cs),
(5,13,ls),
(5,4,o),
(10,0,o),
(18,0,cs),
(238,0,ls),
(246,0,o),
(251,4,o),
(251,13,cs),
(251,40,ls),
(251,48,o),
(250,53,o),
(238,53,cs),
(207,53,o),
(169,77,o),
(169,114,cs),
(169,120,o),
(170,128,o),
(172,136,cs),
(199,211,l),
(440,211,l),
(467,136,ls),
(470,128,o),
(472,121,o),
(472,114,cs),
(472,79,o),
(435,53,o),
(403,53,cs),
(391,53,o),
(390,48,o),
(390,40,cs),
(390,13,ls),
(390,4,o),
(395,0,o),
(403,0,cs),
(673,0,ls),
(682,0,o),
(686,4,o),
(686,13,cs),
(686,40,ls),
(686,48,o),
(685,53,o),
(673,53,cs),
(641,53,o),
(627,88,o),
(608,136,cs)
);
},
{
closed = 1;
nodes = (
(317,545,l),
(412,288,l),
(226,288,l)
);
}
);
width = 692;
}
);
note = A;
unicode = 65;
},
{
glyphname = AE;
kernLeft = AE;
kernRight = E;
lastChange = "2025-01-07 12:07:44 +0000";
layers = (
{
anchors = (
{
name = top;
pos = (645,660);
}
);
layerId = "6AD408C6-91F3-4F0B-A103-73D10F5280D9";
shapes = (
{
closed = 1;
nodes = (
(888,0,ls),
(898,0,o),
(902,-1,o),
(906,-4,cs),
(910,-9,ls),
(913,-11,o),
(915,-12,o),
(918,-12,cs),
(922,-12,o),
(926,-10,o),
(928,-4,cs),
(1011,170,ls),
(1013,173,o),
(1014,176,o),
(1014,179,cs),
(1014,183,o),
(1010,186,o),
(1006,188,cs),
(978,205,ls),
(975,207,o),
(973,207,o),
(971,207,cs),
(965,207,o),
(962,204,o),
(959,200,cs),
(957,194,ls),
(907,96,o),
(859,62,o),
(730,62,cs),
(672,62,ls),
(633,62,o),
(612,92,o),
(612,146,cs),
(612,320,l),
(689,320,ls),
(743,320,o),
(773,301,o),
(773,261,cs),
(773,256,ls),
(773,247,o),
(777,243,o),
(786,243,cs),
(812,243,ls),
(821,243,o),
(825,247,o),
(825,256,cs),
(825,456,ls),
(825,465,o),
(821,469,o),
(812,469,cs),
(786,469,ls),
(777,469,o),
(773,465,o),
(773,456,cs),
(773,450,ls),
(773,411,o),
(742,391,o),
(689,391,cs),
(612,391,l),
(612,598,l),
(754,598,ls),
(822,598,o),
(859,576,o),
(895,516,cs),
(898,511,ls),
(900,506,o),
(904,503,o),
(908,503,cs),
(911,503,o),
(913,504,o),
(918,507,cs),
(953,526,ls),
(957,529,o),
(960,532,o),
(960,537,cs),
(960,539,o),
(959,542,o),
(957,545,cs),
(888,664,ls),
(885,669,o),
(881,671,o),
(876,671,cs),
(874,671,o),
(871,671,o),
(869,669,cs),
(864,664,ls),
(860,661,o),
(856,660,o),
(847,660,cs),
(341,660,ls),
(332,660,o),
(327,655,o),
(327,646,cs),
(327,620,ls),
(327,612,o),
(332,606,o),
(341,606,cs),
(341,606,ls),
(370,606,o),
(381,601,o),
(381,589,cs),
(381,580,o),
(376,567,o),
(368,553,cs),
(128,136,ls),
(103,94,o),
(68,57,o),
(18,57,cs),
(7,57,o),
(4,52,o),
(4,44,cs),
(4,13,ls),
(4,4,o),
(9,0,o),
(18,0,cs),
(237,0,ls),
(245,0,o),
(250,4,o),
(250,13,cs),
(250,44,ls),
(250,52,o),
(250,57,o),
(237,57,cs),
(216,57,o),
(200,69,o),
(200,88,cs),
(200,100,o),
(206,119,o),
(216,136,cs),
(257,210,l),
(466,210,l),
(466,136,ls),
(466,86,o),
(437,60,o),
(402,60,cs),
(392,60,o),
(389,55,o),
(389,47,cs),
(389,13,ls),
(389,4,o),
(394,0,o),
(402,0,cs)
);
},
{
closed = 1;
nodes = (
(466,582,l),
(466,287,l),
(300,287,l)
);
}
);
width = 1031;
}
);
metricRight = E;
note = AE;
unicode = 198;
},
{
glyphname = B;
kernLeft = B;
kernRight = B;
lastChange = "2025-01-07 12:07:44 +0000";
layers = (
{
hints = (
{
horizontal = 1;
options = 4;
origin = (0,21);
stem = -1;
target = (0,14);
type = TTStem;
},
{
horizontal = 1;
options = 4;
origin = (2,4);
stem = -1;
target = (1,0);
type = TTStem;
},
{
horizontal = 1;
options = 4;
origin = (0,0);
stem = -1;
target = (0,7);
type = TTStem;
}
);
layerId = "6AD408C6-91F3-4F0B-A103-73D10F5280D9";
shapes = (
{
closed = 1;
nodes = (
(40,660,ls),
(31,660,o),
(26,656,o),
(26,647,cs),
(26,620,ls),
(26,612,o),
(31,607,o),
(40,607,cs),
(83,607,o),
(105,579,o),
(105,524,cs),
(105,136,ls),
(105,81,o),
(83,53,o),
(40,53,cs),
(31,53,o),
(26,48,o),
(26,40,cs),
(26,13,ls),
(26,4,o),
(31,0,o),
(40,0,cs),
(363,0,ls),
(501,0,o),
(598,80,o),
(598,194,cs),
(598,282,o),
(543,351,o),
(451,378,c),
(509,407,o),
(540,450,o),
(540,501,cs),
(540,590,o),
(445,660,o),
(323,660,cs)
);
},
{
closed = 1;
nodes = (
(245,394,l),
(245,607,l),
(298,607,ls),
(368,607,o),
(408,568,o),
(408,501,cs),
(408,434,o),
(367,394,o),
(295,394,cs)
);
},
{
closed = 1;
nodes = (
(303,53,ls),
(265,53,o),
(245,83,o),
(245,136,cs),
(245,332,l),
(296,332,ls),
(410,332,o),
(466,287,o),
(466,194,cs),
(466,106,o),
(414,53,o),
(325,53,cs)
);
}
);
width = 633;
}
);
note = B;
unicode = 66;
},
{
glyphname = C;
kernLeft = C;
kernRight = C;
lastChange = "2025-01-07 12:07:44 +0000";
layers = (
{
anchors = (
{
name = bottom;
pos = (358,0);
},
{
name = top;
pos = (353,660);
}
);
layerId = "6AD408C6-91F3-4F0B-A103-73D10F5280D9";
shapes = (
{
closed = 1;
nodes = (
(612,225,ls),
(606,228,o),
(604,229,o),
(600,229,cs),
(594,229,o),
(589,225,o),
(585,217,cs),
(557,154,o),
(502,74,o),
(372,74,cs),
(241,74,o),
(181,191,o),
(181,362,cs),
(181,460,o),
(223,601,o),
(348,601,cs),
(449,601,o),
(478,522,o),
(478,459,cs),
(478,453,o),
(476,433,o),
(476,430,cs),
(476,424,o),
(480,422,o),
(487,422,cs),
(492,422,o),
(498,423,o),
(502,425,cs),
(610,463,ls),
(620,466,o),
(625,472,o),
(625,480,cs),
(625,519,o),
(566,671,o),
(356,671,cs),
(102,671,o),
(31,470,o),
(31,323,cs),
(31,134,o),
(147,-11,o),
(358,-11,cs),
(528,-11,o),
(615,101,o),
(653,193,cs),
(654,195,o),
(655,198,o),
(655,200,cs),
(655,205,o),
(649,208,o),
(642,211,cs)
);
}
);
width = 659;
}
);
note = C;
unicode = 67;
},
{
glyphname = D;
kernLeft = B;
kernRight = D;
lastChange = "2025-01-07 12:07:44 +0000";
layers = (
{
anchors = (
{
name = bottom;
pos = (311,0);
},
{
name = top;
pos = (309,660);
}
);
layerId = "6AD408C6-91F3-4F0B-A103-73D10F5280D9";
shapes = (
{
closed = 1;
nodes = (
(40,660,ls),
(31,660,o),
(26,656,o),
(26,647,cs),
(26,620,ls),
(26,612,o),
(31,607,o),
(40,607,cs),
(40,607,ls),
(83,607,o),
(105,579,o),
(105,524,cs),
(105,136,ls),
(105,84,o),
(84,53,o),
(46,53,cs),
(40,53,ls),
(31,53,o),
(26,48,o),
(26,40,cs),
(26,13,ls),
(26,4,o),
(31,0,o),
(40,0,cs),
(335,0,ls),
(536,0,o),
(664,121,o),
(664,331,cs),
(664,535,o),
(521,660,o),
(311,660,cs)
);
},
{
closed = 1;
nodes = (
(245,607,l),
(286,607,ls),
(452,607,o),
(531,501,o),
(531,331,cs),
(531,140,o),
(450,57,o),
(310,57,cs),
(253,57,o),
(245,86,o),
(245,132,cs)
);
}
);
width = 695;
}
);
note = D;
unicode = 68;
},
{
glyphname = Eth;
kernLeft = B;
kernRight = D;
lastChange = "2025-01-07 12:07:44 +0000";
layers = (
{
layerId = "6AD408C6-91F3-4F0B-A103-73D10F5280D9";
shapes = (
{
closed = 1;
nodes = (
(431,267,ls),
(440,267,o),
(444,272,o),
(444,280,cs),
(444,356,ls),
(444,365,o),
(440,370,o),
(431,370,cs),
(40,370,ls),
(31,370,o),
(26,365,o),
(26,356,cs),
(26,280,ls),
(26,272,o),
(31,267,o),
(40,267,cs)
);
},
{
ref = D;
}
);
width = 695;
}
);
note = Eth;
unicode = 208;
},
{
glyphname = E;
kernLeft = B;
kernRight = E;
lastChange = "2025-01-07 12:07:44 +0000";
layers = (
{
anchors = (
{
name = bottom;
pos = (329,0);
},
{
name = ogonek;
pos = (521,0);
},
{
name = top;
pos = (321,660);
}
);
layerId = "6AD408C6-91F3-4F0B-A103-73D10F5280D9";
shapes = (
{
closed = 1;
nodes = (
(611,205,ls),
(608,207,o),
(606,207,o),
(604,207,cs),
(598,207,o),
(595,204,o),
(592,200,cs),
(590,194,ls),
(540,96,o),
(492,62,o),
(363,62,cs),
(305,62,ls),
(266,62,o),
(245,92,o),
(245,146,cs),
(245,320,l),
(322,320,ls),
(376,320,o),
(406,301,o),
(406,261,cs),
(406,256,ls),
(406,247,o),
(410,243,o),
(419,243,cs),
(445,243,ls),
(454,243,o),
(458,247,o),
(458,256,cs),
(458,456,ls),
(458,465,o),
(454,469,o),
(445,469,cs),
(419,469,ls),
(410,469,o),
(406,465,o),
(406,456,cs),
(406,450,ls),
(406,411,o),
(375,391,o),
(322,391,cs),
(245,391,l),
(245,598,l),
(387,598,ls),
(455,598,o),
(492,576,o),
(528,516,cs),
(531,511,ls),
(533,506,o),
(537,503,o),
(541,503,cs),
(544,503,o),
(546,504,o),
(551,507,cs),
(586,526,ls),
(590,529,o),
(593,532,o),
(593,537,cs),
(593,539,o),
(592,542,o),
(590,545,cs),
(521,664,ls),
(518,669,o),
(514,671,o),
(510,671,cs),
(507,671,o),
(504,671,o),
(502,669,cs),
(497,664,ls),
(493,661,o),
(489,660,o),
(480,660,cs),
(40,660,ls),
(31,660,o),
(26,655,o),
(26,646,cs),
(26,620,ls),
(26,612,o),
(32,606,o),
(40,606,cs),
(40,606,ls),
(84,606,o),
(105,578,o),
(105,523,cs),
(105,136,ls),
(105,80,o),
(84,53,o),
(41,53,cs),
(40,53,ls),
(32,53,o),
(26,48,o),
(26,40,cs),
(26,13,ls),
(26,4,o),
(31,0,o),
(40,0,cs),
(521,0,ls),
(532,0,o),
(535,-1,o),
(539,-4,cs),
(543,-9,ls),
(546,-11,o),
(548,-12,o),
(551,-12,cs),
(555,-12,o),
(559,-10,o),
(561,-4,cs),
(644,170,ls),
(646,173,o),
(647,176,o),
(647,179,cs),
(647,183,o),
(643,186,o),
(639,188,cs)
);
}
);
width = 664;
}
);
note = E;
unicode = 69;
},
{
glyphname = Schwa;
kernLeft = C;
kernRight = D;
lastChange = "2025-01-07 12:07:44 +0000";
layers = (
{
layerId = "6AD408C6-91F3-4F0B-A103-73D10F5280D9";
shapes = (
{
closed = 1;
nodes = (
(32,466,o),
(31,463,o),
(31,461,cs),
(31,456,o),
(37,453,o),
(43,451,cs),
(74,436,ls),
(79,434,o),
(82,433,o),
(85,433,cs),
(92,433,o),
(97,436,o),
(100,444,cs),
(128,508,o),
(183,588,o),
(313,588,cs),
(404,588,o),
(460,532,o),
(487,442,c),
(66,255,ls),
(55,250,o),
(53,244,o),
(53,235,cs),
(53,161,o),
(111,-11,o),
(330,-11,cs),
(583,-11,o),
(655,192,o),
(655,339,cs),
(655,528,o),
(539,671,o),
(327,671,cs),
(158,671,o),
(70,561,o),
(33,469,cs)
);
},
{
closed = 1;
nodes = (
(208,213,l),
(502,359,l),
(503,340,o),
(504,320,o),
(504,300,cs),
(504,202,o),
(463,61,o),
(337,61,cs),
(237,61,o),
(208,140,o),
(208,202,cs)
);
}
);
width = 686;
}
);
unicode = 399;
},
{
glyphname = F;
kernLeft = B;
kernRight = F;
lastChange = "2025-01-07 12:07:44 +0000";
layers = (
{
layerId = "6AD408C6-91F3-4F0B-A103-73D10F5280D9";
shapes = (
{
closed = 1;
nodes = (
(245,312,l),
(322,312,ls),
(376,312,o),
(406,292,o),
(406,253,cs),
(406,247,ls),
(406,238,o),
(410,234,o),
(419,234,cs),
(445,234,ls),
(454,234,o),
(458,238,o),
(458,247,cs),
(458,447,ls),
(458,456,o),
(454,460,o),
(445,460,cs),
(419,460,ls),
(410,460,o),
(406,456,o),
(406,447,cs),
(406,441,ls),
(406,402,o),
(375,382,o),
(322,382,cs),
(245,382,l),
(245,598,l),
(370,598,ls),
(437,598,o),
(492,576,o),
(528,516,cs),
(531,511,ls),
(533,506,o),
(537,503,o),
(541,503,cs),
(544,503,o),
(546,504,o),
(551,507,cs),
(586,526,ls),
(590,529,o),
(593,532,o),
(593,537,cs),
(593,539,o),
(592,542,o),
(590,545,cs),
(521,664,ls),
(518,669,o),
(514,671,o),
(510,671,cs),
(507,671,o),
(504,671,o),
(502,669,cs),
(497,664,ls),
(493,661,o),
(489,660,o),
(480,660,cs),
(40,660,ls),
(31,660,o),
(26,655,o),
(26,646,cs),
(26,620,ls),
(26,612,o),
(32,606,o),
(40,606,cs),
(40,606,ls),
(84,606,o),
(105,578,o),
(105,523,cs),
(105,136,ls),
(105,80,o),
(84,53,o),
(41,53,cs),
(40,53,ls),
(32,53,o),
(26,48,o),
(26,40,cs),
(26,13,ls),
(26,4,o),
(31,0,o),
(40,0,cs),
(311,0,ls),
(319,0,o),
(324,5,o),
(324,13,cs),
(324,40,ls),
(324,48,o),
(319,53,o),
(311,53,cs),
(304,53,ls),
(265,53,o),
(245,84,o),
(245,136,cs)
);
}
);
width = 611;
},
{
associatedMasterId = "6AD408C6-91F3-4F0B-A103-73D10F5280D9";
background = {
shapes = (
{
closed = 1;
nodes = (
(521,664,ls),
(518,670,o),
(514,672,o),
(510,672,cs),
(507,672,o),
(504,671,o),
(502,669,c),
(497,664,ls),
(492,660,o),
(487,660,o),
(480,660,cs),
(40,660,ls),
(31,660,o),
(26,656,o),
(26,647,cs),
(26,620,ls),
(26,612,o),
(31,607,o),
(40,607,cs),
(40,607,ls),
(89,607,o),
(105,571,o),
(105,524,cs),
(105,136,ls),
(105,90,o),
(90,55,o),
(45,53,c),
(40,53,ls),
(31,53,o),
(26,48,o),
(26,40,cs),
(26,13,ls),
(26,4,o),
(31,0,o),
(40,0,cs),
(311,0,ls),
(319,0,o),
(324,4,o),
(324,13,cs),
(324,40,ls),
(324,48,o),
(319,53,o),
(311,53,cs),
(304,53,l),
(260,55,o),
(245,90,o),
(245,136,cs),
(245,312,l),
(322,312,ls),
(368,312,o),
(403,297,o),
(406,253,c),
(406,247,ls),
(406,238,o),
(410,234,o),
(419,234,cs),
(445,234,ls),
(454,234,o),
(458,238,o),
(458,247,cs),
(458,448,ls),
(458,456,o),
(454,461,o),
(445,461,cs),
(419,461,ls),
(410,461,o),
(406,456,o),
(406,448,cs),
(406,442,l),
(403,397,o),
(368,382,o),
(322,382,cs),
(239,382,l),
(239,598,l),
(370,598,ls),
(441,598,o),
(495,573,o),
(528,517,cs),
(531,511,ls),
(533,507,o),
(537,504,o),
(541,504,cs),
(544,504,o),
(546,505,o),
(549,506,cs),
(586,526,ls),
(590,529,o),
(593,532,o),
(593,537,cs),
(593,539,o),
(592,542,o),
(590,545,cs)
);
}
);
};
hints = (
{
horizontal = 1;
place = (0,53);
type = Stem;
},
{
horizontal = 1;
place = (312,70);
type = Stem;
},
{
horizontal = 1;
place = (597,63);
type = Stem;
},
{
place = (104,141);
type = Stem;
},
{
place = (406,53);
type = Stem;
},
{
horizontal = 1;
place = (607,53);
type = Stem;
}
);
layerId = "76796360-02C8-48BF-BFC2-95DDAF482AA0";
name = "23 mars 23 à 14:56";
shapes = (
{
closed = 1;
nodes = (
(521,664,ls),
(517,671,o),
(515,672,o),
(510,672,cs),
(508,672,o),
(505,671,o),
(503,670,cs),
(497,664,ls),
(493,660,o),
(489,660,o),
(480,660,cs),
(40,660,ls),
(31,660,o),
(26,656,o),
(26,647,cs),
(26,620,ls),
(26,612,o),
(31,607,o),
(40,607,cs),
(40,607,ls),
(83,607,o),
(105,579,o),
(105,524,cs),
(105,136,ls),
(105,84,o),
(84,55,o),
(45,53,c),
(40,53,ls),
(31,53,o),
(26,48,o),
(26,40,cs),
(26,13,ls),
(26,4,o),
(31,0,o),
(40,0,cs),
(311,0,ls),
(319,0,o),
(324,5,o),
(324,13,cs),
(324,40,ls),
(324,48,o),
(319,53,o),
(311,53,cs),
(304,53,l),
(265,55,o),
(245,84,o),
(245,136,cs),
(245,312,l),
(322,312,ls),
(375,312,o),
(403,292,o),
(406,253,c),
(406,247,ls),
(406,238,o),
(410,234,o),
(419,234,cs),
(445,234,ls),
(454,234,o),
(458,238,o),
(458,247,cs),
(458,448,ls),
(458,457,o),
(454,461,o),
(445,461,cs),
(419,461,ls),
(411,461,o),
(406,457,o),
(406,448,cs),
(406,442,l),
(403,402,o),
(375,382,o),
(322,382,cs),
(239,382,l),
(239,598,l),
(370,598,ls),
(444,598,o),
(500,574,o),
(528,517,cs),
(531,511,ls),
(533,507,o),
(538,504,o),
(541,504,cs),
(545,504,o),
(548,505,o),
(551,507,cs),
(586,526,ls),
(590,529,o),
(593,532,o),
(593,537,cs),
(593,539,o),
(592,542,o),
(590,545,cs)
);
}
);
width = 611;
}
);
note = F;
unicode = 70;
},
{
glyphname = G;
kernLeft = C;
kernRight = G;
lastChange = "2025-01-07 12:07:44 +0000";
layers = (
{
anchors = (
{
name = bottom;
pos = (348,0);
},
{
name = top;
pos = (340,660);
}
);
layerId = "6AD408C6-91F3-4F0B-A103-73D10F5280D9";
shapes = (
{
closed = 1;
nodes = (
(181,503,o),
(247,601,o),
(348,601,cs),
(435,601,o),
(478,540,o),
(478,459,cs),
(478,444,o),
(476,436,o),
(476,430,cs),
(476,422,o),
(481,422,o),
(487,422,cs),
(492,422,o),
(497,423,o),
(502,425,cs),
(610,463,ls),
(620,466,o),
(625,470,o),
(625,480,cs),
(625,517,o),
(568,671,o),
(356,671,cs),
(103,671,o),
(31,471,o),
(31,323,cs),
(31,135,o),
(152,-11,o),
(349,-11,cs),
(483,-11,o),
(578,56,o),
(619,150,c),
(619,246,ls),
(619,266,o),
(625,275,o),
(642,275,cs),
(649,275,ls),
(657,275,o),
(662,279,o),
(662,288,cs),
(662,314,ls),
(662,322,o),
(657,327,o),
(649,327,cs),
(371,327,ls),
(363,327,o),
(358,323,o),
(358,314,cs),
(358,288,ls),
(358,279,o),
(363,275,o),
(371,275,cs),
(378,275,ls),
(423,275,o),
(472,273,o),
(472,173,cs),
(472,128,ls),
(472,86,o),
(410,74,o),
(371,74,cs),
(235,74,o),
(181,231,o),
(181,362,cs)
);
}
);
width = 679;
}
);
note = G;
unicode = 71;
},
{
glyphname = H;
kernLeft = B;
kernRight = H;
lastChange = "2025-01-07 12:07:44 +0000";
layers = (
{
anchors = (
{
name = bottom;
pos = (395,0);
},
{
name = top;
pos = (395,660);
}
);
layerId = "6AD408C6-91F3-4F0B-A103-73D10F5280D9";
shapes = (
{
closed = 1;
nodes = (
(686,524,ls),
(686,570,o),
(700,607,o),
(745,607,cs),
(751,607,ls),
(759,607,o),
(764,612,o),
(764,620,cs),
(764,647,ls),
(764,656,o),
(759,660,o),
(751,660,cs),
(480,660,ls),
(472,660,o),
(467,656,o),
(467,647,cs),
(467,620,ls),
(467,612,o),
(472,607,o),
(480,607,cs),
(486,607,ls),
(531,607,o),
(546,570,o),
(546,524,cs),
(546,373,l),
(245,373,l),
(245,524,ls),
(245,570,o),
(260,607,o),
(304,607,cs),
(310,607,ls),
(319,607,o),
(323,612,o),
(323,620,cs),
(323,647,ls),
(323,656,o),
(319,660,o),
(310,660,cs),
(40,660,ls),
(31,660,o),
(26,656,o),
(26,647,cs),
(26,620,ls),
(26,612,o),
(31,607,o),
(40,607,cs),
(45,607,ls),
(90,607,o),
(104,570,o),
(104,524,cs),
(104,136,ls),
(104,90,o),
(90,53,o),
(45,53,cs),
(40,53,ls),
(31,53,o),
(26,48,o),
(26,40,cs),
(26,13,ls),
(26,4,o),
(31,0,o),
(40,0,cs),
(310,0,ls),
(319,0,o),
(323,4,o),
(323,13,cs),
(323,40,ls),
(323,48,o),
(319,53,o),
(310,53,cs),
(304,53,ls),
(260,53,o),
(245,90,o),
(245,136,cs),
(245,304,l),
(546,304,l),
(546,136,ls),
(546,90,o),
(531,53,o),
(486,53,cs),
(480,53,ls),
(472,53,o),
(467,48,o),
(467,40,cs),
(467,13,ls),
(467,4,o),
(472,0,o),
(480,0,cs),
(751,0,ls),
(759,0,o),
(764,4,o),
(764,13,cs),
(764,40,ls),
(764,48,o),
(759,53,o),
(751,53,cs),
(745,53,ls),
(700,53,o),
(686,90,o),
(686,136,cs)
);
}
);
width = 790;
}
);
note = H;
unicode = 72;
},
{
glyphname = Hbar;
kernLeft = B;
kernRight = H;
lastChange = "2025-01-07 12:07:44 +0000";
layers = (
{
layerId = "6AD408C6-91F3-4F0B-A103-73D10F5280D9";
shapes = (
{
ref = H;
},
{
closed = 1;
nodes = (
(756,440,ls),
(765,440,o),
(769,444,o),
(769,453,cs),
(769,497,ls),
(769,506,o),
(765,510,o),
(756,510,cs),
(34,510,ls),
(26,510,o),
(21,506,o),
(21,497,cs),
(21,453,ls),
(21,444,o),
(26,440,o),
(34,440,cs)
);
}
);
width = 790;
}
);
note = Hbar;
unicode = 294;
},
{
glyphname = I;
kernLeft = I;
kernRight = I;
lastChange = "2025-01-07 12:07:44 +0000";
layers = (
{
anchors = (
{
name = bottom;
pos = (180,0);
},
{
name = ogonek;
pos = (314,0);
},
{
name = top;
pos = (180,660);
}
);
layerId = "6AD408C6-91F3-4F0B-A103-73D10F5280D9";
shapes = (
{
closed = 1;
nodes = (
(250,524,ls),
(250,570,o),
(265,607,o),
(309,607,cs),
(314,607,ls),
(323,607,o),
(327,612,o),
(327,620,cs),
(327,647,ls),
(327,656,o),
(323,660,o),
(314,660,cs),
(44,660,ls),
(35,660,o),
(31,656,o),
(31,647,cs),
(31,620,ls),
(31,612,o),
(35,607,o),
(44,607,cs),
(50,607,ls),
(95,607,o),
(109,570,o),
(109,524,cs),
(109,136,ls),
(109,90,o),
(95,53,o),
(50,53,cs),
(44,53,ls),
(35,53,o),
(31,48,o),
(31,40,cs),
(31,13,ls),
(31,4,o),
(35,0,o),
(44,0,cs),
(314,0,ls),
(323,0,o),
(327,4,o),
(327,13,cs),
(327,40,ls),
(327,48,o),
(323,53,o),
(314,53,cs),
(309,53,ls),
(265,53,o),
(250,90,o),
(250,136,cs)
);
}
);
width = 358;
}
);
note = I;
unicode = 73;
},
{
glyphname = J;
kernLeft = J;
kernRight = IJ;
lastChange = "2025-01-07 12:07:44 +0000";
layers = (
{
anchors = (
{
name = top;
pos = (291,660);
}
);
layerId = "6AD408C6-91F3-4F0B-A103-73D10F5280D9";
shapes = (
{
closed = 1;
nodes = (
(156,660,ls),
(148,660,o),
(143,656,o),
(143,647,cs),
(143,620,ls),
(143,612,o),
(148,607,o),
(156,607,cs),
(162,607,ls),
(207,607,o),
(222,570,o),
(222,524,cs),
(222,113,ls),
(222,76,o),
(203,48,o),
(168,48,cs),
(125,48,o),
(119,97,o),
(119,128,cs),
(119,149,o),
(121,157,o),
(121,166,cs),
(121,174,o),
(118,178,o),
(113,178,cs),
(109,178,o),
(106,177,o),
(100,173,cs),
(18,129,ls),
(9,124,o),
(4,117,o),
(4,108,cs),
(4,83,o),
(47,-11,o),
(168,-11,cs),
(319,-11,o),
(362,91,o),
(362,192,cs),
(362,524,ls),
(362,569,o),
(377,607,o),
(422,607,cs),
(427,607,ls),
(436,607,o),
(440,612,o),
(440,620,cs),
(440,647,ls),
(440,656,o),
(436,660,o),
(427,660,cs)
);
}
);
width = 462;
}
);
note = J;
unicode = 74;
},
{
glyphname = K;
kernLeft = B;
kernRight = K;
lastChange = "2025-01-07 12:07:44 +0000";
layers = (
{
anchors = (
{
name = bottom;
pos = (358,0);
}
);
layerId = "6AD408C6-91F3-4F0B-A103-73D10F5280D9";
shapes = (
{
closed = 1;
nodes = (
(677,53,ls),
(646,53,o),
(644,55,o),
(590,136,cs),
(407,410,l),
(536,549,ls),
(579,596,o),
(598,607,o),
(634,607,cs),
(644,607,ls),
(651,607,o),
(656,612,o),
(656,620,cs),
(656,647,ls),
(656,656,o),
(650,660,o),
(642,660,cs),
(420,660,ls),
(412,660,o),
(407,655,o),
(407,647,cs),
(407,620,ls),
(407,612,o),
(411,607,o),
(418,607,cs),
(436,607,ls),
(447,607,o),
(454,601,o),
(454,591,cs),
(454,585,o),
(452,577,o),
(445,570,cs),
(246,349,l),
(246,523,ls),
(246,578,o),
(266,607,o),
(304,607,cs),
(311,607,ls),
(319,607,o),
(324,612,o),
(324,620,cs),
(324,647,ls),
(324,656,o),
(319,660,o),
(311,660,cs),
(40,660,ls),
(31,660,o),
(26,656,o),
(26,647,cs),
(26,620,ls),
(26,612,o),
(31,607,o),
(40,607,cs),
(47,607,ls),
(84,607,o),
(105,578,o),
(105,524,cs),
(105,136,ls),
(105,81,o),
(84,53,o),
(46,53,cs),
(40,53,ls),
(31,53,o),
(26,48,o),
(26,40,cs),
(26,13,ls),
(26,4,o),
(31,0,o),
(40,0,cs),
(310,0,ls),
(319,0,o),
(323,4,o),
(323,13,cs),
(323,40,ls),
(323,48,o),
(319,53,o),
(310,53,cs),
(304,53,ls),
(266,53,o),
(246,82,o),
(246,136,cs),
(246,237,l),
(320,318,l),
(449,136,ls),
(459,121,o),
(465,107,o),
(465,94,cs),
(465,70,o),
(445,53,o),
(417,53,cs),
(412,53,ls),
(403,53,o),
(399,48,o),
(399,40,cs),
(399,13,ls),
(399,4,o),
(403,0,o),
(412,0,cs),
(682,0,ls),
(691,0,o),
(695,4,o),
(695,13,cs),
(695,40,ls),
(695,48,o),
(691,53,o),
(682,53,cs)
);
}
);
width = 702;
}
);
note = K;
unicode = 75;
},
{
glyphname = L;
kernLeft = B;
kernRight = E;
lastChange = "2025-01-28 16:21:59 +0000";
layers = (
{
anchors = (
{
name = bottom;
pos = (316,0);
},
{
name = middle;
pos = (411,279);
},
{
name = top;
pos = (174,660);
}
);
layerId = "6AD408C6-91F3-4F0B-A103-73D10F5280D9";
shapes = (
{
closed = 1;
nodes = (
(570,205,ls),
(568,207,o),
(565,208,o),
(562,208,cs),
(557,208,o),
(554,205,o),
(552,200,cs),
(549,194,ls),
(498,92,o),
(425,62,o),
(340,62,cs),
(305,62,ls),
(266,62,o),
(245,92,o),
(245,146,cs),
(245,606,l),
(307,606,ls),
(317,606,o),
(323,612,o),
(323,620,cs),
(323,646,ls),
(323,654,o),
(316,660,o),
(306,660,cs),
(40,660,ls),
(31,660,o),
(26,655,o),
(26,646,cs),
(26,620,ls),
(26,612,o),
(32,606,o),
(40,606,cs),
(84,606,o),
(105,578,o),
(105,523,cs),
(105,136,ls),
(105,81,o),
(84,53,o),
(40,53,cs),
(32,53,o),
(26,48,o),
(26,40,cs),
(26,13,ls),
(26,4,o),
(31,0,o),
(40,0,cs),
(480,0,ls),
(491,0,o),
(495,-1,o),
(498,-4,cs),
(505,-11,o),
(508,-12,o),
(510,-12,cs),
(515,-12,o),
(518,-10,o),
(521,-4,cs),
(604,170,ls),
(606,175,o),
(606,177,o),
(606,178,cs),
(606,184,o),
(604,186,o),
(598,188,cs)
);
}
);
width = 615;
}
);
note = L;
unicode = 76;
},
{
glyphname = Lslash;
kernLeft = B;
kernRight = E;
lastChange = "2025-01-07 12:07:44 +0000";
layers = (
{
layerId = "6AD408C6-91F3-4F0B-A103-73D10F5280D9";
shapes = (
{
closed = 1;
nodes = (
(20,350,ls),
(13,348,o),
(11,343,o),
(11,335,cs),
(11,265,ls),
(11,257,o),
(13,253,o),
(18,253,cs),
(21,253,o),
(24,253,o),
(26,254,cs),
(355,378,ls),
(362,381,o),
(364,385,o),
(364,393,cs),
(364,464,ls),
(364,472,o),
(362,476,o),
(356,476,cs),
(354,476,o),
(351,475,o),
(348,474,cs)
);
},
{
ref = L;
}
);
width = 624;
}
);
note = Lslash;
unicode = 321;
},
{
glyphname = M;
kernLeft = B;
kernRight = H;
lastChange = "2025-01-07 12:07:44 +0000";
layers = (
{
anchors = (
{
name = bottom;
pos = (456,0);
}
);
layerId = "6AD408C6-91F3-4F0B-A103-73D10F5280D9";
shapes = (
{
closed = 1;
nodes = (
(807,594,l),
(824,604,o),
(842,607,o),
(862,607,cs),
(870,607,o),
(875,612,o),
(875,620,cs),
(875,647,ls),
(875,656,o),
(870,660,o),
(862,660,cs),
(696,660,ls),
(689,660,o),
(683,658,o),
(680,652,cs),
(456,198,l),
(231,652,ls),
(229,658,o),
(223,660,o),
(216,660,cs),
(50,660,ls),
(41,660,o),
(37,656,o),
(37,647,cs),
(37,620,ls),
(37,612,o),
(41,607,o),
(50,607,cs),
(70,607,o),
(88,604,o),
(105,594,c),
(105,136,ls),
(105,89,o),
(83,53,o),
(40,53,cs),
(31,53,o),
(26,48,o),
(26,40,cs),
(26,13,ls),
(26,4,o),
(31,0,o),
(40,0,cs),
(257,0,ls),
(265,0,o),
(270,4,o),
(270,13,cs),
(270,40,ls),
(270,48,o),
(265,53,o),
(257,53,cs),
(214,53,o),
(193,89,o),
(193,136,cs),
(193,470,l),
(400,49,ls),
(403,43,o),
(408,40,o),
(415,40,cs),
(496,40,ls),
(503,40,o),
(509,43,o),
(511,49,cs),
(719,470,l),
(719,136,ls),
(719,89,o),
(698,53,o),
(655,53,cs),
(647,53,o),
(642,48,o),
(642,40,cs),
(642,13,ls),
(642,4,o),
(647,0,o),
(655,0,cs),
(872,0,ls),
(881,0,o),
(885,4,o),
(885,13,cs),
(885,40,ls),
(885,48,o),
(881,53,o),
(872,53,cs),
(829,53,o),
(807,89,o),
(807,136,cs)
);
}
);
width = 912;
}
);
note = M;
unicode = 77;
},
{
glyphname = N;
kernLeft = B;
kernRight = N;
lastChange = "2025-01-07 12:07:44 +0000";
layers = (
{
anchors = (
{
name = bottom;
pos = (405,0);
},
{
name = top;
pos = (400,660);
}
);
layerId = "6AD408C6-91F3-4F0B-A103-73D10F5280D9";
shapes = (
{
closed = 1;
nodes = (
(545,660,ls),
(536,660,o),
(532,656,o),
(532,647,cs),
(532,620,ls),
(532,612,o),
(536,607,o),
(545,607,cs),
(588,607,o),
(610,572,o),
(610,524,cs),
(610,203,l),
(216,652,ls),
(212,657,o),
(208,660,o),
(201,660,cs),
(48,660,ls),
(40,660,o),
(35,656,o),
(35,647,cs),
(35,620,ls),
(35,612,o),
(40,607,o),
(48,607,cs),
(70,607,o),
(86,600,o),
(104,585,c),
(104,136,ls),
(104,89,o),
(83,53,o),
(40,53,cs),
(31,53,o),
(26,48,o),
(26,40,cs),
(26,13,ls),
(26,4,o),
(31,0,o),
(40,0,cs),
(257,0,ls),
(265,0,o),
(270,4,o),
(270,13,cs),
(270,40,ls),
(270,48,o),
(265,53,o),
(257,53,cs),
(214,53,o),
(192,89,o),
(192,136,cs),
(192,487,l),
(608,8,ls),
(612,3,o),
(617,0,o),
(624,0,cs),
(685,0,ls),
(693,0,o),
(698,4,o),
(698,13,cs),
(698,524,ls),
(698,572,o),
(719,607,o),
(762,607,cs),
(771,607,o),
(775,612,o),
(775,620,cs),
(775,647,ls),
(775,656,o),
(771,660,o),
(762,660,cs)
);
}
);
width = 784;
}
);
note = N;
unicode = 78;
},
{
glyphname = Nhookleft;
kernLeft = B;
kernRight = N;
lastChange = "2025-01-07 12:07:44 +0000";
layers = (
{
anchors = (
{
name = bottom;
pos = (405,0);
},
{
name = top;
pos = (400,660);
}
);
layerId = "6AD408C6-91F3-4F0B-A103-73D10F5280D9";
shapes = (
{
closed = 1;
nodes = (
(192,487,l),
(608,8,ls),
(612,3,o),
(617,0,o),
(624,0,cs),
(685,0,ls),
(693,0,o),
(698,4,o),
(698,13,cs),
(698,524,ls),
(698,572,o),
(719,607,o),
(762,607,cs),
(771,607,o),
(775,612,o),
(775,620,cs),
(775,647,ls),
(775,656,o),
(771,660,o),
(762,660,cs),
(545,660,ls),
(536,660,o),
(532,656,o),
(532,647,cs),
(532,620,ls),
(532,612,o),
(536,607,o),
(545,607,cs),
(588,607,o),
(610,572,o),
(610,524,cs),
(610,203,l),
(216,652,ls),
(212,657,o),
(208,660,o),
(201,660,cs),
(48,660,ls),
(40,660,o),
(35,656,o),
(35,647,cs),
(35,620,ls),
(35,612,o),
(40,607,o),
(48,607,cs),
(70,607,o),
(86,600,o),
(104,585,c),
(104,0,ls),
(104,-72,o),
(99,-139,o),
(37,-139,cs),
(31,-139,o),
(21,-136,o),
(16,-136,cs),
(12,-136,o),
(11,-139,o),
(10,-143,cs),
(0,-176,ls),
(-1,-179,o),
(-1,-180,o),
(-1,-180,cs),
(-1,-185,o),
(3,-187,o),
(7,-187,cs),
(14,-188,o),
(22,-188,o),
(30,-188,cs),
(185,-188,o),
(192,-100,o),
(192,0,cs)
);
}
);
width = 784;
}
);
metricRight = N;
unicode = 413;
},
{
glyphname = Eng;
kernLeft = B;
kernRight = N;
lastChange = "2025-01-07 12:07:44 +0000";
layers = (
{
layerId = "6AD408C6-91F3-4F0B-A103-73D10F5280D9";
shapes = (
{
closed = 1;
nodes = (
(601,17,l),
(601,-4,ls),
(601,-77,o),
(572,-139,o),
(519,-139,cs),
(470,-139,o),
(458,-92,o),
(458,-49,cs),
(458,-40,o),
(454,-36,o),
(449,-36,cs),
(447,-36,o),
(445,-36,o),
(442,-39,cs),
(379,-84,ls),
(372,-89,o),
(370,-96,o),
(370,-102,cs),
(370,-119,o),
(404,-188,o),
(512,-188,cs),
(667,-188,o),
(698,-84,o),
(698,17,c)
);
},
{
ref = N;
}
);
width = 781;
}
);
note = Eng;
unicode = 330;
},
{
glyphname = O;
kernLeft = C;
kernRight = D;
lastChange = "2025-01-07 12:07:44 +0000";
layers = (
{
anchors = (
{
name = bottom;
pos = (375,0);
},
{
name = top;
pos = (363,660);
},
{
name = topright;
pos = (368,660);
}
);
layerId = "6AD408C6-91F3-4F0B-A103-73D10F5280D9";
shapes = (
{
closed = 1;
nodes = (
(172,671,o),
(31,517,o),
(31,334,cs),
(31,147,o),
(180,-11,o),
(366,-11,cs),
(544,-11,o),
(693,137,o),
(693,325,cs),
(693,512,o),
(542,671,o),
(356,671,cs)
);
},
{
closed = 1;
nodes = (
(501,593,o),
(561,394,o),
(561,279,cs),
(561,154,o),
(495,67,o),
(375,67,cs),
(226,67,o),
(162,253,o),
(162,380,cs),
(162,508,o),
(230,593,o),
(347,593,cs)
);
}
);
width = 723;
}
);
note = O;
unicode = 79;
},
{
glyphname = Oslash;
kernLeft = C;
kernRight = D;
lastChange = "2025-01-07 12:07:44 +0000";
layers = (
{
hints = (
{
horizontal = 1;
place = (664,-20);
target = down;
type = TopGhost;
},
{
horizontal = 1;
place = (-1,21);
target = up;
type = BottomGhost;
}
);
layerId = "6AD408C6-91F3-4F0B-A103-73D10F5280D9";
shapes = (
{
closed = 1;
nodes = (
(167,-45,ls),
(164,-55,o),
(168,-60,o),
(178,-60,cs),
(250,-60,ls),
(258,-60,o),
(262,-57,o),
(265,-49,cs),
(546,733,ls),
(550,742,o),
(546,748,o),
(536,748,cs),
(464,748,ls),
(456,748,o),
(451,744,o),
(449,737,cs)
);
},
{
ref = O;
}
);
width = 723;
}
);
note = Oslash;
unicode = 216;
},
{
glyphname = OE;
kernLeft = C;
kernRight = E;
lastChange = "2025-01-07 12:07:44 +0000";
layers = (
{
layerId = "6AD408C6-91F3-4F0B-A103-73D10F5280D9";
shapes = (
{
closed = 1;
nodes = (
(172,671,o),
(31,517,o),
(31,334,cs),
(31,147,o),
(180,-11,o),
(366,-11,cs),
(395,-11,o),
(423,-7,o),
(451,0,c),
(948,0,ls),
(958,0,o),
(962,-1,o),
(965,-4,cs),
(970,-9,ls),
(972,-11,o),
(975,-12,o),
(978,-12,cs),
(982,-12,o),
(986,-10,o),
(988,-4,cs),
(1071,170,ls),
(1073,173,o),
(1074,176,o),
(1074,179,cs),
(1074,183,o),
(1070,186,o),
(1066,188,cs),
(1038,205,ls),
(1035,207,o),
(1033,207,o),
(1030,207,cs),
(1025,207,o),
(1022,204,o),
(1019,200,cs),
(1016,194,ls),
(967,96,o),
(919,62,o),
(789,62,cs),
(732,62,ls),
(693,62,o),
(671,92,o),
(671,146,cs),
(671,320,l),
(749,320,ls),
(803,320,o),
(832,301,o),
(832,261,cs),
(832,256,ls),
(832,247,o),
(837,243,o),
(846,243,cs),
(872,243,ls),
(881,243,o),
(885,247,o),
(885,256,cs),
(885,456,ls),
(885,465,o),
(881,469,o),
(872,469,cs),
(846,469,ls),
(837,469,o),
(832,465,o),
(832,456,cs),
(832,450,ls),
(832,411,o),
(802,391,o),
(749,391,cs),
(671,391,l),
(671,598,l),
(814,598,ls),
(882,598,o),
(919,576,o),
(955,516,cs),
(957,511,ls),
(960,506,o),
(964,503,o),
(968,503,cs),
(971,503,o),
(973,504,o),
(978,507,cs),
(1013,526,ls),
(1017,529,o),
(1020,532,o),
(1020,537,cs),
(1020,539,o),
(1019,542,o),
(1017,545,cs),
(948,664,ls),
(945,669,o),
(941,671,o),
(936,671,cs),
(934,671,o),
(931,671,o),
(929,669,cs),
(924,664,ls),
(920,661,o),
(916,660,o),
(907,660,cs),
(438,660,l),
(412,667,o),
(385,671,o),
(356,671,cs)
);
},
{
closed = 1;
nodes = (
(162,508,o),
(230,593,o),
(347,593,cs),
(501,593,o),
(561,394,o),
(561,279,cs),
(561,154,o),
(495,67,o),
(375,67,cs),
(226,67,o),
(162,253,o),
(162,380,cs)
);
}
);
width = 1091;
}
);
metricLeft = O;
metricRight = E;
note = OE;
unicode = 338;
},
{
glyphname = P;
kernLeft = B;
kernRight = P;
lastChange = "2025-01-07 12:07:44 +0000";
layers = (
{
layerId = "6AD408C6-91F3-4F0B-A103-73D10F5280D9";
shapes = (
{
closed = 1;
nodes = (
(270,266,l),
(336,266,ls),
(549,266,o),
(622,353,o),
(622,466,cs),
(622,566,o),
(530,660,o),
(387,660,cs),
(64,660,ls),
(56,660,o),
(51,656,o),
(51,647,cs),
(51,620,ls),
(51,612,o),
(56,607,o),
(64,607,cs),
(65,607,ls),
(114,607,o),
(129,571,o),
(129,524,cs),
(129,136,ls),
(129,90,o),
(115,53,o),
(70,53,cs),
(64,53,ls),
(55,53,o),
(50,48,o),
(50,40,cs),
(50,13,ls),
(50,4,o),
(55,0,o),
(64,0,cs),
(334,0,ls),
(343,0,o),
(347,4,o),
(347,13,cs),
(347,40,ls),
(347,48,o),
(343,53,o),
(334,53,cs),
(328,53,ls),
(284,53,o),
(270,90,o),
(270,136,cs)
);
},
{
closed = 1;
nodes = (
(264,328,l),
(264,607,l),
(349,607,ls),
(437,607,o),
(490,546,o),
(490,466,cs),
(490,368,o),
(438,328,o),
(321,328,cs)
);
}
);
width = 672;
}
);
note = P;
unicode = 80;
},
{
glyphname = Thorn;
kernLeft = B;
kernRight = P;
lastChange = "2025-01-07 12:07:44 +0000";
layers = (
{
layerId = "6AD408C6-91F3-4F0B-A103-73D10F5280D9";
shapes = (
{
closed = 1;
nodes = (
(240,162,l),
(312,162,ls),
(525,162,o),
(598,250,o),
(598,362,cs),
(598,463,o),
(506,557,o),
(363,557,cs),
(240,557,l),
(240,607,l),
(297,607,ls),
(305,607,o),
(310,612,o),
(310,620,cs),
(310,647,ls),
(310,656,o),
(305,660,o),
(297,660,cs),
(40,660,ls),
(32,660,o),
(27,656,o),
(27,647,cs),
(27,620,ls),
(27,612,o),
(32,607,o),
(40,607,cs),
(41,607,ls),
(90,607,o),
(105,571,o),
(105,524,cs),
(105,136,ls),
(105,90,o),
(91,53,o),
(46,53,cs),
(40,53,ls),
(31,53,o),
(26,48,o),
(26,40,cs),
(26,13,ls),
(26,4,o),
(31,0,o),
(40,0,cs),
(310,0,ls),
(319,0,o),
(323,4,o),
(323,13,cs),
(323,40,ls),
(323,48,o),
(319,53,o),
(310,53,cs),
(299,53,ls),
(255,53,o),
(240,90,o),
(240,136,cs)
);
},
{
closed = 1;
nodes = (
(240,224,l),
(240,503,l),
(325,503,ls),
(413,503,o),
(466,444,o),
(466,362,cs),
(466,265,o),
(414,224,o),
(297,224,cs)
);
}
);
width = 616;
}
);
note = Thorn;
unicode = 222;
},
{
glyphname = Q;
kernLeft = C;
kernRight = D;
lastChange = "2025-01-07 12:07:44 +0000";
layers = (
{
anchors = (
{
name = bottom;
pos = (375,0);
},
{
name = top;
pos = (356,660);
}
);
hints = (
{
horizontal = 1;
place = (-8,21);
target = up;
type = BottomGhost;
}
);
layerId = "6AD408C6-91F3-4F0B-A103-73D10F5280D9";
shapes = (
{
closed = 1;
nodes = (
(172,671,o),
(31,517,o),
(31,334,cs),
(31,164,o),
(154,18,o),
(316,-8,c),
(294,-27,o),
(281,-53,o),
(281,-83,cs),
(281,-137,o),
(320,-200,o),
(458,-200,cs),
(531,-200,o),
(591,-174,o),
(651,-144,cs),
(657,-142,o),
(659,-138,o),
(659,-134,cs),
(659,-131,o),
(657,-128,o),
(656,-126,cs),
(637,-88,ls),
(634,-83,o),
(631,-80,o),
(627,-80,cs),
(625,-80,o),
(622,-81,o),
(620,-82,cs),
(570,-99,o),
(522,-116,o),
(475,-116,cs),
(423,-116,o),
(394,-99,o),
(394,-62,cs),
(394,-23,o),
(424,-7,o),
(455,2,cs),
(594,43,o),
(693,170,o),
(693,325,cs),
(693,512,o),
(542,671,o),
(356,671,cs)
);
},
{
closed = 1;
nodes = (
(162,508,o),
(230,593,o),
(347,593,cs),
(501,593,o),
(561,394,o),
(561,279,cs),
(561,154,o),
(495,67,o),
(375,67,cs),
(226,67,o),
(162,253,o),
(162,380,cs)
);
}
);
width = 723;
},
{
anchors = (
{
name = bottom;
pos = (375,0);
},
{
name = top;
pos = (356,660);
}
);
associatedMasterId = "6AD408C6-91F3-4F0B-A103-73D10F5280D9";
background = {
shapes = (
{
closed = 1;
nodes = (
(637,-88,ls),
(634,-83,o),
(631,-80,o),
(627,-80,cs),
(625,-80,o),
(622,-81,o),
(620,-82,c),
(570,-99,o),
(522,-116,o),
(475,-116,cs),
(423,-116,o),
(394,-99,o),
(394,-62,cs),
(394,-18,o),
(434,-7,o),
(466,4,cs),
(602,49,o),
(693,180,o),
(693,325,cs),
(693,348,o),
(690,373,o),
(685,398,cs),
(650,558,o),
(510,671,o),
(356,671,cs),
(334,671,o),
(312,668,o),
(290,664,cs),
(136,631,o),
(31,490,o),
(31,334,cs),
(31,309,o),
(33,285,o),
(39,260,cs),
(69,116,o),
(183,12,o),
(317,-8,c),
(294,-27,o),
(281,-53,o),
(281,-83,cs),
(281,-137,o),
(320,-200,o),
(458,-200,cs),
(531,-200,o),
(592,-173,o),
(651,-144,c),
(656,-142,o),
(658,-138,o),
(658,-134,cs),
(658,-131,o),
(658,-128,o),
(656,-126,cs)
);
},
{
closed = 1;
nodes = (
(165,318,o),
(162,349,o),
(162,380,cs),
(162,475,o),
(198,565,o),
(306,588,cs),
(320,591,o),
(334,593,o),
(347,593,cs),
(464,593,o),
(528,478,o),
(551,369,cs),
(557,340,o),
(561,309,o),
(561,279,cs),
(561,184,o),
(524,94,o),
(416,71,cs),
(401,68,o),
(388,67,o),
(375,67,cs),
(259,67,o),
(195,180,o),
(172,289,cs)
);
}
);
};
hints = (
{
horizontal = 1;
place = (-200,84);
type = Stem;
},
{
horizontal = 1;
place = (-8,21);
target = up;
type = BottomGhost;
},
{
horizontal = 1;
place = (593,78);
type = Stem;
},
{
place = (31,131);
type = Stem;
},
{
place = (281,113);
type = Stem;
},
{
place = (561,131);
type = Stem;
},
{
horizontal = 1;
place = (-11,78);
type = Stem;
},
{
horizontal = 1;
place = (593,78);
type = Stem;
},
{
place = (31,131);
type = Stem;
},
{
place = (561,131);
type = Stem;
}
);
layerId = "64ED735C-43FD-46D3-BF27-AD304EC357F2";
name = "24 mars 23 à 12:38";
shapes = (
{
closed = 1;
nodes = (
(317,-7,l),
(294,-26,o),
(281,-53,o),
(281,-83,cs),
(281,-137,o),
(320,-200,o),
(458,-200,cs),
(531,-200,o),
(591,-174,o),
(651,-144,cs),
(657,-142,o),
(659,-138,o),
(659,-134,cs),
(659,-131,o),
(657,-128,o),
(656,-126,cs),
(637,-88,ls),
(634,-83,o),
(631,-80,o),
(627,-80,cs),
(625,-80,o),
(622,-81,o),
(620,-82,cs),
(570,-99,o),
(522,-116,o),
(475,-116,cs),
(423,-116,o),
(394,-99,o),
(394,-62,cs),
(394,-18,o),
(434,-6,o),
(466,5,c)
);
},
{
closed = 1;
nodes = (
(31,517,o),
(31,334,cs),
(31,147,o),
(180,-11,o),
(366,-11,cs),
(544,-11,o),
(693,137,o),
(693,325,cs),
(693,512,o),
(542,671,o),
(356,671,cs),
(172,671,o)
);
},
{
closed = 1;
nodes = (
(230,593,o),
(347,593,cs),
(501,593,o),
(561,394,o),
(561,279,cs),
(561,154,o),
(495,67,o),
(375,67,cs),
(226,67,o),
(162,253,o),
(162,380,cs),
(162,508,o)
);
}
);
width = 723;
}
);
note = Q;
unicode = 81;
},
{
glyphname = R;
kernLeft = B;
kernRight = R;
lastChange = "2025-01-07 12:07:44 +0000";
layers = (
{
anchors = (
{
name = bottom;
pos = (361,0);
},
{
name = top;
pos = (302,660);
}
);
layerId = "6AD408C6-91F3-4F0B-A103-73D10F5280D9";
shapes = (
{
closed = 1;
nodes = (
(678,53,ls),
(634,53,o),
(612,93,o),
(590,136,cs),
(494,318,l),
(569,354,o),
(598,414,o),
(598,474,cs),
(598,575,o),
(506,660,o),
(363,660,cs),
(40,660,ls),
(32,660,o),
(27,656,o),
(27,647,cs),
(27,620,ls),
(27,612,o),
(32,607,o),
(40,607,cs),
(90,607,o),
(105,571,o),
(105,524,cs),
(105,136,ls),
(105,90,o),
(91,53,o),
(46,53,cs),
(40,53,ls),
(31,53,o),
(26,48,o),
(26,40,cs),
(26,13,ls),
(26,4,o),
(31,0,o),
(40,0,cs),
(310,0,ls),
(319,0,o),
(323,4,o),
(323,13,cs),
(323,40,ls),
(323,48,o),
(319,53,o),
(310,53,cs),
(304,53,ls),
(260,53,o),
(246,90,o),
(246,136,cs),
(246,283,l),
(312,283,ls),
(332,283,o),
(351,284,o),
(369,286,c),
(449,136,ls),
(457,122,o),
(460,108,o),
(460,96,cs),
(460,72,o),
(446,53,o),
(417,53,cs),
(412,53,ls),
(403,53,o),
(399,48,o),
(399,40,cs),
(399,13,ls),
(399,4,o),
(403,0,o),
(412,0,cs),
(682,0,ls),
(691,0,o),
(695,4,o),
(695,13,cs),
(695,40,ls),
(695,48,o),
(691,53,o),
(682,53,cs)
);
},
{
closed = 1;
nodes = (
(246,346,l),
(246,607,l),
(325,607,ls),
(413,607,o),
(466,555,o),
(466,474,cs),
(466,394,o),
(414,346,o),
(297,346,cs)
);
}
);
width = 702;
}
);
note = R;
unicode = 82;
},
{
glyphname = S;
kernLeft = S;
kernRight = S;
lastChange = "2025-01-07 12:07:44 +0000";
layers = (
{
anchors = (
{
name = bottom;
pos = (325,0);
},
{
name = top;
pos = (325,660);
}
);
background = {
shapes = (
{
closed = 1;
nodes = (
(575,467,ls),
(582,471,o),
(584,475,o),
(584,480,cs),
(584,484,o),
(583,488,o),
(581,493,cs),
(519,650,ls),
(515,661,o),
(509,665,o),
(497,665,cs),
(466,665,ls),
(455,665,o),
(450,661,o),
(450,652,cs),
(450,641,o),
(454,629,o),
(454,623,cs),
(454,620,o),
(452,618,o),
(449,618,cs),
(445,618,o),
(440,620,o),
(429,626,cs),
(405,638,o),
(358,660,o),
(293,660,cs),
(157,660,o),
(70,599,o),
(70,501,cs),
(70,374,o),
(193,319,o),
(308,286,cs),
(435,249,o),
(491,232,o),
(491,155,cs),
(491,102,o),
(449,63,o),
(372,63,cs),
(271,63,o),
(171,121,o),
(92,242,cs),
(87,249,o),
(83,253,o),
(77,253,cs),
(73,253,o),
(70,251,o),
(66,249,cs),
(27,227,ls),
(21,224,o),
(18,218,o),
(18,212,cs),
(18,209,o),
(19,205,o),
(21,202,cs),
(128,2,ls),
(132,-7,o),
(139,-11,o),
(150,-11,cs),
(194,-11,ls),
(204,-11,o),
(209,-8,o),
(209,-1,cs),
(209,3,o),
(208,5,o),
(206,10,cs),
(205,13,o),
(204,17,o),
(204,19,cs),
(204,26,o),
(207,28,o),
(212,28,cs),
(216,28,o),
(220,27,o),
(225,25,cs),
(268,4,o),
(314,-11,o),
(367,-11,cs),
(529,-11,o),
(623,74,o),
(623,194,cs),
(623,326,o),
(483,372,o),
(348,411,cs),
(281,430,o),
(210,459,o),
(210,514,cs),
(210,576,o),
(260,590,o),
(304,590,cs),
(364,590,o),
(444,552,o),
(519,458,cs),
(524,452,o),
(529,448,o),
(534,448,cs),
(538,448,o),
(541,450,o),
(545,451,cs)
);
}
);
};
layerId = "6AD408C6-91F3-4F0B-A103-73D10F5280D9";
shapes = (
{
closed = 1;
nodes = (
(575,476,ls),
(582,480,o),
(584,484,o),
(584,489,cs),
(584,493,o),
(583,497,o),
(581,502,cs),
(519,659,ls),
(515,670,o),
(509,674,o),
(497,674,cs),
(466,674,ls),
(455,674,o),
(450,670,o),
(450,661,cs),
(450,649,o),
(454,638,o),
(454,632,cs),
(454,628,o),
(453,627,o),
(450,627,cs),
(446,627,o),
(440,629,o),
(429,635,cs),
(405,649,o),
(358,671,o),
(293,671,cs),
(166,671,o),
(70,617,o),
(70,501,cs),
(70,374,o),
(193,319,o),
(308,286,cs),
(435,249,o),
(491,232,o),
(491,155,cs),
(491,102,o),
(449,63,o),
(372,63,cs),
(271,63,o),
(171,121,o),
(92,242,cs),
(87,249,o),
(83,253,o),
(77,253,cs),
(73,253,o),
(70,251,o),
(66,249,cs),
(27,227,ls),
(21,224,o),
(18,218,o),
(18,212,cs),
(18,209,o),
(19,205,o),
(21,202,cs),
(128,2,ls),
(132,-7,o),
(139,-11,o),
(150,-11,cs),
(194,-11,ls),
(204,-11,o),
(209,-8,o),
(209,-1,cs),
(209,3,o),
(208,5,o),
(206,10,cs),
(205,13,o),
(204,17,o),
(204,19,cs),
(204,26,o),
(207,28,o),
(212,28,cs),
(216,28,o),
(220,27,o),
(225,25,cs),
(268,4,o),
(314,-11,o),
(367,-11,cs),
(529,-11,o),
(623,74,o),
(623,194,cs),
(623,326,o),
(483,372,o),
(348,411,cs),
(281,430,o),
(210,458,o),
(210,523,cs),
(210,576,o),
(248,599,o),
(296,599,cs),
(373,599,o),
(444,561,o),
(519,467,cs),
(524,461,o),
(529,457,o),
(534,457,cs),
(538,457,o),
(541,458,o),
(545,460,cs)
);
}
);
width = 636;
}
);
note = S;
unicode = 83;
},
{
glyphname = Germandbls;
kernLeft = m;
kernRight = B;
lastChange = "2025-01-07 12:07:44 +0000";
layers = (
{
layerId = "6AD408C6-91F3-4F0B-A103-73D10F5280D9";
shapes = (
{
closed = 1;
nodes = (
(538,494,ls),
(543,498,o),
(545,502,o),
(545,510,cs),
(545,613,o),
(458,671,o),
(329,671,cs),
(127,671,o),
(92,524,o),
(92,453,cs),
(92,440,l),
(42,440,ls),
(33,440,o),
(29,436,o),
(29,429,cs),
(29,399,ls),
(29,392,o),
(31,388,o),
(40,387,cs),
(88,382,o),
(92,334,o),
(92,286,cs),
(92,136,ls),
(92,89,o),
(77,53,o),
(29,53,cs),
(26,53,ls),
(18,53,o),
(13,48,o),
(13,40,cs),
(13,13,ls),
(13,4,o),
(18,0,o),
(26,0,cs),
(210,0,ls),
(218,0,o),
(224,4,o),
(224,13,cs),
(224,495,ls),
(224,566,o),
(267,604,o),
(329,604,cs),
(391,604,o),
(441,579,o),
(441,510,cs),
(441,503,o),
(440,498,o),
(435,494,cs),
(306,387,ls),
(300,383,o),
(295,379,o),
(290,379,cs),
(287,379,ls),
(282,379,o),
(279,377,o),
(279,372,cs),
(279,364,o),
(306,335,o),
(314,327,cs),
(320,321,o),
(325,317,o),
(331,317,cs),
(429,317,o),
(489,277,o),
(489,182,cs),
(489,99,o),
(433,60,o),
(369,60,cs),
(341,60,o),
(312,69,o),
(290,84,cs),
(286,86,o),
(282,88,o),
(278,88,cs),
(274,88,o),
(273,87,o),
(270,83,cs),
(261,67,o),
(256,57,o),
(256,55,cs),
(256,51,o),
(258,48,o),
(261,45,cs),
(294,12,o),
(341,-11,o),
(402,-11,cs),
(508,-11,o),
(618,41,o),
(618,182,cs),
(618,308,o),
(508,378,o),
(396,378,c)
);
}
);
width = 653;
}
);
unicode = 7838;
},
{
glyphname = T;
kernLeft = T;
kernRight = T;
lastChange = "2025-01-07 12:07:44 +0000";
layers = (
{
anchors = (
{
name = bottom;
pos = (340,0);
},
{
name = top;
pos = (341,660);
}
);
layerId = "6AD408C6-91F3-4F0B-A103-73D10F5280D9";
shapes = (
{
closed = 1;
nodes = (
(117,660,ls),
(111,660,o),
(103,661,o),
(95,669,cs),
(93,671,o),
(90,672,o),
(87,672,cs),
(83,672,o),
(79,670,o),
(77,664,cs),
(7,536,ls),
(5,532,o),
(4,531,o),
(4,528,cs),
(4,524,o),
(6,520,o),
(11,517,cs),
(48,497,ls),
(52,495,o),
(55,495,o),
(57,495,cs),
(62,495,o),
(64,498,o),
(67,502,cs),
(70,508,ls),
(99,567,o),
(157,589,o),
(228,589,cs),
(271,589,l),
(271,136,ls),
(271,90,o),
(256,53,o),
(211,53,cs),
(206,53,ls),
(197,53,o),
(193,48,o),
(193,40,cs),
(193,13,ls),
(193,4,o),
(197,0,o),
(206,0,cs),
(477,0,ls),
(485,0,o),
(490,4,o),
(490,13,cs),
(490,40,ls),
(490,48,o),
(485,53,o),
(477,53,cs),
(471,53,ls),
(426,53,o),
(411,90,o),
(411,136,cs),
(411,589,l),
(454,589,ls),
(525,589,o),
(583,567,o),
(612,508,cs),
(615,502,ls),
(618,498,o),
(620,495,o),
(625,495,cs),
(627,495,o),
(630,495,o),
(634,497,cs),
(671,517,ls),
(676,520,o),
(678,524,o),
(678,528,cs),
(678,531,o),
(677,532,o),
(675,536,cs),
(605,664,ls),
(603,670,o),
(599,672,o),
(595,672,cs),
(592,672,o),
(589,671,o),
(587,669,cs),
(579,661,o),
(571,660,o),
(565,660,cs)
);
}
);
width = 693;
}
);
note = T;
unicode = 84;
},
{
glyphname = Tbar;
kernLeft = T;
kernRight = T;
lastChange = "2025-01-07 12:07:44 +0000";
layers = (
{
layerId = "6AD408C6-91F3-4F0B-A103-73D10F5280D9";
shapes = (
{
closed = 1;
nodes = (
(511,320,ls),
(520,320,o),
(524,325,o),
(524,334,cs),
(524,386,ls),
(524,395,o),
(520,400,o),
(511,400,cs),
(171,400,ls),
(162,400,o),
(158,395,o),
(158,386,cs),
(158,334,ls),
(158,325,o),
(162,320,o),
(171,320,cs)
);
},
{
ref = T;
}
);
width = 693;
}
);
note = Tbar;
unicode = 358;
},
{
glyphname = U;
kernLeft = U;
kernRight = U;
lastChange = "2025-01-07 12:07:44 +0000";
layers = (
{
anchors = (
{
name = bottom;
pos = (387,0);
},
{
name = ogonek;
pos = (458,0);
},
{
name = top;
pos = (384,660);
},
{
name = topright;
pos = (628,660);
}
);
layerId = "6AD408C6-91F3-4F0B-A103-73D10F5280D9";
shapes = (
{
closed = 1;
nodes = (
(471,660,ls),
(462,660,o),
(458,656,o),
(458,647,cs),
(458,620,ls),
(458,612,o),
(462,607,o),
(471,607,cs),
(476,607,ls),
(521,607,o),
(535,570,o),
(535,524,cs),
(535,251,ls),
(535,144,o),
(499,66,o),
(398,66,cs),
(260,66,o),
(241,152,o),
(241,251,cs),
(241,524,ls),
(241,570,o),
(256,607,o),
(300,607,cs),
(305,607,ls),
(314,607,o),
(319,612,o),
(319,620,cs),
(319,647,ls),
(319,656,o),
(314,660,o),
(305,660,cs),
(35,660,ls),
(26,660,o),
(22,656,o),
(22,647,cs),
(22,620,ls),
(22,612,o),
(26,607,o),
(35,607,cs),
(41,607,ls),
(86,607,o),
(100,570,o),
(100,524,cs),
(100,233,ls),
(100,80,o),
(198,-11,o),
(372,-11,cs),
(546,-11,o),
(624,80,o),
(624,242,cs),
(624,524,ls),
(624,570,o),
(639,607,o),
(683,607,cs),
(689,607,ls),
(698,607,o),
(702,612,o),
(702,620,cs),
(702,647,ls),
(702,656,o),
(698,660,o),
(689,660,cs)
);
}
);
width = 711;
}
);
note = U;
unicode = 85;
},
{
glyphname = Uhorn;
kernLeft = U;
kernRight = Uhorn;
lastChange = "2025-01-07 14:19:38 +0000";
layers = (
{
anchors = (
{
name = bottom;
pos = (387,0);
},
{
name = ogonek;
pos = (458,0);
},
{
name = top;
pos = (384,660);
}
);
layerId = "6AD408C6-91F3-4F0B-A103-73D10F5280D9";
shapes = (
{
closed = 1;
nodes = (
(471,660,l),
(462,660,o),
(458,656,o),
(458,647,cs),
(458,620,ls),
(458,612,o),
(462,607,o),
(471,607,cs),
(476,607,ls),
(521,607,o),
(535,570,o),
(535,524,cs),
(535,251,ls),
(535,144,o),
(499,66,o),
(398,66,cs),
(260,66,o),
(241,152,o),
(241,251,cs),
(241,524,ls),
(241,570,o),
(256,607,o),
(300,607,cs),
(305,607,ls),
(314,607,o),
(319,612,o),
(319,620,cs),
(319,647,ls),
(319,656,o),
(314,660,o),
(305,660,cs),
(35,660,ls),
(26,660,o),
(22,656,o),
(22,647,cs),
(22,620,ls),
(22,612,o),
(26,607,o),
(35,607,cs),
(41,607,ls),
(86,607,o),
(100,570,o),
(100,524,cs),
(100,233,ls),
(100,80,o),
(198,-11,o),
(372,-11,cs),
(546,-11,o),
(624,80,o),
(624,242,cs),
(624,660,l)
);
},
{
pos = (546,220);
ref = horncomb;
}
);
width = 831;
}
);
unicode = 431;
},
{
glyphname = V;
kernLeft = V;
kernRight = V;
lastChange = "2025-01-07 12:07:44 +0000";
layers = (
{
hints = (
{
horizontal = 1;
place = (0,21);
target = up;
type = BottomGhost;
}
);
layerId = "6AD408C6-91F3-4F0B-A103-73D10F5280D9";
shapes = (
{
closed = 1;
nodes = (
(453,660,ls),
(445,660,o),
(440,655,o),
(440,647,cs),
(440,620,ls),
(440,612,o),
(445,607,o),
(453,607,cs),
(489,607,o),
(522,581,o),
(522,547,cs),
(522,540,o),
(521,533,o),
(518,525,cs),
(377,124,l),
(227,517,ls),
(222,530,o),
(219,539,o),
(219,546,cs),
(219,582,o),
(252,607,o),
(288,607,cs),
(296,607,o),
(301,612,o),
(301,620,cs),
(301,647,ls),
(301,655,o),
(296,660,o),
(288,660,cs),
(18,660,ls),
(9,660,o),
(4,655,o),
(4,647,cs),
(4,620,ls),
(4,612,o),
(9,607,o),
(18,607,cs),
(50,607,o),
(65,571,o),
(83,525,cs),
(281,11,ls),
(283,4,o),
(289,0,o),
(296,0,cs),
(402,0,ls),
(409,0,o),
(414,4,o),
(417,11,cs),
(606,525,ls),
(622,569,o),
(639,607,o),
(672,607,cs),
(681,607,o),
(686,612,o),
(686,620,cs),
(686,647,ls),
(686,655,o),
(681,660,o),
(672,660,cs)
);
}
);
width = 690;
}
);
note = V;
unicode = 86;
},
{
glyphname = W;
kernLeft = V;
kernRight = V;
lastChange = "2025-01-07 12:07:44 +0000";
layers = (
{
anchors = (
{
name = bottom;
pos = (462,0);
},
{
name = top;
pos = (550,660);
}
);
hints = (
{
horizontal = 1;
place = (0,21);
target = up;
type = BottomGhost;
}
);
layerId = "6AD408C6-91F3-4F0B-A103-73D10F5280D9";
shapes = (
{
closed = 1;
nodes = (
(826,660,ls),
(818,660,o),
(813,655,o),
(813,647,cs),
(813,620,ls),
(813,612,o),
(818,607,o),
(826,607,cs),
(862,607,o),
(894,581,o),
(894,545,cs),
(894,538,o),
(893,531,o),
(891,523,cs),
(758,124,l),
(612,528,ls),
(609,539,o),
(607,547,o),
(607,555,cs),
(607,590,o),
(634,607,o),
(655,607,cs),
(678,607,ls),
(686,607,o),
(691,612,o),
(691,620,cs),
(691,647,ls),
(691,655,o),
(686,660,o),
(678,660,cs),
(408,660,ls),
(400,660,o),
(395,655,o),
(395,647,cs),
(395,620,ls),
(395,612,o),
(400,607,o),
(408,607,cs),
(440,607,o),
(455,568,o),
(473,523,cs),
(488,483,l),
(368,124,l),
(224,523,ls),
(221,531,o),
(219,539,o),
(219,546,cs),
(219,582,o),
(252,607,o),
(288,607,cs),
(296,607,o),
(301,612,o),
(301,620,cs),
(301,647,ls),
(301,655,o),
(296,660,o),
(288,660,cs),
(18,660,ls),
(9,660,o),
(4,655,o),
(4,647,cs),
(4,620,ls),
(4,612,o),
(9,607,o),
(18,607,cs),
(51,607,o),
(66,568,o),
(83,523,cs),
(272,11,ls),
(275,4,o),
(280,0,o),
(287,0,cs),
(393,0,ls),
(400,0,o),
(406,4,o),
(408,11,cs),
(532,362,l),
(663,11,ls),
(665,4,o),
(670,0,o),
(678,0,cs),
(783,0,ls),
(791,0,o),
(796,4,o),
(798,11,cs),
(979,523,ls),
(996,569,o),
(1011,607,o),
(1045,607,cs),
(1053,607,o),
(1058,612,o),
(1058,620,cs),
(1058,647,ls),
(1058,655,o),
(1053,660,o),
(1045,660,cs)
);
}
);
width = 1062;
}
);
note = W;
unicode = 87;
},
{
glyphname = X;
kernLeft = X;
kernRight = X;
lastChange = "2025-01-07 12:07:44 +0000";
layers = (
{
layerId = "6AD408C6-91F3-4F0B-A103-73D10F5280D9";
shapes = (
{
closed = 1;
nodes = (
(725,59,ls),
(700,59,o),
(673,79,o),
(639,121,cs),
(451,351,l),
(599,539,ls),
(634,582,o),
(649,600,o),
(686,600,cs),
(700,600,ls),
(710,600,o),
(715,605,o),
(715,615,cs),
(715,645,ls),
(715,655,o),
(710,660,o),
(700,660,cs),
(494,660,ls),
(484,660,o),
(479,655,o),
(479,645,cs),
(479,615,ls),
(479,605,o),
(484,600,o),
(494,600,cs),
(503,600,ls),
(520,600,o),
(527,597,o),
(527,588,cs),
(527,578,o),
(516,561,o),
(498,539,cs),
(400,414,l),
(283,555,ls),
(272,568,o),
(267,579,o),
(267,586,cs),
(267,597,o),
(278,601,o),
(303,601,cs),
(304,601,ls),
(313,601,o),
(319,606,o),
(319,616,cs),
(319,645,ls),
(319,655,o),
(313,660,o),
(304,660,cs),
(48,660,ls),
(39,660,o),
(33,655,o),
(33,645,cs),
(33,616,ls),
(33,606,o),
(39,601,o),
(48,601,cs),
(50,601,ls),
(75,601,o),
(103,580,o),
(137,539,cs),
(293,348,l),
(115,121,ls),
(81,77,o),
(65,59,o),
(28,59,cs),
(24,59,ls),
(14,59,o),
(9,54,o),
(9,44,cs),
(9,15,ls),
(9,5,o),
(14,0,o),
(24,0,cs),
(231,0,ls),
(240,0,o),
(246,5,o),
(246,15,cs),
(246,44,ls),
(246,54,o),
(240,59,o),
(231,59,cs),
(211,59,ls),
(194,59,o),
(187,62,o),
(187,71,cs),
(187,81,o),
(198,98,o),
(216,121,cs),
(344,286,l),
(490,108,ls),
(501,96,o),
(504,87,o),
(504,80,cs),
(504,62,o),
(481,59,o),
(468,59,cs),
(466,59,ls),
(457,59,o),
(451,54,o),
(451,44,cs),
(451,15,ls),
(451,5,o),
(457,0,o),
(466,0,cs),
(728,0,ls),
(737,0,o),
(742,5,o),
(742,15,cs),
(742,44,ls),
(742,54,o),
(737,59,o),
(728,59,cs)
);
}
);
width = 751;
}
);
note = X;
unicode = 88;
},
{
glyphname = Y;
kernLeft = Y;
kernRight = Y;
lastChange = "2025-01-07 14:12:04 +0000";
layers = (
{
anchors = (
{
name = bottom;
pos = (350,0);
},
{
name = top;
pos = (391,660);
},
{
name = topleft;
pos = (20,660);
}
);
layerId = "6AD408C6-91F3-4F0B-A103-73D10F5280D9";
shapes = (
{
closed = 1;
nodes = (
(458,660,ls),
(450,660,o),
(444,655,o),
(444,647,cs),
(444,620,ls),
(444,612,o),
(450,607,o),
(458,607,cs),
(484,607,o),
(498,598,o),
(498,578,cs),
(498,565,o),
(492,546,o),
(479,523,cs),
(384,358,l),
(281,523,ls),
(270,540,o),
(266,554,o),
(266,566,cs),
(266,596,o),
(296,607,o),
(327,607,cs),
(335,607,o),
(341,612,o),
(341,620,cs),
(341,647,ls),
(341,655,o),
(335,660,o),
(327,660,cs),
(22,660,ls),
(13,660,o),
(9,655,o),
(9,647,cs),
(9,620,ls),
(9,612,o),
(13,607,o),
(22,607,cs),
(59,607,o),
(83,582,o),
(122,523,cs),
(281,288,ls),
(284,282,o),
(286,278,o),
(286,272,cs),
(286,136,ls),
(286,90,o),
(271,53,o),
(226,53,cs),
(221,53,ls),
(213,53,o),
(208,48,o),
(208,40,cs),
(208,13,ls),
(208,4,o),
(213,0,o),
(221,0,cs),
(492,0,ls),
(500,0,o),
(505,4,o),
(505,13,cs),
(505,40,ls),
(505,48,o),
(500,53,o),
(492,53,cs),
(486,53,ls),
(441,53,o),
(427,90,o),
(427,136,cs),
(427,276,ls),
(427,282,o),
(428,288,o),
(431,293,cs),
(567,523,ls),
(601,581,o),
(638,607,o),
(677,607,cs),
(686,607,o),
(690,612,o),
(690,620,cs),
(690,647,ls),
(690,655,o),
(686,660,o),
(677,660,cs)
);
}
);
width = 699;
}
);
note = Y;
unicode = 89;
},
{
glyphname = Z;
kernLeft = Z;
kernRight = Z;
lastChange = "2025-01-07 12:07:44 +0000";
layers = (
{
anchors = (
{
name = bottom;
pos = (300,0);
},
{
name = top;
pos = (368,660);
}
);
hints = (
{
horizontal = 1;
place = (-12,21);
target = up;
type = BottomGhost;
}
);
layerId = "6AD408C6-91F3-4F0B-A103-73D10F5280D9";
shapes = (
{
closed = 1;
nodes = (
(595,172,ls),
(592,173,o),
(590,174,o),
(587,174,cs),
(583,174,o),
(579,171,o),
(576,166,cs),
(573,161,ls),
(537,106,o),
(476,80,o),
(312,80,cs),
(194,80,l),
(626,641,ls),
(628,644,o),
(631,648,o),
(631,651,cs),
(631,656,ls),
(631,658,o),
(630,660,o),
(626,660,cs),
(155,660,ls),
(149,660,o),
(143,660,o),
(138,664,cs),
(131,671,o),
(129,671,o),
(126,671,cs),
(121,671,o),
(117,670,o),
(114,664,cs),
(45,527,ls),
(43,524,o),
(42,522,o),
(42,519,cs),
(42,515,o),
(45,511,o),
(49,509,cs),
(86,488,ls),
(89,487,o),
(92,486,o),
(94,486,cs),
(98,486,o),
(101,489,o),
(105,494,cs),
(108,498,ls),
(150,549,o),
(186,589,o),
(266,589,cs),
(415,589,l),
(19,79,ls),
(16,74,o),
(13,68,o),
(13,62,cs),
(13,13,ls),
(13,4,o),
(18,0,o),
(26,0,cs),
(526,0,ls),
(532,0,o),
(539,0,o),
(543,-4,cs),
(547,-9,ls),
(550,-11,o),
(553,-11,o),
(555,-11,cs),
(560,-11,o),
(563,-9,o),
(566,-4,cs),
(636,133,ls),
(638,136,o),
(639,138,o),
(639,141,cs),
(639,144,o),
(638,148,o),
(632,151,cs)
);
}
);
width = 656;
}
);
note = Z;
unicode = 90;
},
{
glyphname = Saltillo;
lastChange = "2025-01-07 12:07:44 +0000";
layers = (
{
layerId = "6AD408C6-91F3-4F0B-A103-73D10F5280D9";
shapes = (
{
closed = 1;
nodes = (
(70,438,ls),
(71,429,o),
(74,425,o),
(83,425,cs),
(103,425,ls),
(111,425,o),
(115,429,o),
(116,438,cs),
(136,711,ls),
(137,720,o),
(131,724,o),
(123,724,cs),
(63,724,ls),
(54,724,o),
(49,720,o),
(50,711,cs)
);
}
);
width = 186;
}
);
unicode = 42891;
},
{
glyphname = a;
kernLeft = a;
kernRight = a;
lastChange = "2025-01-07 12:07:44 +0000";
layers = (
{
anchors = (
{
name = bottom;
pos = (281,0);
},
{
name = ogonek;
pos = (483,23);
},
{
name = top;
pos = (252,440);
}
);
background = {
shapes = (
{
closed = 1;
nodes = (
(469,449,ls),
(469,451,o),
(469,451,o),
(467,451,c),
(466,451,l),
(466,451,o),
(465,451,o),
(462,450,cs),
(454,444,o),
(448,440,o),
(442,436,cs),
(426,424,o),
(406,413,o),
(375,400,c),
(338,433,o),
(290,451,o),
(232,451,cs),
(126,451,o),
(26,384,o),
(26,221,cs),
(26,50,o),
(142,-11,o),
(222,-11,cs),
(312,-11,o),
(346,46,o),
(356,70,c),
(352,45,o),
(346,-2,o),
(346,-8,cs),
(346,-11,o),
(347,-11,o),
(348,-11,cs),
(350,-11,ls),
(353,-11,o),
(355,-11,o),
(356,-10,cs),
(396,8,o),
(432,24,o),
(518,24,cs),
(527,24,o),
(532,28,o),
(532,36,cs),
(532,65,ls),
(532,71,o),
(530,76,o),
(521,77,cs),
(478,82,o),
(469,121,o),
(469,163,c)
);
},
{
closed = 1;
nodes = (
(346,124,l),
(344,119,o),
(324,66,o),
(261,66,cs),
(189,66,o),
(140,136,o),
(140,249,cs),
(140,322,o),
(163,392,o),
(248,392,cs),
(317,392,o),
(340,336,o),
(346,301,c)
);
}
);
};
layerId = "6AD408C6-91F3-4F0B-A103-73D10F5280D9";
shapes = (
{
closed = 1;
nodes = (
(469,449,ls),
(469,451,o),
(469,451,o),
(467,451,c),
(466,451,l),
(466,451,o),
(465,451,o),
(462,450,cs),
(454,444,o),
(448,440,o),
(442,436,cs),
(426,424,o),
(406,413,o),
(375,400,c),
(338,433,o),
(290,451,o),
(232,451,cs),
(126,451,o),
(26,384,o),
(26,221,cs),
(26,50,o),
(142,-11,o),
(222,-11,cs),
(326,-11,o),
(357,66,o),
(363,90,c),
(358,90,l),
(351,50,o),
(346,0,o),
(346,-8,cs),
(346,-11,o),
(347,-11,o),
(348,-11,cs),
(350,-11,ls),
(353,-11,o),
(355,-11,o),
(356,-10,cs),
(396,8,o),
(432,24,o),
(518,24,cs),
(527,24,o),
(532,28,o),
(532,36,cs),
(532,65,ls),
(532,71,o),
(530,76,o),
(521,77,cs),
(478,82,o),
(469,121,o),
(469,163,c)
);
},
{
closed = 1;
nodes = (
(346,124,l),
(344,119,o),
(324,66,o),
(261,66,cs),
(189,66,o),
(140,136,o),
(140,249,cs),
(140,322,o),
(163,392,o),
(248,392,cs),
(317,392,o),
(340,336,o),
(346,301,c)
);
}
);
width = 545;
}
);
note = a;
unicode = 97;
},
{
glyphname = ae;
kernLeft = a;
kernRight = e;
lastChange = "2025-01-07 12:07:44 +0000";
layers = (
{
anchors = (
{
name = top;
pos = (382,440);
}
);
background = {
shapes = (
{
closed = 1;
nodes = (
(326,-11,o),
(356,65,o),
(358,78,c),
(361,109,l),
(346,-9,ls),
(346,-11,o),
(347,-11,o),
(348,-11,cs),
(350,-11,ls),
(353,-11,o),
(355,-11,o),
(356,-10,cs),
(386,4,o),
(414,16,o),
(465,21,c),
(500,1,o),
(541,-11,o),
(590,-11,cs),
(679,-11,o),
(733,32,o),
(766,92,cs),
(769,97,o),
(772,103,o),
(772,107,cs),
(772,110,o),
(771,113,o),
(768,114,cs),
(740,131,o),
(738,132,o),
(733,132,cs),
(730,132,o),
(728,130,o),
(726,128,cs),
(695,83,o),
(651,62,o),
(613,62,cs),
(546,62,o),
(502,108,o),
(481,158,c),
(737,269,ls),
(743,272,o),
(744,275,o),
(744,280,cs),
(744,347,o),
(679,450,o),
(563,450,cs),
(531,450,o),
(498,444,o),
(469,430,c),
(469,450,ls),
(469,451,o),
(468,451,o),
(467,451,c),
(466,451,l),
(466,451,o),
(465,451,o),
(462,450,cs),
(457,445,o),
(451,441,o),
(443,436,cs),
(428,425,o),
(407,414,o),
(375,400,c),
(338,433,o),
(290,451,o),
(232,451,cs),
(126,451,o),
(26,384,o),
(26,221,cs),
(26,50,o),
(142,-11,o),
(222,-11,cs)
);
},
{
closed = 1;
nodes = (
(189,66,o),
(140,136,o),
(140,249,cs),
(140,322,o),
(163,392,o),
(248,392,cs),
(317,392,o),
(340,336,o),
(346,301,c),
(346,124,l),
(344,119,o),
(324,66,o),
(261,66,cs)
);
},
{
closed = 1;
nodes = (
(464,233,o),
(463,262,o),
(463,280,cs),
(463,337,o),
(493,380,o),
(541,380,cs),
(582,380,o),
(612,340,o),
(612,283,c),
(471,212,l)
);
}
);
};
layerId = "6AD408C6-91F3-4F0B-A103-73D10F5280D9";
shapes = (
{
closed = 1;
nodes = (
(326,-11,o),
(361,65,o),
(366,109,c),
(361,109,l),
(346,-9,ls),
(346,-11,o),
(347,-11,o),
(348,-11,cs),
(350,-11,ls),
(353,-11,o),
(355,-11,o),
(356,-10,cs),
(386,4,o),
(414,16,o),
(465,21,c),
(500,1,o),
(541,-11,o),
(590,-11,cs),
(679,-11,o),
(733,32,o),
(766,92,cs),
(769,97,o),
(772,103,o),
(772,107,cs),
(772,110,o),
(771,113,o),
(768,114,cs),
(740,131,o),
(738,132,o),
(733,132,cs),
(730,132,o),
(728,130,o),
(726,128,cs),
(695,83,o),
(651,62,o),
(613,62,cs),
(546,62,o),
(502,108,o),
(481,158,c),
(737,269,ls),
(743,272,o),
(744,275,o),
(744,280,cs),
(744,347,o),
(679,450,o),
(563,450,cs),
(531,450,o),
(498,444,o),
(469,430,c),
(469,450,ls),
(469,451,o),
(468,451,o),
(467,451,c),
(466,451,l),
(466,451,o),
(465,451,o),
(462,450,cs),
(457,445,o),
(451,441,o),
(443,436,cs),
(428,425,o),
(407,414,o),
(375,400,c),
(338,433,o),
(290,451,o),
(232,451,cs),
(126,451,o),
(26,384,o),
(26,221,cs),
(26,50,o),
(142,-11,o),
(222,-11,cs)
);
},
{
closed = 1;
nodes = (
(189,66,o),
(140,136,o),
(140,249,cs),
(140,322,o),
(163,392,o),
(248,392,cs),
(317,392,o),
(340,336,o),
(346,301,c),
(346,124,l),
(344,119,o),
(324,66,o),
(261,66,cs)
);
},
{
closed = 1;
nodes = (
(464,233,o),
(463,262,o),
(463,280,cs),
(463,337,o),
(493,380,o),
(541,380,cs),
(582,380,o),
(612,340,o),
(612,283,c),
(471,212,l)
);
}
);
width = 781;
}
);
metricLeft = a;
metricRight = e;
note = ae;
unicode = 230;
},
{
glyphname = b;
kernLeft = b;
kernRight = b;
lastChange = "2025-01-07 12:07:44 +0000";
layers = (
{
hints = (
{
horizontal = 1;
place = (704,-20);
target = down;
type = TopGhost;
}
);
layerId = "6AD408C6-91F3-4F0B-A103-73D10F5280D9";
shapes = (
{
closed = 1;
nodes = (
(67,189,ls),
(67,44,o),
(162,-11,o),
(279,-11,cs),
(422,-11,o),
(510,84,o),
(510,219,cs),
(510,390,o),
(391,451,o),
(296,451,cs),
(246,451,o),
(205,432,o),
(189,408,c),
(189,702,ls),
(189,704,o),
(188,704,o),
(187,704,cs),
(187,704,ls),
(186,704,o),
(185,704,o),
(182,702,cs),
(158,685,o),
(110,651,o),
(17,620,cs),
(9,618,o),
(4,616,o),
(4,609,cs),
(4,579,ls),
(4,573,o),
(6,568,o),
(15,568,cs),
(63,562,o),
(67,514,o),
(67,466,cs)
);
},
{
closed = 1;
nodes = (
(189,351,l),
(210,367,o),
(233,374,o),
(257,374,cs),
(347,374,o),
(396,304,o),
(396,191,cs),
(396,118,o),
(373,47,o),
(288,47,cs),
(238,47,o),
(189,84,o),
(189,171,cs)
);
}
);
width = 536;
}
);
note = b;
unicode = 98;
},
{
glyphname = c;
kernLeft = a;
kernRight = c;
lastChange = "2025-01-07 12:07:44 +0000";
layers = (
{
anchors = (
{
name = bottom;
pos = (249,0);
},
{
name = top;
pos = (236,440);
}
);
background = {
shapes = (
{
closed = 1;
nodes = (
(392,135,ls),
(390,136,o),
(387,137,o),
(385,137,cs),
(381,137,o),
(377,136,o),
(374,131,cs),
(348,91,o),
(306,67,o),
(260,67,cs),
(171,67,o),
(140,149,o),
(140,236,cs),
(140,308,o),
(162,380,o),
(229,380,cs),
(281,380,o),
(304,341,o),
(301,301,cs),
(300,291,ls),
(300,288,o),
(301,285,o),
(306,285,cs),
(308,285,o),
(312,286,o),
(314,287,cs),
(415,313,ls),
(422,315,o),
(426,318,o),
(426,323,cs),
(426,325,o),
(426,326,o),
(425,329,cs),
(410,391,o),
(365,451,o),
(249,451,cs),
(150,451,o),
(40,387,o),
(27,241,cs),
(17,115,o),
(105,-8,o),
(237,-8,cs),
(315,-8,o),
(386,25,o),
(421,100,cs),
(422,103,o),
(422,106,o),
(422,107,cs),
(422,112,o),
(420,115,o),
(415,119,cs)
);
}
);
};
layerId = "6AD408C6-91F3-4F0B-A103-73D10F5280D9";
shapes = (
{
closed = 1;
nodes = (
(392,135,ls),
(390,136,o),
(387,137,o),
(385,137,cs),
(381,137,o),
(377,136,o),
(374,131,cs),
(348,91,o),
(306,67,o),
(260,67,cs),
(171,67,o),
(140,149,o),
(140,236,cs),
(140,308,o),
(162,380,o),
(229,380,cs),
(278,380,o),
(301,345,o),
(301,308,cs),
(301,300,o),
(300,296,o),
(300,291,cs),
(300,288,o),
(301,285,o),
(306,285,cs),
(308,285,o),
(312,286,o),
(314,287,cs),
(415,313,ls),
(422,315,o),
(426,318,o),
(426,323,cs),
(426,325,o),
(426,326,o),
(425,329,cs),
(410,391,o),
(365,451,o),
(249,451,cs),
(150,451,o),
(40,387,o),
(27,241,cs),
(17,115,o),
(105,-11,o),
(237,-11,cs),
(315,-11,o),
(386,25,o),
(421,100,cs),
(422,103,o),
(422,106,o),
(422,107,cs),
(422,112,o),
(420,115,o),
(415,119,cs)
);
}
);
width = 452;
}
);
note = c;
unicode = 99;
},
{
glyphname = d;
kernLeft = a;
kernRight = a;
lastChange = "2025-01-07 12:07:44 +0000";
layers = (
{
anchors = (
{
name = bottom;
pos = (297,0);
}
);
background = {
shapes = (
{
closed = 1;
nodes = (
(469,702,ls),
(469,704,o),
(469,704,o),
(467,704,cs),
(466,704,ls),
(465,704,o),
(465,704,o),
(462,702,cs),
(438,685,o),
(389,651,o),
(297,620,cs),
(289,618,o),
(283,616,o),
(283,609,cs),
(283,579,ls),
(283,573,o),
(285,568,o),
(294,568,cs),
(342,562,o),
(346,514,o),
(346,466,cs),
(346,410,l),
(315,437,o),
(276,451,o),
(232,451,cs),
(126,451,o),
(26,384,o),
(26,221,cs),
(26,50,o),
(142,-11,o),
(222,-11,cs),
(312,-11,o),
(346,46,o),
(356,70,c),
(351,43,o),
(348,18,o),
(346,-9,cs),
(346,-11,o),
(347,-11,o),
(348,-11,cs),
(351,-11,ls),
(353,-11,o),
(355,-11,o),
(356,-10,cs),
(396,8,o),
(432,24,o),
(518,24,cs),
(527,24,o),
(532,28,o),
(532,36,cs),
(532,65,ls),
(532,71,o),
(530,76,o),
(521,77,cs),
(478,82,o),
(469,121,o),
(469,163,cs)
);
},
{
closed = 1;
nodes = (
(346,141,l),
(338,108,o),
(309,66,o),
(261,66,cs),
(189,66,o),
(140,136,o),
(140,249,cs),
(140,322,o),
(163,385,o),
(248,385,cs),
(306,385,o),
(346,340,o),
(346,285,cs)
);
}
);
};
hints = (
{
horizontal = 1;
place = (704,-20);
target = down;
type = TopGhost;
}
);
layerId = "6AD408C6-91F3-4F0B-A103-73D10F5280D9";
shapes = (
{
closed = 1;
nodes = (
(469,702,ls),
(469,704,o),
(469,704,o),
(467,704,cs),
(466,704,ls),
(465,704,o),
(465,704,o),
(462,702,cs),
(438,685,o),
(389,651,o),
(297,620,cs),
(289,618,o),
(283,616,o),
(283,609,cs),
(283,579,ls),
(283,573,o),
(285,568,o),
(294,568,cs),
(342,562,o),
(346,514,o),
(346,466,cs),
(346,410,l),
(315,437,o),
(276,451,o),
(232,451,cs),
(126,451,o),
(26,384,o),
(26,221,cs),
(26,50,o),
(142,-11,o),
(222,-11,cs),
(326,-11,o),
(361,68,o),
(367,97,c),
(361,97,l),
(353,60,o),
(349,26,o),
(346,-9,cs),
(346,-11,o),
(347,-11,o),
(348,-11,cs),
(351,-11,ls),
(353,-11,o),
(355,-11,o),
(356,-10,cs),
(396,8,o),
(432,24,o),
(518,24,cs),
(527,24,o),
(532,28,o),
(532,36,cs),
(532,65,ls),
(532,71,o),
(530,76,o),
(521,77,cs),
(478,82,o),
(469,121,o),
(469,163,cs)
);
},
{
closed = 1;
nodes = (
(346,141,l),
(338,108,o),
(309,66,o),
(261,66,cs),
(189,66,o),
(140,136,o),
(140,249,cs),
(140,322,o),
(163,385,o),
(248,385,cs),
(306,385,o),
(346,340,o),
(346,285,cs)
);
}
);
width = 545;
}
);
note = d;
unicode = 100;
},
{
glyphname = dcroat;
kernLeft = a;
kernRight = dcroat;
lastChange = "2025-01-07 12:07:44 +0000";
layers = (
{
hints = (
{
horizontal = 1;
place = (704,-20);
target = down;
type = TopGhost;
}
);
layerId = "6AD408C6-91F3-4F0B-A103-73D10F5280D9";
shapes = (
{
closed = 1;
nodes = (
(510,462,ls),
(518,462,o),
(523,467,o),
(523,475,cs),
(523,510,ls),
(523,519,o),
(518,524,o),
(510,524,cs),
(290,524,ls),
(281,524,o),
(276,519,o),
(276,510,cs),
(276,475,ls),
(276,467,o),
(281,462,o),
(290,462,cs)
);
},
{
ref = d;
}
);
width = 540;
}
);
note = dcroat;
unicode = 273;
},
{
glyphname = eth;
kernLeft = eth;
kernRight = eth;
lastChange = "2025-01-07 12:07:44 +0000";
layers = (
{
hints = (
{
horizontal = 1;
place = (660,-20);
target = down;
type = TopGhost;
},
{
horizontal = 1;
place = (711,-20);
target = down;
type = TopGhost;
},
{
horizontal = 1;
place = (443,-20);
target = down;
type = TopGhost;
}
);
layerId = "6AD408C6-91F3-4F0B-A103-73D10F5280D9";
shapes = (
{
closed = 1;
nodes = (
(381,-11,o),
(477,97,o),
(477,228,cs),
(477,452,o),
(289,693,o),
(50,694,cs),
(42,694,o),
(38,689,o),
(38,681,cs),
(38,649,ls),
(38,641,o),
(42,636,o),
(51,635,cs),
(182,623,o),
(268,528,o),
(299,444,c),
(282,447,o),
(266,449,o),
(249,449,cs),
(127,449,o),
(27,349,o),
(27,220,cs),
(27,92,o),
(128,-11,o),
(255,-11,cs)
);
},
{
closed = 1;
nodes = (
(182,53,o),
(141,187,o),
(141,263,cs),
(141,327,o),
(170,382,o),
(234,382,cs),
(322,382,o),
(363,248,o),
(363,172,cs),
(363,103,o),
(331,53,o),
(270,53,cs)
);
},
{
closed = 1;
nodes = (
(157,509,o),
(160,510,o),
(163,514,cs),
(285,660,ls),
(288,663,o),
(289,666,o),
(289,669,cs),
(289,672,o),
(287,675,o),
(282,678,cs),
(251,702,ls),
(247,705,o),
(245,706,o),
(242,706,cs),
(238,706,o),
(235,704,o),
(232,700,cs),
(110,554,ls),
(107,552,o),
(106,548,o),
(106,546,cs),
(106,542,o),
(108,539,o),
(112,536,cs),
(144,512,ls),
(148,510,o),
(150,509,o),
(153,509,cs)
);
}
);
width = 504;
}
);
note = eth;
unicode = 240;
},
{
glyphname = e;
kernLeft = a;
kernRight = e;
lastChange = "2025-01-07 12:07:44 +0000";
layers = (
{
anchors = (
{
name = bottom;
pos = (260,0);
},
{
name = ogonek;
pos = (362,24);
},
{
name = top;
pos = (225,440);
}
);
layerId = "6AD408C6-91F3-4F0B-A103-73D10F5280D9";
shapes = (
{
closed = 1;
nodes = (
(409,269,ls),
(415,272,o),
(417,275,o),
(417,280,cs),
(417,347,o),
(352,451,o),
(236,451,cs),
(132,451,o),
(26,387,o),
(26,224,cs),
(26,97,o),
(116,-11,o),
(262,-11,cs),
(352,-11,o),
(406,32,o),
(439,92,cs),
(442,97,o),
(444,103,o),
(444,107,cs),
(444,110,o),
(444,113,o),
(441,114,cs),
(413,131,o),
(411,132,o),
(406,132,cs),
(403,132,o),
(400,130,o),
(399,128,cs),
(368,83,o),
(324,62,o),
(286,62,cs),
(218,62,o),
(174,108,o),
(154,158,c)
);
},
{
closed = 1;
nodes = (
(143,212,l),
(136,233,o),
(136,262,o),
(136,280,cs),
(136,337,o),
(165,380,o),
(214,380,cs),
(254,380,o),
(285,340,o),
(285,283,c)
);
}
);
width = 453;
}
);
note = e;
unicode = 101;
},
{
glyphname = f;
lastChange = "2025-01-07 12:07:44 +0000";
layers = (
{
layerId = "6AD408C6-91F3-4F0B-A103-73D10F5280D9";
shapes = (
{
closed = 1;
nodes = (
(96,440,l),
(31,440,ls),
(22,440,o),
(18,436,o),
(18,427,cs),
(18,400,ls),
(18,392,o),
(22,387,o),
(31,387,cs),
(94,387,o),
(95,334,o),
(95,287,cs),
(95,136,ls),
(95,89,o),
(74,53,o),
(31,53,cs),
(22,53,o),
(18,48,o),
(18,40,cs),
(18,13,ls),
(18,4,o),
(22,0,o),
(31,0,cs),
(279,0,ls),
(287,0,o),
(292,4,o),
(292,13,cs),
(292,40,ls),
(292,48,o),
(287,53,o),
(279,53,cs),
(236,53,o),
(214,89,o),
(214,136,cs),
(214,376,l),
(332,376,ls),
(340,376,o),
(345,380,o),
(345,389,cs),
(345,427,ls),
(345,436,o),
(340,440,o),
(332,440,cs),
(214,440,l),
(214,498,ls),
(214,565,o),
(220,610,o),
(242,636,cs),
(253,649,o),
(266,656,o),
(279,656,cs),
(300,656,o),
(320,638,o),
(320,605,cs),
(320,589,o),
(315,570,o),
(304,547,cs),
(302,544,o),
(301,540,o),
(301,538,cs),
(301,533,o),
(303,530,o),
(306,530,cs),
(311,530,o),
(370,543,o),
(402,550,cs),
(415,553,o),
(421,558,o),
(424,567,cs),
(430,582,o),
(433,597,o),
(433,611,cs),
(433,664,o),
(388,704,o),
(295,704,cs),
(141,704,o),
(96,552,o),
(96,447,cs)
);
}
);
width = 354;
}
);
note = f;
unicode = 102;
},
{
glyphname = g;
kernLeft = g;
kernRight = g;
lastChange = "2025-01-07 12:07:44 +0000";
layers = (
{
anchors = (
{
name = top;
pos = (229,440);
}
);
layerId = "6AD408C6-91F3-4F0B-A103-73D10F5280D9";
shapes = (
{
closed = 1;
nodes = (
(381,452,ls),
(373,451,o),
(371,446,o),
(371,439,cs),
(371,436,ls),
(371,419,o),
(364,414,o),
(356,414,cs),
(353,414,o),
(348,414,o),
(343,417,cs),
(312,438,o),
(271,451,o),
(222,451,cs),
(101,451,o),
(28,375,o),
(28,282,cs),
(28,235,o),
(47,194,o),
(80,163,c),
(48,150,o),
(26,121,o),
(26,81,cs),
(26,48,o),
(40,20,o),
(70,1,c),
(40,-16,o),
(18,-43,o),
(18,-82,cs),
(18,-156,o),
(110,-189,o),
(217,-189,cs),
(323,-189,o),
(436,-155,o),
(436,-59,cs),
(436,47,o),
(335,66,o),
(232,71,cs),
(124,77,o),
(104,90,o),
(104,117,cs),
(104,126,o),
(108,134,o),
(115,139,c),
(144,123,o),
(180,114,o),
(222,114,cs),
(342,114,o),
(415,189,o),
(415,282,cs),
(415,312,o),
(408,340,o),
(394,363,c),
(434,363,o),
(457,397,o),
(457,454,cs),
(457,462,o),
(457,467,o),
(452,467,cs),
(451,467,o),
(449,467,o),
(445,466,cs)
);
},
{
closed = 1;
nodes = (
(289,399,o),
(302,334,o),
(302,282,cs),
(302,231,o),
(289,166,o),
(222,166,cs),
(155,166,o),
(136,231,o),
(136,282,cs),
(136,334,o),
(155,399,o),
(222,399,cs)
);
},
{
closed = 1;
nodes = (
(130,-128,o),
(106,-97,o),
(106,-70,cs),
(106,-50,o),
(114,-34,o),
(130,-23,c),
(153,-28,o),
(180,-32,o),
(212,-33,cs),
(301,-38,o),
(353,-46,o),
(353,-84,cs),
(353,-111,o),
(305,-128,o),
(218,-128,cs)
);
}
);
width = 459;
}
);
note = g;
unicode = 103;
},
{
glyphname = h;
kernLeft = h;
kernRight = h;
lastChange = "2025-01-07 12:07:44 +0000";
layers = (
{
anchors = (
{
name = bottom;
pos = (309,0);
}
);
hints = (
{
horizontal = 1;
place = (704,-20);
target = down;
type = TopGhost;
}
);
layerId = "6AD408C6-91F3-4F0B-A103-73D10F5280D9";
shapes = (
{
closed = 1;
nodes = (
(575,53,ls),
(532,53,o),
(510,89,o),
(510,136,cs),
(510,299,ls),
(510,419,o),
(443,451,o),
(361,451,cs),
(280,451,o),
(231,395,o),
(215,364,c),
(215,702,ls),
(215,704,o),
(214,704,o),
(213,704,cs),
(212,704,ls),
(211,704,o),
(210,704,o),
(208,702,cs),
(156,664,o),
(98,639,o),
(42,620,cs),
(34,618,o),
(30,616,o),
(30,609,cs),
(30,579,ls),
(30,573,o),
(32,568,o),
(40,568,cs),
(89,562,o),
(92,514,o),
(92,466,cs),
(92,136,ls),
(92,89,o),
(71,53,o),
(28,53,cs),
(26,53,ls),
(18,53,o),
(13,48,o),
(13,40,cs),
(13,13,ls),
(13,4,o),
(18,0,o),
(26,0,cs),
(282,0,ls),
(291,0,o),
(296,4,o),
(296,13,cs),
(296,40,ls),
(296,48,o),
(291,53,o),
(282,53,cs),
(281,53,ls),
(238,53,o),
(216,89,o),
(216,136,cs),
(216,307,l),
(231,345,o),
(280,374,o),
(323,374,cs),
(377,374,o),
(386,346,o),
(386,287,cs),
(386,136,ls),
(386,89,o),
(373,53,o),
(341,53,cs),
(338,53,ls),
(330,53,o),
(325,48,o),
(325,40,cs),
(325,13,ls),
(325,4,o),
(330,0,o),
(338,0,cs),
(577,0,ls),
(585,0,o),
(590,4,o),
(590,13,cs),
(590,40,ls),
(590,48,o),
(585,53,o),
(577,53,cs)
);
}
);
width = 599;
}
);
note = h;
unicode = 104;
},
{
glyphname = hbar;
kernLeft = h;
kernRight = h;
lastChange = "2025-01-07 12:07:44 +0000";
layers = (
{
hints = (
{
horizontal = 1;
place = (704,-20);
target = down;
type = TopGhost;
}
);
layerId = "6AD408C6-91F3-4F0B-A103-73D10F5280D9";
shapes = (
{
ref = h;
},
{
closed = 1;
nodes = (
(48,524,ls),
(39,524,o),
(34,519,o),
(34,510,cs),
(34,475,ls),
(34,467,o),
(39,462,o),
(48,462,cs),
(303,462,ls),
(312,462,o),
(316,467,o),
(316,475,cs),
(316,510,ls),
(316,519,o),
(312,524,o),
(303,524,cs)
);
}
);
width = 599;
}
);
note = hbar;
unicode = 295;
},
{
glyphname = idotless;
kernLeft = i;
kernRight = a;
lastChange = "2025-01-07 12:07:44 +0000";
layers = (
{
anchors = (
{
name = bottom;
pos = (153,0);
},
{
name = ogonek;
pos = (277,0);
},
{
name = top;
pos = (153,440);
}
);
layerId = "6AD408C6-91F3-4F0B-A103-73D10F5280D9";
shapes = (
{
closed = 1;
nodes = (
(276,53,ls),
(233,53,o),
(212,90,o),
(212,137,cs),
(212,466,ls),
(212,466,o),
(211,467,o),
(210,467,cs),
(208,467,ls),
(206,467,o),
(205,466,o),
(204,466,cs),
(180,441,o),
(135,407,o),
(42,376,cs),
(33,373,o),
(29,371,o),
(29,364,cs),
(29,334,ls),
(29,328,o),
(31,324,o),
(40,323,cs),
(88,318,o),
(92,269,o),
(92,230,cs),
(92,136,ls),
(92,89,o),
(71,53,o),
(28,53,cs),
(26,53,ls),
(18,53,o),
(13,48,o),
(13,40,cs),
(13,13,ls),
(13,4,o),
(19,0,o),
(28,0,cs),
(277,0,ls),
(286,0,o),
(292,4,o),
(292,13,cs),
(292,40,ls),
(292,48,o),
(288,53,o),
(279,53,cs)
);
}
);
width = 305;
}
);
note = dotlessi;
unicode = 305;
},
{
glyphname = jdotless;
kernLeft = j;
kernRight = j;
lastChange = "2025-01-07 12:07:44 +0000";
layers = (
{
anchors = (
{
name = top;
pos = (153,440);
}
);
layerId = "6AD408C6-91F3-4F0B-A103-73D10F5280D9";
shapes = (
{
closed = 1;
nodes = (
(94,-4,ls),
(94,-77,o),
(92,-139,o),
(39,-139,cs),
(-10,-139,o),
(-22,-92,o),
(-22,-49,cs),
(-22,-40,o),
(-27,-37,o),
(-32,-37,cs),
(-35,-37,o),
(-38,-39,o),
(-44,-43,cs),
(-100,-84,ls),
(-107,-89,o),
(-110,-96,o),
(-110,-102,cs),
(-110,-119,o),
(-76,-188,o),
(33,-188,cs),
(187,-188,o),
(215,-55,o),
(215,55,cs),
(215,466,ls),
(215,466,o),
(214,467,o),
(213,467,cs),
(210,467,ls),
(209,467,o),
(208,466,o),
(207,466,cs),
(183,441,o),
(137,407,o),
(45,376,cs),
(36,373,o),
(32,371,o),
(32,364,cs),
(32,334,ls),
(32,328,o),
(33,324,o),
(42,323,cs),
(91,318,o),
(94,269,o),
(94,230,cs)
);
}
);
width = 267;
}
);
unicode = 567;
},
{
glyphname = k;
kernLeft = h;
kernRight = k;
lastChange = "2025-01-07 12:07:44 +0000";
layers = (
{
anchors = (
{
name = bottom;
pos = (290,0);
}
);
hints = (
{
horizontal = 1;
place = (704,-20);
target = down;
type = TopGhost;
}
);
layerId = "6AD408C6-91F3-4F0B-A103-73D10F5280D9";
shapes = (
{
closed = 1;
nodes = (
(535,53,ls),
(523,53,o),
(514,60,o),
(494,80,cs),
(305,269,l),
(373,330,ls),
(419,371,o),
(438,387,o),
(473,387,cs),
(483,387,ls),
(490,387,o),
(495,392,o),
(495,400,cs),
(495,427,ls),
(495,436,o),
(490,440,o),
(481,440,cs),
(286,440,ls),
(277,440,o),
(273,436,o),
(273,427,cs),
(273,400,ls),
(273,392,o),
(277,387,o),
(284,387,cs),
(311,387,ls),
(323,387,o),
(328,382,o),
(328,376,cs),
(328,371,o),
(326,368,o),
(321,363,cs),
(214,266,l),
(214,702,ls),
(214,704,o),
(213,704,o),
(212,704,cs),
(210,704,ls),
(209,704,o),
(209,704,o),
(206,702,cs),
(182,685,o),
(134,651,o),
(40,620,cs),
(33,618,o),
(28,616,o),
(28,609,cs),
(28,579,ls),
(28,573,o),
(30,568,o),
(38,568,cs),
(87,562,o),
(91,514,o),
(91,466,cs),
(91,136,ls),
(91,89,o),
(70,53,o),
(26,53,cs),
(18,53,o),
(13,48,o),
(13,40,cs),
(13,13,ls),
(13,4,o),
(18,0,o),
(26,0,cs),
(261,0,ls),
(269,0,o),
(275,4,o),
(275,13,cs),
(275,40,ls),
(275,48,o),
(269,53,o),
(261,53,cs),
(218,53,o),
(214,68,o),
(214,136,cs),
(214,188,l),
(232,205,l),
(348,79,ls),
(354,74,o),
(356,70,o),
(356,66,cs),
(356,57,o),
(343,53,o),
(332,53,cs),
(319,53,ls),
(312,53,o),
(307,48,o),
(307,40,cs),
(307,13,ls),
(307,4,o),
(312,0,o),
(320,0,cs),
(536,0,ls),
(545,0,o),
(549,4,o),
(549,13,cs),
(549,40,ls),
(549,48,o),
(545,53,o),
(538,53,cs)
);
}
);
width = 555;
}
);
note = k;
unicode = 107;
},
{
glyphname = kgreenlandic;
kernLeft = h;
kernRight = k;
lastChange = "2025-01-07 12:07:44 +0000";
layers = (
{
layerId = "6AD408C6-91F3-4F0B-A103-73D10F5280D9";
shapes = (
{
closed = 1;
nodes = (
(223,216,l),
(348,79,ls),
(354,74,o),
(356,70,o),
(356,66,cs),
(356,57,o),
(343,53,o),
(332,53,cs),
(319,53,ls),
(312,53,o),
(307,48,o),
(307,40,cs),
(307,13,ls),
(307,4,o),
(312,0,o),
(320,0,cs),
(536,0,ls),
(545,0,o),
(549,4,o),
(549,13,cs),
(549,40,ls),
(549,48,o),
(545,53,o),
(538,53,cs),
(535,53,ls),
(523,53,o),
(514,60,o),
(494,80,cs),
(296,279,l)
);
},
{
closed = 1;
nodes = (
(214,304,ls),
(214,372,o),
(218,387,o),
(261,387,cs),
(269,387,o),
(275,392,o),
(275,400,cs),
(275,427,ls),
(275,436,o),
(269,440,o),
(261,440,cs),
(26,440,ls),
(18,440,o),
(13,436,o),
(13,427,cs),
(13,400,ls),
(13,392,o),
(18,387,o),
(26,387,cs),
(70,387,o),
(91,351,o),
(91,304,cs),
(91,136,ls),
(91,89,o),
(70,53,o),
(26,53,cs),
(18,53,o),
(13,48,o),
(13,40,cs),
(13,13,ls),
(13,4,o),
(18,0,o),
(26,0,cs),
(261,0,ls),
(269,0,o),
(275,4,o),
(275,13,cs),
(275,40,ls),
(275,48,o),
(269,53,o),
(261,53,cs),
(218,53,o),
(214,68,o),
(214,136,cs)
);
},
{
closed = 1;
nodes = (
(408,330,ls),
(454,371,o),
(473,387,o),
(508,387,cs),
(518,387,ls),
(525,387,o),
(530,392,o),
(530,400,cs),
(530,427,ls),
(530,436,o),
(525,440,o),
(517,440,cs),
(321,440,ls),
(312,440,o),
(308,436,o),
(308,427,cs),
(308,400,ls),
(308,392,o),
(312,387,o),
(319,387,cs),
(346,387,ls),
(358,387,o),
(363,382,o),
(363,376,cs),
(363,371,o),
(361,368,o),
(356,363,cs),
(203,223,l),
(203,145,l)
);
}
);
width = 555;
}
);
metricLeft = k;
metricRight = k;
unicode = 312;
},
{
glyphname = l;
kernLeft = h;
kernRight = a;
lastChange = "2025-01-07 12:07:44 +0000";
layers = (
{
anchors = (
{
name = bottom;
pos = (151,0);
},
{
name = middle;
pos = (372,279);
},
{
name = top;
pos = (153,688);
}
);
hints = (
{
horizontal = 1;
place = (704,-20);
target = down;
type = TopGhost;
}
);
layerId = "6AD408C6-91F3-4F0B-A103-73D10F5280D9";
shapes = (
{
closed = 1;
nodes = (
(276,53,ls),
(233,53,o),
(212,90,o),
(212,137,cs),
(212,702,ls),
(212,703,o),
(211,704,o),
(210,704,cs),
(208,704,ls),
(206,704,o),
(205,703,o),
(204,702,cs),
(172,678,o),
(126,652,o),
(42,621,cs),
(33,618,o),
(29,617,o),
(29,610,cs),
(29,580,ls),
(29,574,o),
(31,569,o),
(40,568,cs),
(88,563,o),
(92,515,o),
(92,466,cs),
(92,136,ls),
(92,89,o),
(71,53,o),
(28,53,cs),
(26,53,ls),
(18,53,o),
(13,48,o),
(13,40,cs),
(13,13,ls),
(13,4,o),
(19,0,o),
(28,0,cs),
(277,0,ls),
(286,0,o),
(292,4,o),
(292,13,cs),
(292,40,ls),
(292,48,o),
(288,53,o),
(279,53,cs)
);
}
);
width = 305;
}
);
note = l;
unicode = 108;
},
{
glyphname = lslash;
kernLeft = h;
kernRight = lslash;
lastChange = "2025-01-07 12:07:44 +0000";
layers = (
{
hints = (
{
horizontal = 1;
place = (704,-20);
target = down;
type = TopGhost;
}
);
layerId = "6AD408C6-91F3-4F0B-A103-73D10F5280D9";
shapes = (
{
closed = 1;
nodes = (
(30,351,ls),
(23,348,o),
(20,343,o),
(20,336,cs),
(20,266,ls),
(20,258,o),
(24,253,o),
(30,253,cs),
(32,253,o),
(33,254,o),
(35,255,cs),
(363,378,ls),
(370,381,o),
(372,385,o),
(372,393,cs),
(372,464,ls),
(372,472,o),
(369,475,o),
(363,475,cs),
(361,475,o),
(359,475,o),
(357,474,cs)
);
},
{
pos = (42,0);
ref = l;
}
);
width = 392;
}
);
note = lslash;
unicode = 322;
},
{
glyphname = m;
kernLeft = m;
kernRight = h;
lastChange = "2025-01-07 12:07:44 +0000";
layers = (
{
anchors = (
{
name = bottom;
pos = (448,0);
}
);
layerId = "6AD408C6-91F3-4F0B-A103-73D10F5280D9";
shapes = (
{
closed = 1;
nodes = (
(876,53,ls),
(833,53,o),
(811,89,o),
(811,136,cs),
(811,282,ls),
(811,366,o),
(788,451,o),
(662,451,cs),
(592,451,o),
(539,416,o),
(500,365,c),
(485,415,o),
(446,451,o),
(360,451,cs),
(280,451,o),
(232,390,o),
(208,350,c),
(223,458,ls),
(224,464,o),
(224,465,o),
(224,466,cs),
(224,466,o),
(224,467,o),
(222,467,cs),
(221,467,ls),
(219,467,o),
(217,466,o),
(214,464,cs),
(190,447,o),
(127,414,o),
(42,401,cs),
(33,400,o),
(30,397,o),
(30,390,cs),
(30,360,ls),
(30,354,o),
(32,349,o),
(40,348,cs),
(89,343,o),
(92,294,o),
(92,247,cs),
(92,136,ls),
(92,89,o),
(71,53,o),
(28,53,cs),
(26,53,ls),
(18,53,o),
(13,48,o),
(13,40,cs),
(13,13,ls),
(13,4,o),
(18,0,o),
(26,0,cs),
(274,0,ls),
(282,0,o),
(287,4,o),
(287,13,cs),
(287,40,ls),
(287,48,o),
(282,53,o),
(274,53,cs),
(272,53,ls),
(238,53,o),
(216,89,o),
(216,136,cs),
(216,298,l),
(231,336,o),
(279,374,o),
(323,374,cs),
(378,374,o),
(386,343,o),
(386,287,cs),
(386,136,ls),
(386,71,o),
(364,53,o),
(340,53,cs),
(334,53,ls),
(326,53,o),
(320,48,o),
(320,40,cs),
(320,13,ls),
(320,4,o),
(326,0,o),
(334,0,cs),
(573,0,ls),
(582,0,o),
(586,4,o),
(586,13,cs),
(586,40,ls),
(586,48,o),
(582,53,o),
(573,53,cs),
(566,53,ls),
(532,53,o),
(510,71,o),
(510,136,cs),
(510,290,l),
(535,338,o),
(573,374,o),
(624,374,cs),
(680,374,o),
(687,334,o),
(687,287,cs),
(687,136,ls),
(687,80,o),
(678,53,o),
(642,53,cs),
(637,53,ls),
(628,53,o),
(624,48,o),
(624,40,cs),
(624,13,ls),
(624,4,o),
(628,0,o),
(637,0,cs),
(885,0,ls),
(893,0,o),
(898,4,o),
(898,13,cs),
(898,40,ls),
(898,48,o),
(893,53,o),
(885,53,cs)
);
}
);
width = 912;
}
);
note = m;
unicode = 109;
},
{
glyphname = n;
kernLeft = m;
kernRight = h;
lastChange = "2025-01-07 12:07:44 +0000";
layers = (
{
anchors = (
{
name = bottom;
pos = (306,0);
},
{
name = top;
pos = (301,440);
}
);
layerId = "6AD408C6-91F3-4F0B-A103-73D10F5280D9";
shapes = (
{
closed = 1;
nodes = (
(510,368,o),
(488,451,o),
(360,451,cs),
(280,451,o),
(232,390,o),
(208,350,c),
(223,458,ls),
(224,464,o),
(224,465,o),
(224,466,cs),
(224,466,o),
(224,467,o),
(222,467,cs),
(221,467,ls),
(219,467,o),
(217,466,o),
(214,464,cs),
(190,447,o),
(127,414,o),
(42,401,cs),
(33,400,o),
(30,397,o),
(30,390,cs),
(30,360,ls),
(30,354,o),
(32,349,o),
(40,348,cs),
(89,343,o),
(92,294,o),
(92,247,cs),
(92,136,ls),
(92,89,o),
(71,53,o),
(28,53,cs),
(26,53,ls),
(18,53,o),
(13,48,o),
(13,40,cs),
(13,13,ls),
(13,4,o),
(18,0,o),
(26,0,cs),
(274,0,ls),
(282,0,o),
(287,4,o),
(287,13,cs),
(287,40,ls),
(287,48,o),
(282,53,o),
(274,53,cs),
(272,53,ls),
(238,53,o),
(216,89,o),
(216,136,cs),
(216,298,l),
(231,336,o),
(279,374,o),
(323,374,cs),
(372,374,o),
(386,343,o),
(386,287,cs),
(386,136,ls),
(386,71,o),
(370,53,o),
(345,53,cs),
(339,53,ls),
(331,53,o),
(326,48,o),
(326,40,cs),
(326,13,ls),
(326,4,o),
(331,0,o),
(339,0,cs),
(573,0,ls),
(582,0,o),
(586,4,o),
(586,13,cs),
(586,40,ls),
(586,48,o),
(582,53,o),
(573,53,cs),
(566,53,ls),
(532,53,o),
(510,71,o),
(510,136,cs),
(510,287,ls)
);
}
);
width = 599;
}
);
note = n;
unicode = 110;
},
{
glyphname = nhookleft;
kernLeft = m;
kernRight = h;
lastChange = "2025-01-07 12:07:44 +0000";
layers = (
{
anchors = (
{
name = bottom;
pos = (306,0);
},
{
name = top;
pos = (301,440);
}
);
layerId = "6AD408C6-91F3-4F0B-A103-73D10F5280D9";
shapes = (
{
closed = 1;
nodes = (
(216,298,l),
(231,336,o),
(279,374,o),
(323,374,cs),
(372,374,o),
(386,343,o),
(386,287,cs),
(386,136,ls),
(386,71,o),
(370,53,o),
(345,53,cs),
(339,53,ls),
(331,53,o),
(326,48,o),
(326,40,cs),
(326,13,ls),
(326,4,o),
(331,0,o),
(339,0,cs),
(573,0,ls),
(582,0,o),
(586,4,o),
(586,13,cs),
(586,40,ls),
(586,48,o),
(582,53,o),
(573,53,cs),
(566,53,ls),
(532,53,o),
(510,71,o),
(510,136,cs),
(510,287,ls),
(510,368,o),
(488,451,o),
(360,451,cs),
(280,451,o),
(232,390,o),
(208,350,c),
(223,458,ls),
(224,464,o),
(224,465,o),
(224,466,cs),
(224,467,o),
(223,467,o),
(222,467,cs),
(221,467,ls),
(219,467,o),
(217,466,o),
(214,464,cs),
(190,447,o),
(127,414,o),
(42,401,cs),
(33,400,o),
(30,397,o),
(30,390,cs),
(30,360,ls),
(30,354,o),
(32,349,o),
(40,348,cs),
(89,343,o),
(92,294,o),
(92,247,cs),
(92,0,ls),
(92,-72,o),
(99,-139,o),
(37,-139,cs),
(31,-139,o),
(26,-138,o),
(20,-137,cs),
(16,-136,o),
(11,-138,o),
(10,-143,cs),
(0,-176,ls),
(-2,-181,o),
(2,-187,o),
(7,-187,cs),
(14,-188,o),
(22,-188,o),
(30,-188,cs),
(185,-188,o),
(216,-100,o),
(216,0,cs)
);
}
);
width = 599;
}
);
metricRight = n;
unicode = 626;
},
{
glyphname = eng;
kernLeft = m;
kernRight = ij;
lastChange = "2025-01-07 12:07:44 +0000";
layers = (
{
layerId = "6AD408C6-91F3-4F0B-A103-73D10F5280D9";
shapes = (
{
closed = 1;
nodes = (
(510,287,ls),
(510,368,o),
(488,451,o),
(360,451,cs),
(280,451,o),
(232,390,o),
(208,350,c),
(224,462,o),
(224,463,o),
(224,466,cs),
(224,466,o),
(224,467,o),
(222,467,cs),
(221,467,ls),
(219,467,o),
(217,466,o),
(214,464,cs),
(190,447,o),
(127,414,o),
(42,401,cs),
(33,400,o),
(30,397,o),
(30,390,cs),
(30,360,ls),
(30,354,o),
(32,349,o),
(40,348,cs),
(89,343,o),
(92,294,o),
(92,247,cs),
(92,136,ls),
(92,89,o),
(71,53,o),
(28,53,cs),
(26,53,ls),
(18,53,o),
(13,48,o),
(13,40,cs),
(13,13,ls),
(13,4,o),
(18,0,o),
(26,0,cs),
(274,0,ls),
(282,0,o),
(287,4,o),
(287,13,cs),
(287,40,ls),
(287,48,o),
(282,53,o),
(274,53,cs),
(272,53,ls),
(238,53,o),
(216,89,o),
(216,136,cs),
(216,298,l),
(231,336,o),
(279,374,o),
(323,374,cs),
(390,374,o),
(386,325,o),
(386,269,cs),
(386,-4,ls),
(386,-77,o),
(385,-139,o),
(331,-139,cs),
(282,-139,o),
(270,-92,o),
(270,-49,cs),
(270,-40,o),
(265,-37,o),
(260,-37,cs),
(258,-37,o),
(256,-38,o),
(254,-39,cs),
(192,-84,ls),
(185,-89,o),
(182,-96,o),
(182,-102,cs),
(182,-119,o),
(216,-188,o),
(325,-188,cs),
(479,-188,o),
(510,-55,o),
(510,55,cs)
);
}
);
width = 540;
}
);
note = eng;
unicode = 331;
},
{
glyphname = o;
kernLeft = a;
kernRight = b;
lastChange = "2025-01-07 12:07:44 +0000";
layers = (
{
anchors = (
{
name = bottom;
pos = (253,0);
},
{
name = ogonek;
pos = (292,0);
},
{
name = top;
pos = (253,440);
},
{
name = topright;
pos = (243,440);
}
);
layerId = "6AD408C6-91F3-4F0B-A103-73D10F5280D9";
shapes = (
{
closed = 1;
nodes = (
(126,451,o),
(26,354,o),
(26,225,cs),
(26,100,o),
(125,-11,o),
(258,-11,cs),
(375,-11,o),
(479,85,o),
(479,216,cs),
(479,334,o),
(382,451,o),
(247,451,cs)
);
},
{
closed = 1;
nodes = (
(198,60,o),
(131,200,o),
(131,280,cs),
(131,342,o),
(172,380,o),
(220,380,cs),
(306,380,o),
(373,241,o),
(373,160,cs),
(373,83,o),
(318,60,o),
(285,60,cs)
);
}
);
width = 505;
}
);
note = o;
unicode = 111;
},
{
glyphname = oslash;
kernLeft = a;
kernRight = b;
lastChange = "2025-01-07 12:07:44 +0000";
layers = (
{
hints = (
{
horizontal = 1;
place = (-176,21);
target = up;
type = BottomGhost;
},
{
horizontal = 1;
place = (-6,21);
target = up;
type = BottomGhost;
},
{
horizontal = 1;
place = (-11,21);
target = up;
type = BottomGhost;
}
);
layerId = "6AD408C6-91F3-4F0B-A103-73D10F5280D9";
shapes = (
{
closed = 1;
nodes = (
(488,436,ls),
(495,444,o),
(492,451,o),
(482,451,cs),
(409,451,ls),
(401,451,o),
(398,447,o),
(392,440,cs),
(17,4,ls),
(11,-4,o),
(15,-11,o),
(25,-11,cs),
(97,-11,ls),
(105,-11,o),
(109,-6,o),
(114,0,cs)
);
},
{
ref = o;
}
);
width = 505;
}
);
note = oslash;
unicode = 248;
},
{
glyphname = oe;
kernLeft = a;
kernRight = e;
lastChange = "2025-01-07 12:07:44 +0000";
layers = (
{
layerId = "6AD408C6-91F3-4F0B-A103-73D10F5280D9";
shapes = (
{
closed = 1;
nodes = (
(126,451,o),
(26,354,o),
(26,225,cs),
(26,100,o),
(125,-11,o),
(258,-11,cs),
(314,-11,o),
(369,12,o),
(409,50,c),
(449,12,o),
(505,-11,o),
(573,-11,cs),
(663,-11,o),
(716,32,o),
(750,92,cs),
(752,97,o),
(755,103,o),
(755,107,cs),
(755,110,o),
(754,113,o),
(752,114,cs),
(723,131,o),
(722,132,o),
(716,132,cs),
(714,132,o),
(711,130,o),
(709,128,cs),
(678,83,o),
(634,62,o),
(597,62,cs),
(529,62,o),
(485,108,o),
(465,158,c),
(720,269,ls),
(726,272,o),
(728,275,o),
(728,280,cs),
(728,347,o),
(663,450,o),
(546,450,cs),
(493,450,o),
(437,432,o),
(398,393,c),
(358,428,o),
(306,451,o),
(247,451,cs)
);
},
{
closed = 1;
nodes = (
(131,342,o),
(172,380,o),
(220,380,cs),
(306,380,o),
(373,241,o),
(373,160,cs),
(373,83,o),
(318,60,o),
(285,60,cs),
(198,60,o),
(131,200,o),
(131,280,cs)
);
},
{
closed = 1;
nodes = (
(446,337,o),
(476,380,o),
(524,380,cs),
(565,380,o),
(596,340,o),
(596,283,c),
(454,212,l),
(447,233,o),
(446,262,o),
(446,280,cs)
);
}
);
width = 764;
}
);
metricLeft = o;
metricRight = e;
note = oe;
unicode = 339;
},
{
glyphname = p;
kernLeft = p;
kernRight = b;
lastChange = "2025-01-07 12:07:44 +0000";
layers = (
{
layerId = "6AD408C6-91F3-4F0B-A103-73D10F5280D9";
shapes = (
{
closed = 1;
nodes = (
(209,447,o),
(209,448,o),
(209,450,cs),
(209,452,o),
(209,452,o),
(208,452,cs),
(207,452,ls),
(206,452,o),
(202,452,o),
(199,451,cs),
(158,430,o),
(124,417,o),
(37,417,cs),
(28,417,o),
(25,413,o),
(25,406,cs),
(25,376,ls),
(25,370,o),
(26,365,o),
(34,364,cs),
(84,359,o),
(86,310,o),
(86,263,cs),
(86,-40,ls),
(86,-87,o),
(66,-123,o),
(23,-123,cs),
(13,-123,o),
(9,-128,o),
(9,-136,cs),
(9,-163,ls),
(9,-172,o),
(13,-176,o),
(22,-176,cs),
(274,-176,ls),
(282,-176,o),
(287,-172,o),
(287,-163,cs),
(287,-136,ls),
(287,-128,o),
(282,-123,o),
(274,-123,cs),
(231,-123,o),
(209,-87,o),
(209,-40,cs),
(209,31,l),
(240,4,o),
(279,-11,o),
(324,-11,cs),
(430,-11,o),
(529,57,o),
(529,220,cs),
(529,391,o),
(414,451,o),
(334,451,cs),
(244,451,o),
(209,395,o),
(200,371,c)
);
},
{
closed = 1;
nodes = (
(209,317,l),
(217,341,o),
(246,375,o),
(294,375,cs),
(366,375,o),
(416,304,o),
(416,192,cs),
(416,119,o),
(392,47,o),
(308,47,cs),
(249,47,o),
(216,101,o),
(209,157,c)
);
}
);
width = 555;
}
);
note = p;
unicode = 112;
},
{
glyphname = thorn;
kernLeft = thorn;
kernRight = b;
lastChange = "2025-01-07 12:07:44 +0000";
layers = (
{
hints = (
{
horizontal = 1;
place = (664,-20);
target = down;
type = TopGhost;
}
);
layerId = "6AD408C6-91F3-4F0B-A103-73D10F5280D9";
shapes = (
{
closed = 1;
nodes = (
(209,458,l),
(209,663,ls),
(209,664,o),
(209,664,o),
(208,664,cs),
(206,664,ls),
(203,664,o),
(201,664,o),
(199,663,cs),
(159,645,o),
(124,628,o),
(37,628,cs),
(28,628,o),
(25,625,o),
(25,617,cs),
(25,587,ls),
(25,581,o),
(26,576,o),
(34,576,cs),
(84,570,o),
(86,522,o),
(86,474,cs),
(86,-40,ls),
(86,-87,o),
(66,-123,o),
(23,-123,cs),
(13,-123,o),
(9,-128,o),
(9,-136,cs),
(9,-163,ls),
(9,-172,o),
(13,-176,o),
(22,-176,cs),
(274,-176,ls),
(282,-176,o),
(287,-172,o),
(287,-163,cs),
(287,-136,ls),
(287,-128,o),
(282,-123,o),
(274,-123,cs),
(231,-123,o),
(209,-87,o),
(209,-40,cs),
(209,31,l),
(240,4,o),
(279,-11,o),
(324,-11,cs),
(430,-11,o),
(529,57,o),
(529,220,cs),
(529,391,o),
(414,452,o),
(334,452,cs),
(244,452,o),
(209,395,o),
(200,371,c)
);
},
{
closed = 1;
nodes = (
(209,317,l),
(217,341,o),
(246,375,o),
(294,375,cs),
(366,375,o),
(416,304,o),
(416,192,cs),
(416,119,o),
(392,47,o),
(308,47,cs),
(249,47,o),
(216,101,o),
(209,157,c)
);
}
);
width = 555;
}
);
note = thorn;
unicode = 254;
},
{
glyphname = q;
kernLeft = a;
kernRight = q;
lastChange = "2025-01-07 12:07:44 +0000";
layers = (
{
layerId = "6AD408C6-91F3-4F0B-A103-73D10F5280D9";
shapes = (
{
closed = 1;
nodes = (
(126,451,o),
(26,384,o),
(26,221,cs),
(26,50,o),
(142,-11,o),
(222,-11,cs),
(293,-11,o),
(329,25,o),
(346,51,c),
(346,-40,ls),
(346,-87,o),
(325,-123,o),
(282,-123,cs),
(280,-123,ls),
(272,-123,o),
(267,-128,o),
(267,-136,cs),
(267,-163,ls),
(267,-172,o),
(272,-176,o),
(280,-176,cs),
(532,-176,ls),
(541,-176,o),
(546,-172,o),
(546,-163,cs),
(546,-136,ls),
(546,-128,o),
(541,-123,o),
(532,-123,cs),
(489,-123,o),
(469,-87,o),
(469,-40,cs),
(469,451,ls),
(469,452,o),
(469,453,o),
(468,453,cs),
(467,453,ls),
(466,453,o),
(466,453,o),
(462,451,cs),
(443,436,o),
(423,421,o),
(374,400,c),
(337,432,o),
(289,451,o),
(232,451,cs)
);
},
{
closed = 1;
nodes = (
(334,392,o),
(346,289,o),
(346,238,cs),
(346,124,l),
(344,119,o),
(326,66,o),
(261,66,cs),
(189,66,o),
(140,136,o),
(140,249,cs),
(140,322,o),
(163,392,o),
(248,392,cs)
);
}
);
width = 550;
}
);
note = q;
unicode = 113;
},
{
glyphname = r;
kernLeft = m;
kernRight = r;
lastChange = "2025-01-07 12:07:44 +0000";
layers = (
{
anchors = (
{
name = bottom;
pos = (154,0);
},
{
name = top;
pos = (240,440);
}
);
layerId = "6AD408C6-91F3-4F0B-A103-73D10F5280D9";
shapes = (
{
closed = 1;
nodes = (
(211,387,o),
(224,464,o),
(224,466,cs),
(224,467,o),
(224,467,o),
(223,467,cs),
(221,467,ls),
(220,467,o),
(219,467,o),
(216,466,cs),
(194,449,o),
(127,414,o),
(43,401,cs),
(34,400,o),
(30,397,o),
(30,390,cs),
(30,360,ls),
(30,354,o),
(32,349,o),
(40,348,cs),
(89,343,o),
(92,294,o),
(92,247,cs),
(92,136,ls),
(92,89,o),
(71,53,o),
(28,53,cs),
(26,53,ls),
(18,53,o),
(13,48,o),
(13,40,cs),
(13,13,ls),
(13,4,o),
(18,0,o),
(26,0,cs),
(282,0,ls),
(291,0,o),
(296,4,o),
(296,13,cs),
(296,40,ls),
(296,48,o),
(291,53,o),
(282,53,cs),
(281,53,ls),
(238,53,o),
(216,89,o),
(216,136,cs),
(216,298,l),
(229,331,o),
(264,375,o),
(304,375,cs),
(328,375,o),
(346,361,o),
(346,329,cs),
(346,317,o),
(345,302,o),
(338,285,cs),
(337,282,o),
(336,280,o),
(336,277,cs),
(336,273,o),
(339,269,o),
(344,269,cs),
(347,269,o),
(349,270,o),
(352,271,cs),
(435,304,ls),
(456,313,o),
(458,334,o),
(458,361,cs),
(458,421,o),
(413,451,o),
(358,451,cs),
(296,451,o),
(235,415,o),
(203,348,c)
);
}
);
width = 466;
}
);
note = r;
unicode = 114;
},
{
glyphname = s;
kernLeft = s;
kernRight = s;
lastChange = "2025-01-07 14:08:00 +0000";
layers = (
{
anchors = (
{
name = bottom;
pos = (243,0);
},
{
name = top;
pos = (243,440);
}
);
layerId = "6AD408C6-91F3-4F0B-A103-73D10F5280D9";
shapes = (
{
closed = 1;
nodes = (
(417,314,ls),
(422,317,o),
(424,319,o),
(424,324,cs),
(424,326,o),
(423,329,o),
(422,333,cs),
(378,444,ls),
(375,451,o),
(370,454,o),
(363,454,cs),
(340,454,ls),
(333,454,o),
(328,451,o),
(328,445,cs),
(328,443,o),
(328,440,o),
(330,435,cs),
(332,429,o),
(334,426,o),
(334,423,cs),
(334,421,o),
(333,420,o),
(331,420,cs),
(329,420,o),
(327,421,o),
(325,422,cs),
(308,432,o),
(262,451,o),
(208,451,cs),
(115,451,o),
(57,400,o),
(57,330,cs),
(57,278,o),
(76,216,o),
(225,178,cs),
(286,163,o),
(358,144,o),
(358,99,cs),
(358,65,o),
(328,48,o),
(274,48,cs),
(202,48,o),
(131,81,o),
(74,167,cs),
(71,172,o),
(68,175,o),
(64,175,cs),
(62,175,o),
(60,174,o),
(56,172,cs),
(29,157,ls),
(24,154,o),
(22,150,o),
(22,146,cs),
(22,143,o),
(23,142,o),
(25,138,cs),
(100,-4,ls),
(104,-10,o),
(108,-12,o),
(115,-12,cs),
(147,-12,ls),
(154,-12,o),
(158,-11,o),
(158,-5,cs),
(158,-4,o),
(157,-1,o),
(156,2,cs),
(155,4,o),
(154,7,o),
(154,9,cs),
(154,13,o),
(157,15,o),
(160,15,cs),
(162,15,o),
(164,14,o),
(168,12,cs),
(198,-4,o),
(234,-11,o),
(270,-11,cs),
(385,-11,o),
(455,50,o),
(455,133,cs),
(455,235,o),
(348,265,o),
(257,286,cs),
(209,297,o),
(158,314,o),
(158,353,cs),
(158,386,o),
(189,398,o),
(220,398,cs),
(262,398,o),
(325,374,o),
(378,307,cs),
(381,303,o),
(385,301,o),
(389,301,cs),
(392,301,o),
(394,302,o),
(398,304,cs)
);
}
);
width = 477;
},
{
anchors = (
{
name = bottom;
pos = (243,0);
},
{
name = top;
pos = (243,440);
}
);
associatedMasterId = "6AD408C6-91F3-4F0B-A103-73D10F5280D9";
background = {
shapes = (
{
closed = 1;
nodes = (
(417,314,ls),
(422,317,o),
(424,319,o),
(424,324,cs),
(424,326,o),
(423,329,o),
(422,333,cs),
(378,444,ls),
(375,451,o),
(370,454,o),
(363,454,cs),
(340,454,ls),
(333,454,o),
(328,451,o),
(328,445,cs),
(328,444,o),
(329,442,o),
(329,439,cs),
(333,429,o),
(334,421,o),
(328,421,cs),
(327,421,o),
(326,422,o),
(325,422,cs),
(309,431,o),
(262,451,o),
(208,451,cs),
(115,451,o),
(57,400,o),
(57,330,cs),
(57,273,o),
(81,221,o),
(225,178,cs),
(284,160,o),
(358,144,o),
(358,99,cs),
(358,65,o),
(328,48,o),
(274,48,cs),
(202,48,o),
(131,81,o),
(74,167,c),
(71,172,o),
(68,174,o),
(64,174,cs),
(62,174,o),
(59,173,o),
(56,172,cs),
(29,157,ls),
(25,154,o),
(22,150,o),
(22,146,cs),
(22,143,o),
(23,141,o),
(25,138,cs),
(100,-4,ls),
(104,-10,o),
(108,-12,o),
(115,-12,cs),
(147,-12,l),
(154,-13,o),
(158,-11,o),
(158,-5,cs),
(158,-4,o),
(157,-1,o),
(156,2,cs),
(153,10,o),
(155,15,o),
(160,15,cs),
(162,15,o),
(165,14,o),
(168,12,cs),
(198,-2,o),
(234,-10,o),
(270,-10,cs),
(385,-10,o),
(455,50,o),
(455,133,cs),
(455,239,o),
(338,266,o),
(257,286,cs),
(209,298,o),
(158,314,o),
(158,353,cs),
(158,386,o),
(189,398,o),
(220,398,cs),
(262,398,o),
(325,374,o),
(378,307,cs),
(381,303,o),
(385,301,o),
(389,301,cs),
(391,301,o),
(393,301,o),
(396,303,cs)
);
}
);
};
hints = (
{
horizontal = 1;
place = (-10,59);
type = Stem;
},
{
horizontal = 1;
place = (397,53);
type = Stem;
},
{
place = (57,102);
type = Stem;
},
{
place = (358,97);
type = Stem;
}
);
layerId = "E5F2A7A5-A45C-4DEE-8FE7-62500045176C";
name = "29 mars 23 à 21:29";
shapes = (
{
closed = 1;
nodes = (
(417,314,ls),
(422,317,o),
(424,319,o),
(424,324,cs),
(424,326,o),
(423,329,o),
(422,333,cs),
(378,444,ls),
(375,451,o),
(370,454,o),
(363,454,cs),
(340,454,ls),
(333,454,o),
(328,451,o),
(328,445,cs),
(328,438,o),
(337,421,o),
(330,421,cs),
(328,421,o),
(326,422,o),
(325,422,cs),
(308,432,o),
(262,451,o),
(208,451,cs),
(115,451,o),
(57,400,o),
(57,330,cs),
(57,282,o),
(79,250,o),
(112,227,cs),
(199,165,o),
(358,168,o),
(358,99,cs),
(358,65,o),
(328,48,o),
(274,48,cs),
(202,48,o),
(131,81,o),
(74,167,cs),
(71,172,o),
(68,175,o),
(64,175,cs),
(62,175,o),
(60,174,o),
(56,172,cs),
(29,157,ls),
(25,154,o),
(22,150,o),
(22,146,cs),
(22,143,o),
(23,142,o),
(25,138,cs),
(100,-4,ls),
(104,-10,o),
(108,-12,o),
(115,-12,cs),
(147,-12,ls),
(154,-12,o),
(158,-11,o),
(158,-5,cs),
(158,-4,o),
(157,-1,o),
(156,2,cs),
(153,10,o),
(155,15,o),
(160,15,cs),
(162,15,o),
(165,14,o),
(168,12,cs),
(198,-2,o),
(234,-10,o),
(270,-10,cs),
(385,-10,o),
(455,50,o),
(455,133,cs),
(455,308,o),
(158,256,o),
(158,353,cs),
(158,386,o),
(189,398,o),
(220,398,cs),
(262,398,o),
(325,374,o),
(378,307,cs),
(381,303,o),
(385,301,o),
(389,301,cs),
(392,301,o),
(394,302,o),
(398,304,cs)
);
}
);
width = 477;
}
);
note = s;
unicode = 115;
},
{
glyphname = germandbls;
kernLeft = h;
kernRight = b;
lastChange = "2025-01-07 12:07:44 +0000";
layers = (
{
hints = (
{
horizontal = 1;
place = (440,-20);
target = down;
type = TopGhost;
}
);
layerId = "6AD408C6-91F3-4F0B-A103-73D10F5280D9";
shapes = (
{
closed = 1;
nodes = (
(387,410,o),
(518,406,o),
(518,528,cs),
(518,631,o),
(422,671,o),
(312,671,cs),
(109,671,o),
(92,524,o),
(92,453,cs),
(92,136,ls),
(92,89,o),
(77,53,o),
(29,53,cs),
(26,53,ls),
(18,53,o),
(13,48,o),
(13,40,cs),
(13,13,ls),
(13,4,o),
(18,0,o),
(26,0,cs),
(210,0,ls),
(218,0,o),
(224,4,o),
(224,13,cs),
(224,495,ls),
(224,566,o),
(249,604,o),
(312,604,cs),
(356,604,o),
(397,579,o),
(397,528,cs),
(397,432,o),
(289,461,o),
(289,378,cs),
(289,280,o),
(463,323,o),
(463,173,cs),
(463,119,o),
(436,77,o),
(385,77,cs),
(352,77,o),
(316,91,o),
(284,114,cs),
(282,115,o),
(279,116,o),
(276,116,cs),
(271,116,o),
(267,113,o),
(267,106,cs),
(267,49,ls),
(267,42,o),
(269,40,o),
(275,36,cs),
(312,11,o),
(357,-11,o),
(409,-11,cs),
(517,-11,o),
(591,63,o),
(591,173,cs),
(591,351,o),
(387,346,o),
(387,378,cs)
);
}
);
width = 618;
}
);
note = germandbls;
unicode = 223;
},
{
glyphname = t;
kernLeft = t;
kernRight = t;
lastChange = "2025-01-07 12:07:44 +0000";
layers = (
{
anchors = (
{
name = bottom;
pos = (204,0);
}
);
hints = (
{
horizontal = 1;
place = (-11,21);
target = up;
type = BottomGhost;
}
);
layerId = "6AD408C6-91F3-4F0B-A103-73D10F5280D9";
shapes = (
{
closed = 1;
nodes = (
(335,86,ls),
(332,92,o),
(329,93,o),
(326,93,cs),
(323,93,o),
(320,92,o),
(316,90,cs),
(297,78,o),
(273,64,o),
(253,64,cs),
(232,64,o),
(216,78,o),
(216,124,cs),
(216,376,l),
(334,376,ls),
(342,376,o),
(348,380,o),
(348,389,cs),
(348,427,ls),
(348,436,o),
(342,440,o),
(334,440,cs),
(216,440,l),
(216,587,ls),
(216,589,o),
(216,590,o),
(215,590,cs),
(213,590,ls),
(211,590,o),
(210,590,o),
(209,588,cs),
(175,554,o),
(127,529,o),
(101,515,cs),
(95,511,o),
(93,506,o),
(93,499,cs),
(93,440,l),
(29,440,ls),
(20,440,o),
(16,436,o),
(16,427,cs),
(16,400,ls),
(16,392,o),
(20,387,o),
(29,387,cs),
(92,387,o),
(93,334,o),
(93,287,cs),
(93,124,ls),
(93,20,o),
(141,-11,o),
(194,-11,cs),
(238,-11,o),
(287,9,o),
(319,29,cs),
(345,46,ls),
(349,48,o),
(352,52,o),
(352,55,cs),
(352,58,o),
(351,61,o),
(349,63,cs)
);
}
);
width = 361;
}
);
note = t;
unicode = 116;
},
{
glyphname = tbar;
kernLeft = t;
kernRight = t;
lastChange = "2025-01-07 12:07:44 +0000";
layers = (
{
hints = (
{
horizontal = 1;
place = (-11,21);
target = up;
type = BottomGhost;
}
);
layerId = "6AD408C6-91F3-4F0B-A103-73D10F5280D9";
shapes = (
{
closed = 1;
nodes = (
(294,203,ls),
(303,203,o),
(307,209,o),
(307,216,cs),
(307,269,ls),
(307,278,o),
(303,282,o),
(294,282,cs),
(59,282,ls),
(50,282,o),
(46,278,o),
(46,269,cs),
(46,216,ls),
(46,209,o),
(50,203,o),
(59,203,cs)
);
},
{
ref = t;
}
);
width = 361;
}
);
note = tbar;
unicode = 359;
},
{
glyphname = u;
kernLeft = u;
kernRight = u;
lastChange = "2025-01-07 12:07:44 +0000";
layers = (
{
anchors = (
{
name = bottom;
pos = (320,0);
},
{
name = ogonek;
pos = (520,24);
},
{
name = top;
pos = (296,440);
},
{
name = topright;
pos = (428,440);
}
);
layerId = "6AD408C6-91F3-4F0B-A103-73D10F5280D9";
shapes = (
{
closed = 1;
nodes = (
(509,427,ls),
(509,436,o),
(503,440,o),
(495,440,cs),
(319,440,ls),
(310,440,o),
(305,435,o),
(305,427,cs),
(305,400,ls),
(305,392,o),
(310,387,o),
(319,387,cs),
(320,387,ls),
(363,387,o),
(385,351,o),
(385,304,cs),
(385,141,l),
(370,104,o),
(321,66,o),
(277,66,cs),
(222,66,o),
(214,106,o),
(214,153,cs),
(214,427,ls),
(214,436,o),
(209,440,o),
(201,440,cs),
(22,440,ls),
(13,440,o),
(9,435,o),
(9,427,cs),
(9,400,ls),
(9,392,o),
(13,387,o),
(22,387,cs),
(26,387,ls),
(69,387,o),
(91,351,o),
(91,304,cs),
(91,158,ls),
(91,74,o),
(114,-11,o),
(240,-11,cs),
(321,-11,o),
(375,53,o),
(400,102,c),
(389,22,o),
(385,-5,o),
(385,-9,cs),
(385,-11,o),
(386,-11,o),
(387,-11,cs),
(389,-11,ls),
(392,-11,o),
(394,-11,o),
(396,-10,cs),
(436,8,o),
(472,24,o),
(558,24,cs),
(567,24,o),
(570,28,o),
(570,36,cs),
(570,65,ls),
(570,71,o),
(569,76,o),
(561,77,cs),
(512,82,o),
(509,131,o),
(509,178,cs)
);
}
);
width = 580;
}
);
note = u;
unicode = 117;
},
{
glyphname = v;
kernLeft = v;
kernRight = v;
lastChange = "2025-01-07 12:07:44 +0000";
layers = (
{
hints = (
{
horizontal = 1;
place = (0,21);
target = up;
type = BottomGhost;
}
);
layerId = "6AD408C6-91F3-4F0B-A103-73D10F5280D9";
shapes = (
{
closed = 1;
nodes = (
(348,440,ls),
(340,440,o),
(334,436,o),
(334,427,cs),
(334,400,ls),
(334,392,o),
(340,387,o),
(348,387,cs),
(365,387,ls),
(379,387,o),
(385,380,o),
(385,369,cs),
(385,354,o),
(375,330,o),
(363,304,cs),
(290,132,l),
(209,304,ls),
(197,328,o),
(190,346,o),
(190,362,cs),
(190,378,o),
(198,387,o),
(220,387,cs),
(222,387,ls),
(231,387,o),
(235,392,o),
(235,400,cs),
(235,427,ls),
(235,436,o),
(231,440,o),
(222,440,cs),
(18,440,ls),
(10,440,o),
(5,436,o),
(5,427,cs),
(5,400,ls),
(5,392,o),
(10,387,o),
(18,387,cs),
(20,387,ls),
(43,387,o),
(51,376,o),
(71,332,cs),
(219,10,ls),
(222,4,o),
(225,0,o),
(233,0,cs),
(283,0,ls),
(290,0,o),
(294,4,o),
(297,10,cs),
(445,333,ls),
(466,377,o),
(478,387,o),
(496,387,cs),
(510,387,ls),
(517,387,o),
(523,392,o),
(523,400,cs),
(523,427,ls),
(523,436,o),
(517,440,o),
(510,440,cs)
);
}
);
width = 528;
}
);
note = v;
unicode = 118;
},
{
glyphname = w;
kernLeft = v;
kernRight = v;
lastChange = "2025-01-07 12:07:44 +0000";
layers = (
{
anchors = (
{
name = bottom;
pos = (405,0);
},
{
name = top;
pos = (437,440);
}
);
hints = (
{
horizontal = 1;
place = (0,21);
target = up;
type = BottomGhost;
}
);
layerId = "6AD408C6-91F3-4F0B-A103-73D10F5280D9";
shapes = (
{
closed = 1;
nodes = (
(640,440,ls),
(631,440,o),
(627,436,o),
(627,427,cs),
(627,400,ls),
(627,392,o),
(631,387,o),
(640,387,cs),
(657,387,ls),
(669,387,o),
(676,382,o),
(676,369,cs),
(676,359,o),
(672,345,o),
(664,326,cs),
(589,139,l),
(517,304,ls),
(508,326,o),
(500,346,o),
(500,362,cs),
(500,378,o),
(508,387,o),
(530,387,cs),
(540,387,ls),
(549,387,o),
(554,392,o),
(554,400,cs),
(554,427,ls),
(554,436,o),
(548,440,o),
(540,440,cs),
(329,440,ls),
(321,440,o),
(317,436,o),
(317,427,cs),
(317,400,ls),
(317,392,o),
(321,387,o),
(328,387,cs),
(348,387,ls),
(360,387,o),
(366,382,o),
(366,369,cs),
(366,359,o),
(363,345,o),
(355,326,cs),
(279,139,l),
(209,304,ls),
(199,326,o),
(190,346,o),
(190,362,cs),
(190,378,o),
(198,387,o),
(220,387,cs),
(222,387,ls),
(231,387,o),
(235,392,o),
(235,400,cs),
(235,427,ls),
(235,436,o),
(231,440,o),
(222,440,cs),
(18,440,ls),
(10,440,o),
(5,436,o),
(5,427,cs),
(5,400,ls),
(5,392,o),
(10,387,o),
(18,387,cs),
(20,387,ls),
(43,387,o),
(53,376,o),
(71,332,cs),
(210,10,ls),
(213,4,o),
(216,0,o),
(224,0,cs),
(274,0,ls),
(281,0,o),
(285,3,o),
(288,10,cs),
(404,279,l),
(520,10,ls),
(523,4,o),
(526,0,o),
(534,0,cs),
(584,0,ls),
(591,0,o),
(595,3,o),
(598,10,cs),
(737,333,ls),
(757,378,o),
(770,387,o),
(788,387,cs),
(802,387,ls),
(810,387,o),
(815,392,o),
(815,400,cs),
(815,427,ls),
(815,436,o),
(810,440,o),
(802,440,cs)
);
}
);
width = 820;
}
);
note = w;
unicode = 119;
},
{
glyphname = x;
kernLeft = x;
kernRight = x;
lastChange = "2025-01-07 12:07:44 +0000";
layers = (
{
layerId = "6AD408C6-91F3-4F0B-A103-73D10F5280D9";
shapes = (
{
closed = 1;
nodes = (
(11,53,o),
(7,48,o),
(7,40,cs),
(7,13,ls),
(7,4,o),
(11,0,o),
(20,0,cs),
(181,0,ls),
(190,0,o),
(194,4,o),
(194,13,cs),
(194,40,ls),
(194,48,o),
(190,53,o),
(181,53,cs),
(165,53,ls),
(150,53,o),
(143,56,o),
(143,63,cs),
(143,72,o),
(153,87,o),
(169,108,cs),
(231,188,l),
(306,97,ls),
(315,85,o),
(319,77,o),
(319,71,cs),
(319,56,o),
(298,53,o),
(287,53,cs),
(285,53,ls),
(277,53,o),
(272,48,o),
(272,40,cs),
(272,13,ls),
(272,4,o),
(277,0,o),
(285,0,cs),
(510,0,ls),
(519,0,o),
(524,4,o),
(524,13,cs),
(524,40,ls),
(524,48,o),
(519,53,o),
(510,53,cs),
(509,53,ls),
(487,53,o),
(462,70,o),
(431,108,cs),
(328,233,l),
(405,333,ls),
(435,372,o),
(447,387,o),
(483,387,cs),
(495,387,ls),
(504,387,o),
(509,392,o),
(509,400,cs),
(509,427,ls),
(509,436,o),
(504,440,o),
(495,440,cs),
(334,440,ls),
(326,440,o),
(321,436,o),
(321,427,cs),
(321,400,ls),
(321,392,o),
(326,387,o),
(334,387,cs),
(343,387,ls),
(358,387,o),
(364,384,o),
(364,377,cs),
(364,368,o),
(355,353,o),
(338,332,cs),
(294,275,l),
(235,347,ls),
(224,359,o),
(219,368,o),
(219,375,cs),
(219,384,o),
(230,387,o),
(252,387,cs),
(253,387,ls),
(261,387,o),
(267,392,o),
(267,400,cs),
(267,427,ls),
(267,436,o),
(261,440,o),
(253,440,cs),
(33,440,ls),
(24,440,o),
(19,436,o),
(19,427,cs),
(19,400,ls),
(19,392,o),
(24,387,o),
(33,387,cs),
(34,387,ls),
(56,387,o),
(81,369,o),
(112,332,cs),
(197,229,l),
(102,107,ls),
(72,70,o),
(56,53,o),
(20,53,cs)
);
}
);
width = 531;
}
);
note = x;
unicode = 120;
},
{
glyphname = y;
kernLeft = y;
kernRight = y;
lastChange = "2025-01-07 12:07:44 +0000";
layers = (
{
anchors = (
{
name = bottom;
pos = (255,-105);
},
{
name = top;
pos = (270,440);
}
);
layerId = "6AD408C6-91F3-4F0B-A103-73D10F5280D9";
shapes = (
{
closed = 1;
nodes = (
(320,440,ls),
(312,440,o),
(307,436,o),
(307,427,cs),
(307,400,ls),
(307,392,o),
(312,387,o),
(320,387,cs),
(336,387,ls),
(350,387,o),
(356,380,o),
(356,369,cs),
(356,354,o),
(347,331,o),
(334,306,cs),
(271,176,l),
(212,304,ls),
(202,327,o),
(192,349,o),
(192,364,cs),
(192,378,o),
(200,387,o),
(220,387,cs),
(222,387,ls),
(231,387,o),
(235,392,o),
(235,400,cs),
(235,427,ls),
(235,436,o),
(231,440,o),
(222,440,cs),
(18,440,ls),
(10,440,o),
(5,436,o),
(5,427,cs),
(5,400,ls),
(5,392,o),
(10,387,o),
(18,387,cs),
(20,387,ls),
(43,387,o),
(50,375,o),
(71,332,cs),
(201,64,l),
(102,-147,ls),
(99,-155,o),
(101,-161,o),
(109,-165,cs),
(154,-187,ls),
(162,-191,o),
(168,-188,o),
(172,-181,cs),
(427,333,ls),
(448,376,o),
(459,387,o),
(478,387,cs),
(490,387,ls),
(499,387,o),
(503,392,o),
(503,400,cs),
(503,427,ls),
(503,436,o),
(499,440,o),
(490,440,cs)
);
}
);
width = 509;
}
);
note = y;
unicode = 121;
},
{
glyphname = z;
kernLeft = z;
kernRight = z;
lastChange = "2025-01-07 12:07:44 +0000";
layers = (
{
anchors = (
{
name = bottom;
pos = (234,0);
},
{
name = top;
pos = (253,440);
}
);
hints = (
{
horizontal = 1;
place = (451,-20);
target = down;
type = TopGhost;
},
{
horizontal = 1;
place = (-12,21);
target = up;
type = BottomGhost;
}
);
layerId = "6AD408C6-91F3-4F0B-A103-73D10F5280D9";
shapes = (
{
closed = 1;
nodes = (
(437,145,ls),
(435,147,o),
(432,148,o),
(429,148,cs),
(424,148,o),
(421,145,o),
(418,141,cs),
(415,136,ls),
(371,63,o),
(278,61,o),
(217,61,cs),
(150,61,l),
(459,424,ls),
(462,427,o),
(463,429,o),
(463,432,cs),
(463,436,o),
(458,440,o),
(451,440,cs),
(126,440,ls),
(120,440,o),
(114,440,o),
(110,444,cs),
(104,451,o),
(102,451,o),
(99,451,cs),
(94,451,o),
(91,448,o),
(88,444,cs),
(16,328,ls),
(14,325,o),
(13,323,o),
(13,320,cs),
(13,314,o),
(17,312,o),
(20,310,cs),
(50,292,ls),
(55,290,o),
(55,289,o),
(59,289,cs),
(63,289,o),
(66,293,o),
(69,297,cs),
(72,304,ls),
(102,356,o),
(144,379,o),
(204,379,cs),
(289,379,l),
(11,61,ls),
(10,58,o),
(9,55,o),
(9,51,cs),
(9,13,ls),
(9,4,o),
(13,0,o),
(22,0,cs),
(361,0,ls),
(367,0,o),
(372,0,o),
(377,-4,cs),
(385,-11,o),
(385,-11,o),
(389,-11,cs),
(393,-11,o),
(397,-9,o),
(400,-4,cs),
(468,112,ls),
(470,114,o),
(471,117,o),
(471,120,cs),
(471,123,o),
(468,128,o),
(463,130,cs)
);
}
);
width = 479;
}
);
note = z;
unicode = 122;
},
{
glyphname = saltillo;
lastChange = "2025-01-07 12:07:44 +0000";
layers = (
{
layerId = "6AD408C6-91F3-4F0B-A103-73D10F5280D9";
shapes = (
{
closed = 1;
nodes = (
(70,478,ls),
(71,469,o),
(74,465,o),
(83,465,cs),
(103,465,ls),
(111,465,o),
(115,469,o),
(116,478,cs),
(136,711,ls),
(137,720,o),
(131,724,o),
(123,724,cs),
(63,724,ls),
(54,724,o),
(49,720,o),
(50,711,cs)
);
}
);
width = 186;
}
);
unicode = 42892;
},
{
glyphname = f_f;
kernLeft = f;
kernRight = a;
lastChange = "2025-01-07 12:07:44 +0000";
layers = (
{
anchors = (
{
name = caret_1;
pos = (344,0);
}
);
layerId = "6AD408C6-91F3-4F0B-A103-73D10F5280D9";
shapes = (
{
ref = f;
},
{
closed = 1;
nodes = (
(429,440,l),
(329,440,ls),
(320,440,o),
(316,436,o),
(316,427,cs),
(316,389,ls),
(316,380,o),
(320,376,o),
(329,376,cs),
(401,376,o),
(429,361,o),
(429,287,cs),
(429,136,ls),
(429,89,o),
(407,53,o),
(364,53,cs),
(356,53,o),
(351,48,o),
(351,40,cs),
(351,13,ls),
(351,4,o),
(356,0,o),
(364,0,cs),
(612,0,ls),
(620,0,o),
(626,4,o),
(626,13,cs),
(626,40,ls),
(626,48,o),
(620,53,o),
(612,53,cs),
(569,53,o),
(547,89,o),
(547,136,cs),
(547,376,l),
(665,376,ls),
(673,376,o),
(678,380,o),
(678,389,cs),
(678,427,ls),
(678,436,o),
(673,440,o),
(665,440,cs),
(547,440,l),
(547,498,ls),
(547,565,o),
(554,610,o),
(576,636,cs),
(586,649,o),
(599,656,o),
(612,656,cs),
(634,656,o),
(654,638,o),
(654,605,cs),
(654,589,o),
(649,570,o),
(637,547,cs),
(635,544,o),
(634,540,o),
(634,538,cs),
(634,533,o),
(636,530,o),
(640,530,cs),
(644,530,o),
(704,543,o),
(736,550,cs),
(749,553,o),
(754,558,o),
(758,567,cs),
(764,582,o),
(766,597,o),
(766,611,cs),
(766,664,o),
(722,704,o),
(628,704,cs),
(474,704,o),
(429,552,o),
(429,447,cs)
);
}
);
width = 687;
}
);
metricLeft = f;
metricRight = f;
unicode = 64256;
},
{
glyphname = f_f_i;
kernLeft = f;
kernRight = a;
lastChange = "2025-01-07 12:07:44 +0000";
layers = (
{
anchors = (
{
name = caret_1;
pos = (321,0);
},
{
name = caret_2;
pos = (641,0);
}
);
layerId = "6AD408C6-91F3-4F0B-A103-73D10F5280D9";
shapes = (
{
ref = f;
},
{
closed = 1;
nodes = (
(934,53,ls),
(891,53,o),
(869,89,o),
(869,136,cs),
(869,466,ls),
(869,466,o),
(868,467,o),
(867,467,cs),
(865,467,ls),
(863,467,o),
(860,466,o),
(857,466,cs),
(832,458,o),
(758,440,o),
(682,440,cs),
(554,440,l),
(554,498,ls),
(554,585,o),
(586,656,o),
(667,656,cs),
(720,656,o),
(756,627,o),
(756,572,cs),
(756,557,o),
(752,541,o),
(741,521,cs),
(739,517,o),
(738,514,o),
(738,511,cs),
(738,506,o),
(742,502,o),
(747,503,cs),
(840,524,ls),
(853,526,o),
(858,532,o),
(862,540,cs),
(867,554,o),
(869,566,o),
(869,577,cs),
(869,651,o),
(803,704,o),
(680,704,cs),
(499,704,o),
(432,552,o),
(432,447,cs),
(432,440,l),
(332,440,ls),
(323,440,o),
(319,436,o),
(319,427,cs),
(319,389,ls),
(319,380,o),
(323,376,o),
(332,376,cs),
(404,376,o),
(431,361,o),
(431,287,cs),
(431,136,ls),
(431,89,o),
(410,53,o),
(367,53,cs),
(359,53,o),
(354,48,o),
(354,40,cs),
(354,13,ls),
(354,4,o),
(359,0,o),
(367,0,cs),
(620,0,ls),
(628,0,o),
(633,4,o),
(633,13,cs),
(633,40,ls),
(633,48,o),
(628,53,o),
(620,53,cs),
(576,53,o),
(555,89,o),
(555,136,cs),
(555,376,l),
(682,376,ls),
(743,376,o),
(749,331,o),
(749,291,cs),
(749,136,ls),
(749,89,o),
(728,53,o),
(685,53,cs),
(684,53,ls),
(675,53,o),
(671,48,o),
(671,40,cs),
(671,13,ls),
(671,4,o),
(677,0,o),
(685,0,cs),
(934,0,ls),
(942,0,o),
(949,4,o),
(949,13,cs),
(949,40,ls),
(949,48,o),
(944,53,o),
(935,53,cs)
);
}
);
width = 962;
}
);
metricLeft = f;
metricRight = i;
unicode = 64259;
},
{
glyphname = f_f_l;
kernLeft = f;
kernRight = a;
lastChange = "2025-01-07 12:07:44 +0000";
layers = (
{
anchors = (
{
name = caret_1;
pos = (324,0);
},
{
name = caret_2;
pos = (649,0);
}
);
layerId = "6AD408C6-91F3-4F0B-A103-73D10F5280D9";
shapes = (
{
ref = f;
},
{
closed = 1;
nodes = (
(882,702,ls),
(882,704,o),
(881,704,o),
(880,704,cs),
(878,704,ls),
(877,704,o),
(876,704,o),
(874,702,cs),
(855,688,o),
(821,664,o),
(762,641,c),
(748,678,o),
(704,704,o),
(629,704,cs),
(474,704,o),
(425,552,o),
(425,447,cs),
(425,440,l),
(325,440,ls),
(316,440,o),
(312,436,o),
(312,427,cs),
(312,389,ls),
(312,380,o),
(316,376,o),
(325,376,cs),
(397,376,o),
(424,361,o),
(424,287,cs),
(424,136,ls),
(424,89,o),
(403,53,o),
(360,53,cs),
(352,53,o),
(347,48,o),
(347,40,cs),
(347,13,ls),
(347,4,o),
(352,0,o),
(360,0,cs),
(612,0,ls),
(621,0,o),
(626,4,o),
(626,13,cs),
(626,40,ls),
(626,48,o),
(621,53,o),
(612,53,cs),
(569,53,o),
(548,89,o),
(548,136,cs),
(548,376,l),
(665,376,ls),
(674,376,o),
(678,380,o),
(678,389,cs),
(678,427,ls),
(678,436,o),
(674,440,o),
(665,440,cs),
(547,440,l),
(547,498,ls),
(547,547,o),
(554,656,o),
(612,656,cs),
(634,656,o),
(654,638,o),
(654,605,cs),
(654,589,o),
(649,569,o),
(637,547,cs),
(634,539,o),
(634,530,o),
(642,530,cs),
(656,530,o),
(704,543,o),
(736,550,cs),
(754,554,o),
(759,545,o),
(759,507,cs),
(759,136,ls),
(759,89,o),
(737,53,o),
(694,53,cs),
(686,53,o),
(681,48,o),
(681,40,cs),
(681,13,ls),
(681,4,o),
(686,0,o),
(694,0,cs),
(947,0,ls),
(955,0,o),
(960,4,o),
(960,13,cs),
(960,40,ls),
(960,48,o),
(955,53,o),
(947,53,cs),
(904,53,o),
(882,89,o),
(882,136,cs)
);
}
);
width = 973;
}
);
metricLeft = f;
metricRight = l;
unicode = 64260;
},
{
glyphname = f_i;
kernLeft = f;
kernRight = a;
lastChange = "2025-01-07 12:07:44 +0000";
layers = (
{
anchors = (
{
name = bottom_1;
pos = (157,0);
},
{
name = bottom_2;
pos = (469,0);
},
{
name = caret_1;
pos = (313,0);
},
{
name = top_1;
pos = (157,920);
},
{
name = top_2;
pos = (469,920);
}
);
layerId = "6AD408C6-91F3-4F0B-A103-73D10F5280D9";
shapes = (
{
closed = 1;
nodes = (
(598,53,ls),
(554,53,o),
(532,89,o),
(532,136,cs),
(532,466,ls),
(532,466,o),
(532,467,o),
(531,467,cs),
(529,467,ls),
(527,467,o),
(524,466,o),
(521,466,cs),
(496,458,o),
(422,440,o),
(346,440,cs),
(218,440,l),
(218,498,ls),
(218,585,o),
(250,656,o),
(331,656,cs),
(384,656,o),
(420,627,o),
(420,572,cs),
(420,557,o),
(415,541,o),
(405,521,cs),
(403,517,o),
(402,514,o),
(402,511,cs),
(402,506,o),
(406,502,o),
(411,503,cs),
(503,524,ls),
(517,526,o),
(522,532,o),
(525,540,cs),
(531,554,o),
(533,566,o),
(533,577,cs),
(533,651,o),
(467,704,o),
(344,704,cs),
(163,704,o),
(96,552,o),
(96,447,cs),
(96,440,l),
(31,440,ls),
(23,440,o),
(18,436,o),
(18,427,cs),
(18,400,ls),
(18,392,o),
(23,387,o),
(31,387,cs),
(95,387,o),
(95,334,o),
(95,287,cs),
(95,136,ls),
(95,89,o),
(74,53,o),
(31,53,cs),
(23,53,o),
(18,48,o),
(18,40,cs),
(18,13,ls),
(18,4,o),
(23,0,o),
(31,0,cs),
(283,0,ls),
(292,0,o),
(297,4,o),
(297,13,cs),
(297,40,ls),
(297,48,o),
(292,53,o),
(283,53,cs),
(240,53,o),
(219,89,o),
(219,136,cs),
(219,376,l),
(346,376,ls),
(407,376,o),
(413,331,o),
(413,291,cs),
(413,136,ls),
(413,89,o),
(392,53,o),
(348,53,cs),
(339,53,o),
(334,48,o),
(334,40,cs),
(334,13,ls),
(334,4,o),
(341,0,o),
(348,0,cs),
(598,0,ls),
(606,0,o),
(612,4,o),
(612,13,cs),
(612,40,ls),
(612,48,o),
(608,53,o),
(599,53,cs)
);
}
);
width = 625;
}
);
metricLeft = f;
metricRight = i;
note = fi;
unicode = 64257;
},
{
glyphname = f_l;
kernLeft = f;
kernRight = a;
lastChange = "2025-01-07 12:07:44 +0000";
layers = (
{
anchors = (
{
name = bottom_1;
pos = (161,0);
},
{
name = bottom_2;
pos = (483,0);
},
{
name = caret_1;
pos = (322,0);
},
{
name = top_1;
pos = (161,920);
},
{
name = top_2;
pos = (483,920);
}
);
layerId = "6AD408C6-91F3-4F0B-A103-73D10F5280D9";
shapes = (
{
closed = 1;
nodes = (
(553,702,ls),
(553,704,o),
(552,704,o),
(551,704,cs),
(549,704,ls),
(548,704,o),
(547,704,o),
(545,702,cs),
(526,688,o),
(492,664,o),
(433,641,c),
(419,678,o),
(375,704,o),
(300,704,cs),
(145,704,o),
(96,552,o),
(96,447,cs),
(96,440,l),
(31,440,ls),
(23,440,o),
(18,436,o),
(18,427,cs),
(18,400,ls),
(18,392,o),
(23,387,o),
(31,387,cs),
(95,387,o),
(95,334,o),
(95,287,cs),
(95,136,ls),
(95,89,o),
(74,53,o),
(31,53,cs),
(23,53,o),
(18,48,o),
(18,40,cs),
(18,13,ls),
(18,4,o),
(23,0,o),
(31,0,cs),
(283,0,ls),
(292,0,o),
(297,4,o),
(297,13,cs),
(297,40,ls),
(297,48,o),
(292,53,o),
(283,53,cs),
(240,53,o),
(219,89,o),
(219,136,cs),
(219,376,l),
(336,376,ls),
(345,376,o),
(349,380,o),
(349,389,cs),
(349,427,ls),
(349,436,o),
(345,440,o),
(336,440,cs),
(218,440,l),
(218,498,ls),
(218,547,o),
(225,656,o),
(283,656,cs),
(305,656,o),
(325,638,o),
(325,605,cs),
(325,589,o),
(320,569,o),
(308,547,cs),
(304,539,o),
(305,530,o),
(312,530,cs),
(327,530,o),
(375,543,o),
(407,550,cs),
(425,554,o),
(429,545,o),
(429,507,cs),
(429,136,ls),
(429,89,o),
(408,53,o),
(365,53,cs),
(356,53,o),
(352,48,o),
(352,40,cs),
(352,13,ls),
(352,4,o),
(356,0,o),
(365,0,cs),
(618,0,ls),
(626,0,o),
(631,4,o),
(631,13,cs),
(631,40,ls),
(631,48,o),
(626,53,o),
(618,53,cs),
(575,53,o),
(553,89,o),
(553,136,cs)
);
}
);
width = 644;
}
);
metricLeft = f;
metricRight = l;
note = fl;
unicode = 64258;
},
{
glyphname = s_t;
lastChange = "2025-01-07 14:08:17 +0000";
layers = (
{
anchors = (
{
name = bottom;
pos = (657,0);
}
);
hints = (
{
horizontal = 1;
place = (-11,21);
target = up;
type = BottomGhost;
}
);
layerId = "6AD408C6-91F3-4F0B-A103-73D10F5280D9";
shapes = (
{
ref = s;
},
{
closed = 1;
nodes = (
(788,86,ls),
(785,92,o),
(782,93,o),
(779,93,cs),
(776,93,o),
(773,92,o),
(769,90,cs),
(750,78,o),
(726,64,o),
(706,64,cs),
(685,64,o),
(669,78,o),
(669,124,cs),
(669,376,l),
(787,376,ls),
(795,376,o),
(801,380,o),
(801,389,cs),
(801,427,ls),
(801,436,o),
(795,440,o),
(787,440,cs),
(669,440,l),
(669,644,o),
(566,688,o),
(476,688,cs),
(316,688,o),
(294,546,o),
(320,465,cs),
(329,438,o),
(335,419,o),
(344,393,c),
(398,393,l),
(389,418,o),
(376,446,o),
(371,472,cs),
(358,546,o),
(391,604,o),
(457,604,cs),
(547,604,o),
(546,513,o),
(546,440,c),
(482,440,ls),
(473,440,o),
(469,436,o),
(469,427,cs),
(469,400,ls),
(469,392,o),
(473,387,o),
(482,387,cs),
(545,387,o),
(546,334,o),
(546,287,cs),
(546,124,ls),
(546,20,o),
(594,-11,o),
(647,-11,cs),
(691,-11,o),
(740,9,o),
(772,29,cs),
(798,46,ls),
(802,48,o),
(805,52,o),
(805,55,cs),
(805,58,o),
(803,62,o),
(802,63,c)
);
}
);
width = 814;
}
);
metricLeft = s;
metricRight = t;
},
{
glyphname = Delta;
kernLeft = Delta;
lastChange = "2025-01-07 12:07:44 +0000";
layers = (
{
layerId = "6AD408C6-91F3-4F0B-A103-73D10F5280D9";
shapes = (
{
closed = 1;
nodes = (
(11,15,ls),
(10,13,o),
(9,11,o),
(9,7,cs),
(9,3,o),
(14,0,o),
(20,0,cs),
(524,0,ls),
(531,0,o),
(535,4,o),
(535,9,cs),
(535,11,o),
(534,13,o),
(533,15,cs),
(281,615,ls),
(279,620,o),
(275,624,o),
(272,624,cs),
(268,624,o),
(265,620,o),
(263,615,cs)
);
},
{
closed = 1;
nodes = (
(407,87,l),
(136,87,l),
(272,408,l)
);
}
);
width = 544;
}
);
note = Delta;
unicode = 916;
},
{
glyphname = Omega;
lastChange = "2025-01-07 12:07:44 +0000";
layers = (
{
layerId = "6AD408C6-91F3-4F0B-A103-73D10F5280D9";
shapes = (
{
closed = 1;
nodes = (
(537,79,l),
(593,134,o),
(634,213,o),
(634,306,cs),
(634,495,o),
(485,622,o),
(329,622,cs),
(172,622,o),
(26,495,o),
(26,306,cs),
(26,213,o),
(66,134,o),
(122,79,c),
(31,79,ls),
(23,79,o),
(18,75,o),
(18,66,cs),
(18,14,ls),
(18,5,o),
(23,1,o),
(31,1,cs),
(275,1,ls),
(284,1,o),
(289,5,o),
(289,14,cs),
(289,66,ls),
(289,75,o),
(284,79,o),
(275,79,cs),
(226,79,o),
(162,192,o),
(162,306,cs),
(162,430,o),
(209,546,o),
(329,546,cs),
(449,546,o),
(497,430,o),
(497,306,cs),
(497,192,o),
(433,79,o),
(384,79,cs),
(376,79,o),
(370,75,o),
(370,66,cs),
(370,14,ls),
(370,5,o),
(376,1,o),
(384,1,cs),
(628,1,ls),
(637,1,o),
(642,5,o),
(642,14,cs),
(642,66,ls),
(642,75,o),
(637,79,o),
(628,79,cs)
);
}
);
width = 659;
}
);
note = Omega;
unicode = 937;
},
{
glyphname = mu;
lastChange = "2025-01-07 12:07:44 +0000";
layers = (
{
hints = (
{
horizontal = 1;
place = (-176,21);
target = up;
type = BottomGhost;
}
);
layerId = "6AD408C6-91F3-4F0B-A103-73D10F5280D9";
shapes = (
{
closed = 1;
nodes = (
(517,427,ls),
(517,436,o),
(513,440,o),
(504,440,cs),
(327,440,ls),
(319,440,o),
(314,435,o),
(314,427,cs),
(314,400,ls),
(314,392,o),
(319,387,o),
(327,387,cs),
(329,387,ls),
(372,387,o),
(393,351,o),
(393,304,cs),
(393,141,l),
(378,104,o),
(330,66,o),
(287,66,cs),
(219,66,o),
(224,123,o),
(224,171,cs),
(224,427,ls),
(224,436,o),
(218,440,o),
(210,440,cs),
(31,440,ls),
(22,440,o),
(18,435,o),
(18,427,cs),
(18,400,ls),
(18,392,o),
(22,387,o),
(31,387,cs),
(35,387,ls),
(77,387,o),
(99,351,o),
(99,304,cs),
(99,-163,ls),
(99,-172,o),
(105,-176,o),
(113,-176,cs),
(210,-176,ls),
(219,-176,o),
(224,-172,o),
(224,-163,cs),
(224,-11,l),
(249,-11,ls),
(330,-11,o),
(384,53,o),
(408,102,c),
(394,-9,ls),
(394,-11,o),
(394,-11,o),
(396,-11,cs),
(398,-11,ls),
(400,-11,o),
(404,-11,o),
(405,-10,c),
(444,8,o),
(480,24,o),
(567,24,cs),
(576,24,o),
(580,28,o),
(580,36,cs),
(580,65,ls),
(580,71,o),
(578,76,o),
(569,77,cs),
(521,82,o),
(517,131,o),
(517,178,cs)
);
}
);
width = 598;
}
);
note = mu;
unicode = 956;
},
{
glyphname = pi;
lastChange = "2025-01-07 12:07:44 +0000";
layers = (
{
layerId = "6AD408C6-91F3-4F0B-A103-73D10F5280D9";
shapes = (
{
closed = 1;
nodes = (
(30,440,ls),
(21,440,o),
(17,436,o),
(17,427,cs),
(17,383,ls),
(17,374,o),
(21,370,o),
(30,370,cs),
(96,370,l),
(96,136,ls),
(96,89,o),
(76,53,o),
(33,53,cs),
(30,53,ls),
(21,53,o),
(17,48,o),
(17,40,cs),
(17,13,ls),
(17,4,o),
(21,0,o),
(30,0,cs),
(286,0,ls),
(295,0,o),
(299,4,o),
(299,13,cs),
(299,40,ls),
(299,48,o),
(295,53,o),
(286,53,cs),
(284,53,ls),
(241,53,o),
(220,89,o),
(220,136,cs),
(220,365,l),
(386,365,l),
(386,95,ls),
(386,48,o),
(407,0,o),
(475,0,cs),
(583,0,ls),
(591,0,o),
(596,4,o),
(596,13,cs),
(596,40,ls),
(596,48,o),
(591,53,o),
(583,53,cs),
(579,53,ls),
(536,53,o),
(514,89,o),
(514,136,cs),
(514,370,l),
(587,370,ls),
(596,370,o),
(600,374,o),
(600,383,cs),
(600,427,ls),
(600,436,o),
(596,440,o),
(587,440,cs)
);
}
);
width = 613;
}
);
note = pi;
unicode = 960;
},
{
glyphname = zero;
kernLeft = zero;
kernRight = zero;
lastChange = "2025-01-07 12:07:45 +0000";
layers = (
{
layerId = "6AD408C6-91F3-4F0B-A103-73D10F5280D9";
shapes = (
{
closed = 1;
nodes = (
(131,484,o),
(23,372,o),
(22,234,cs),
(22,96,o),
(131,-16,o),
(265,-16,cs),
(399,-16,o),
(508,96,o),
(508,234,cs),
(508,372,o),
(399,484,o),
(265,484,cs)
);
},
{
closed = 1;
nodes = (
(345,417,o),
(383,326,o),
(383,236,cs),
(383,147,o),
(348,46,o),
(267,46,cs),
(186,46,o),
(145,143,o),
(145,232,cs),
(145,321,o),
(183,417,o),
(264,417,cs)
);
}
);
width = 530;
}
);
note = zero;
unicode = 48;
},
{
glyphname = one;
kernLeft = one;
kernRight = one;
lastChange = "2025-01-07 12:07:45 +0000";
layers = (
{
layerId = "6AD408C6-91F3-4F0B-A103-73D10F5280D9";
shapes = (
{
closed = 1;
nodes = (
(237,341,ls),
(237,404,o),
(233,416,o),
(266,426,cs),
(275,429,ls),
(283,431,o),
(288,433,o),
(288,442,cs),
(288,480,ls),
(288,488,o),
(283,496,o),
(275,493,cs),
(184,460,o),
(124,451,o),
(22,451,cs),
(13,451,o),
(9,446,o),
(9,438,cs),
(9,412,ls),
(9,403,o),
(13,399,o),
(22,399,cs),
(93,399,o),
(114,363,o),
(114,315,cs),
(114,136,ls),
(114,90,o),
(99,53,o),
(55,53,cs),
(31,53,ls),
(22,53,o),
(18,48,o),
(18,40,cs),
(18,13,ls),
(18,4,o),
(22,0,o),
(31,0,cs),
(319,0,ls),
(327,0,o),
(332,4,o),
(332,13,cs),
(332,40,ls),
(332,48,o),
(327,53,o),
(319,53,cs),
(296,53,ls),
(252,53,o),
(237,90,o),
(237,136,cs)
);
}
);
width = 349;
},
{
associatedMasterId = "6AD408C6-91F3-4F0B-A103-73D10F5280D9";
hints = (
{
horizontal = 1;
place = (0,53);
type = Stem;
},
{
horizontal = 1;
place = (398,53);
type = Stem;
},
{
place = (114,122);
type = Stem;
}
);
layerId = "48B56475-915A-4B4C-8B72-B6ED37B6FD5A";
name = "27 mars 23 à 11:44";
shapes = (
{
closed = 1;
nodes = (
(237,315,ls),
(237,389,o),
(253,419,o),
(301,423,cs),
(319,425,ls),
(327,426,o),
(332,429,o),
(332,438,cs),
(332,465,ls),
(332,473,o),
(327,480,o),
(319,478,cs),
(217,460,o),
(133,451,o),
(31,451,cs),
(22,451,o),
(18,446,o),
(18,438,cs),
(18,412,ls),
(18,403,o),
(22,399,o),
(31,399,cs),
(102,399,o),
(114,363,o),
(114,315,cs),
(114,136,ls),
(114,90,o),
(99,53,o),
(55,53,cs),
(31,53,ls),
(22,53,o),
(18,48,o),
(18,40,cs),
(18,13,ls),
(18,4,o),
(22,0,o),
(31,0,cs),
(319,0,ls),
(327,0,o),
(332,4,o),
(332,13,cs),
(332,40,ls),
(332,48,o),
(327,53,o),
(319,53,cs),
(296,53,ls),
(252,53,o),
(237,90,o),
(237,136,cs)
);
}
);
width = 349;
}
);
note = one;
unicode = 49;
},
{
glyphname = two;
kernLeft = two;
kernRight = two;
lastChange = "2025-01-07 12:07:45 +0000";
layers = (
{
hints = (
{
horizontal = 1;
place = (-12,21);
target = up;
type = BottomGhost;
}
);
layerId = "6AD408C6-91F3-4F0B-A103-73D10F5280D9";
shapes = (
{
closed = 1;
nodes = (
(433,138,ls),
(430,140,o),
(428,141,o),
(426,141,cs),
(422,141,o),
(418,138,o),
(415,133,cs),
(413,128,ls),
(381,75,o),
(275,75,o),
(215,75,cs),
(133,75,l),
(213,179,o),
(407,216,o),
(407,351,cs),
(407,438,o),
(342,480,o),
(223,480,cs),
(114,480,o),
(40,420,o),
(40,357,cs),
(40,347,o),
(43,336,o),
(48,326,cs),
(51,316,o),
(56,312,o),
(70,309,cs),
(162,288,ls),
(167,287,o),
(170,290,o),
(170,296,cs),
(170,314,o),
(149,329,o),
(149,370,cs),
(149,414,o),
(187,429,o),
(218,429,cs),
(257,429,o),
(281,403,o),
(281,352,cs),
(281,245,o),
(91,176,o),
(29,52,cs),
(27,48,o),
(26,45,o),
(26,38,cs),
(26,13,ls),
(26,4,o),
(31,0,o),
(40,0,cs),
(361,0,ls),
(367,0,o),
(372,0,o),
(377,-4,cs),
(384,-11,o),
(386,-11,o),
(389,-11,cs),
(393,-11,o),
(397,-9,o),
(400,-4,cs),
(466,104,ls),
(468,108,o),
(469,110,o),
(469,113,cs),
(469,117,o),
(466,120,o),
(460,122,cs)
);
}
);
width = 478;
}
);
note = two;
unicode = 50;
},
{
glyphname = three;
kernLeft = three;
kernRight = three;
lastChange = "2025-01-07 12:07:45 +0000";
layers = (
{
layerId = "6AD408C6-91F3-4F0B-A103-73D10F5280D9";
shapes = (
{
closed = 1;
nodes = (
(138,288,ls),
(144,286,o),
(147,290,o),
(147,296,cs),
(147,304,o),
(126,336,o),
(126,370,cs),
(126,414,o),
(163,429,o),
(195,429,cs),
(234,429,o),
(257,403,o),
(257,352,cs),
(257,289,o),
(202,232,o),
(102,201,cs),
(96,199,o),
(90,195,o),
(91,189,cs),
(96,158,ls),
(97,150,o),
(100,147,o),
(108,147,cs),
(121,147,o),
(143,155,o),
(183,155,cs),
(255,155,o),
(304,124,o),
(304,41,cs),
(304,-64,o),
(230,-110,o),
(134,-110,cs),
(108,-110,o),
(82,-107,o),
(55,-101,cs),
(47,-99,o),
(40,-105,o),
(41,-112,cs),
(47,-152,ls),
(48,-160,o),
(52,-164,o),
(61,-165,cs),
(88,-168,o),
(116,-170,o),
(143,-170,cs),
(308,-170,o),
(439,-101,o),
(439,39,cs),
(439,136,o),
(367,194,o),
(267,209,c),
(336,234,o),
(384,278,o),
(384,351,cs),
(384,438,o),
(319,480,o),
(200,480,cs),
(91,480,o),
(18,421,o),
(18,357,cs),
(18,347,o),
(19,336,o),
(24,326,cs),
(28,317,o),
(33,312,o),
(46,309,cs)
);
}
);
width = 466;
}
);
note = three;
unicode = 51;
},
{
glyphname = four;
kernLeft = four;
kernRight = four;
lastChange = "2025-01-07 12:07:45 +0000";
layers = (
{
hints = (
{
horizontal = 1;
place = (-176,21);
target = up;
type = BottomGhost;
}
);
layerId = "6AD408C6-91F3-4F0B-A103-73D10F5280D9";
shapes = (
{
closed = 1;
nodes = (
(484,64,ls),
(484,73,o),
(480,77,o),
(471,77,cs),
(372,77,l),
(372,185,ls),
(372,193,o),
(369,199,o),
(362,197,cs),
(280,181,ls),
(272,180,o),
(268,175,o),
(268,167,cs),
(268,77,l),
(112,77,l),
(172,149,o),
(334,309,o),
(334,414,cs),
(334,423,o),
(334,433,o),
(330,442,cs),
(326,451,o),
(321,457,o),
(308,459,cs),
(181,486,ls),
(176,487,o),
(172,485,o),
(172,479,cs),
(172,475,o),
(173,472,o),
(175,467,cs),
(189,436,o),
(195,412,o),
(195,386,cs),
(195,280,o),
(89,202,o),
(13,85,cs),
(10,80,o),
(9,75,o),
(9,69,cs),
(9,14,ls),
(9,5,o),
(13,1,o),
(22,1,cs),
(268,1,l),
(268,-163,ls),
(268,-172,o),
(273,-176,o),
(282,-176,cs),
(359,-176,ls),
(368,-176,o),
(372,-172,o),
(372,-163,cs),
(372,1,l),
(471,1,ls),
(480,1,o),
(484,5,o),
(484,14,cs)
);
}
);
width = 506;
}
);
note = four;
unicode = 52;
},
{
glyphname = five;
kernLeft = five;
kernRight = five;
lastChange = "2025-01-07 12:07:45 +0000";
layers = (
{
layerId = "6AD408C6-91F3-4F0B-A103-73D10F5280D9";
shapes = (
{
closed = 1;
nodes = (
(170,405,l),
(357,405,ls),
(364,405,o),
(369,406,o),
(374,400,cs),
(381,393,o),
(384,393,o),
(386,393,cs),
(390,393,o),
(394,396,o),
(397,400,cs),
(452,494,ls),
(454,496,o),
(455,498,o),
(455,501,cs),
(455,505,o),
(452,509,o),
(448,511,cs),
(421,527,ls),
(418,529,o),
(415,530,o),
(413,530,cs),
(409,530,o),
(405,527,o),
(402,522,cs),
(400,517,ls),
(379,483,o),
(273,480,o),
(230,480,cs),
(100,480,ls),
(92,480,o),
(87,477,o),
(85,469,cs),
(38,216,ls),
(36,208,o),
(40,202,o),
(47,202,cs),
(55,202,o),
(98,212,o),
(127,212,cs),
(198,212,o),
(279,186,o),
(279,71,cs),
(279,-56,o),
(199,-106,o),
(99,-106,cs),
(74,-106,o),
(48,-104,o),
(22,-98,cs),
(14,-96,o),
(9,-101,o),
(9,-108,cs),
(9,-119,o),
(11,-128,o),
(13,-149,cs),
(14,-157,o),
(19,-160,o),
(27,-161,cs),
(55,-165,o),
(82,-166,o),
(109,-166,cs),
(279,-166,o),
(423,-94,o),
(423,69,cs),
(423,201,o),
(319,270,o),
(191,270,cs),
(174,270,o),
(158,269,o),
(140,267,c)
);
}
);
width = 473;
}
);
note = five;
unicode = 53;
},
{
glyphname = six;
kernLeft = six;
kernRight = six;
lastChange = "2025-01-07 12:07:45 +0000";
layers = (
{
layerId = "6AD408C6-91F3-4F0B-A103-73D10F5280D9";
shapes = (
{
closed = 1;
nodes = (
(151,254,o),
(151,273,o),
(151,290,cs),
(151,500,o),
(202,612,o),
(314,612,cs),
(381,612,o),
(416,561,o),
(425,489,cs),
(426,482,o),
(427,473,o),
(429,472,cs),
(430,470,o),
(433,471,o),
(436,473,cs),
(513,545,ls),
(516,547,o),
(517,552,o),
(517,556,cs),
(517,591,o),
(450,671,o),
(326,671,cs),
(128,671,o),
(26,503,o),
(26,283,cs),
(26,128,o),
(110,-12,o),
(266,-12,cs),
(401,-12,o),
(510,71,o),
(510,207,cs),
(510,325,o),
(425,431,o),
(277,431,cs),
(234,431,o),
(170,424,o),
(128,381,c),
(152,236,l),
(150,294,o),
(174,364,o),
(262,364,cs),
(358,364,o),
(389,243,o),
(389,173,cs),
(389,109,o),
(362,55,o),
(288,55,cs),
(195,55,o),
(155,169,o),
(152,236,cs)
);
}
);
width = 535;
},
{
associatedMasterId = "6AD408C6-91F3-4F0B-A103-73D10F5280D9";
hints = (
{
horizontal = 1;
place = (-13,66);
type = Stem;
},
{
horizontal = 1;
place = (386,66);
type = Stem;
},
{
horizontal = 1;
place = (611,60);
type = Stem;
},
{
place = (26,129);
type = Stem;
},
{
place = (397,125);
type = Stem;
},
{
place = (431,108);
type = Stem;
}
);
layerId = "6B2FF801-F61C-4483-906F-380C1D0BA6DF";
name = "27 mars 23 à 11:39";
shapes = (
{
closed = 1;
nodes = (
(87,671,o),
(18,425,o),
(18,267,cs),
(18,111,o),
(106,-12,o),
(281,-12,cs),
(410,-12,o),
(514,83,o),
(514,209,cs),
(514,340,o),
(396,452,o),
(255,452,cs),
(223,452,o),
(196,448,o),
(165,436,c),
(191,529,o),
(245,611,o),
(352,611,cs),
(385,611,o),
(422,600,o),
(422,559,cs),
(422,543,o),
(416,522,o),
(403,496,cs),
(399,488,o),
(400,478,o),
(407,478,cs),
(416,478,o),
(461,489,o),
(502,499,cs),
(516,502,o),
(519,506,o),
(524,516,cs),
(528,526,o),
(530,537,o),
(530,547,cs),
(530,611,o),
(457,671,o),
(348,671,cs)
);
},
{
closed = 1;
nodes = (
(343,386,o),
(389,249,o),
(389,172,cs),
(389,105,o),
(356,54,o),
(290,54,cs),
(220,54,o),
(173,125,o),
(155,201,cs),
(130,289,o),
(151,386,o),
(245,386,cs)
);
}
);
width = 552;
}
);
note = six;
unicode = 54;
},
{
glyphname = seven;
kernLeft = seven;
kernRight = seven;
lastChange = "2025-01-07 12:07:45 +0000";
layers = (
{
layerId = "6AD408C6-91F3-4F0B-A103-73D10F5280D9";
shapes = (
{
closed = 1;
nodes = (
(115,480,ls),
(108,480,o),
(104,481,o),
(99,486,cs),
(92,493,o),
(89,493,o),
(86,493,cs),
(83,493,o),
(78,490,o),
(76,486,cs),
(11,391,ls),
(10,388,o),
(9,385,o),
(9,384,cs),
(9,379,o),
(11,376,o),
(16,373,cs),
(43,357,ls),
(46,356,o),
(48,355,o),
(51,355,cs),
(56,355,o),
(59,356,o),
(64,367,cs),
(84,401,o),
(191,405,o),
(234,405,cs),
(410,405,l),
(347,331,o),
(56,-6,o),
(56,-129,cs),
(56,-146,o),
(59,-160,o),
(81,-165,cs),
(225,-192,ls),
(231,-193,o),
(234,-189,o),
(234,-183,cs),
(234,-180,o),
(233,-179,o),
(231,-174,cs),
(222,-153,o),
(218,-131,o),
(218,-107,cs),
(218,50,o),
(400,275,o),
(481,400,cs),
(485,405,o),
(486,409,o),
(486,416,cs),
(486,467,ls),
(486,476,o),
(481,480,o),
(473,480,cs)
);
}
);
width = 503;
}
);
note = seven;
unicode = 55;
},
{
glyphname = eight;
kernLeft = eight;
kernRight = eight;
lastChange = "2025-01-07 12:07:45 +0000";
layers = (
{
layerId = "6AD408C6-91F3-4F0B-A103-73D10F5280D9";
shapes = (
{
closed = 1;
nodes = (
(130,673,o),
(40,602,o),
(40,499,cs),
(40,416,o),
(92,362,o),
(146,326,c),
(78,298,o),
(26,251,o),
(26,171,cs),
(26,58,o),
(112,-9,o),
(240,-9,cs),
(369,-9,o),
(465,60,o),
(465,171,cs),
(465,257,o),
(416,312,o),
(342,352,c),
(399,382,o),
(446,442,o),
(446,508,cs),
(446,602,o),
(368,673,o),
(249,673,cs)
);
},
{
closed = 1;
nodes = (
(318,619,o),
(348,563,o),
(348,508,cs),
(348,454,o),
(323,405,o),
(262,387,c),
(221,401,o),
(153,447,o),
(153,509,cs),
(153,582,o),
(193,619,o),
(249,619,cs)
);
},
{
closed = 1;
nodes = (
(268,275,o),
(348,233,o),
(348,159,cs),
(348,86,o),
(317,47,o),
(240,47,cs),
(158,47,o),
(122,106,o),
(122,171,cs),
(122,222,o),
(150,264,o),
(226,287,c)
);
}
);
width = 491;
}
);
note = eight;
unicode = 56;
},
{
glyphname = nine;
kernLeft = nine;
kernRight = nine;
lastChange = "2025-01-07 12:07:45 +0000";
layers = (
{
layerId = "6AD408C6-91F3-4F0B-A103-73D10F5280D9";
shapes = (
{
closed = 1;
nodes = (
(384,387,o),
(384,369,o),
(384,352,cs),
(384,142,o),
(334,30,o),
(221,30,cs),
(154,30,o),
(119,81,o),
(110,152,cs),
(109,159,o),
(108,168,o),
(106,170,cs),
(105,172,o),
(102,171,o),
(99,168,cs),
(22,97,ls),
(19,94,o),
(18,90,o),
(18,85,cs),
(18,50,o),
(85,-30,o),
(209,-30,cs),
(425,-30,o),
(509,138,o),
(509,358,cs),
(509,514,o),
(434,654,o),
(269,654,cs),
(134,654,o),
(25,570,o),
(25,435,cs),
(25,317,o),
(110,210,o),
(258,210,cs),
(301,210,o),
(365,217,o),
(407,260,c),
(383,406,l),
(385,348,o),
(361,277,o),
(273,277,cs),
(177,277,o),
(146,399,o),
(146,468,cs),
(146,532,o),
(173,587,o),
(247,587,cs),
(340,587,o),
(380,473,o),
(383,406,cs)
);
}
);
width = 535;
},
{
associatedMasterId = "6AD408C6-91F3-4F0B-A103-73D10F5280D9";
hints = (
{
horizontal = 1;
place = (-30,59);
type = Stem;
},
{
horizontal = 1;
place = (210,67);
type = Stem;
},
{
horizontal = 1;
place = (587,67);
type = Stem;
},
{
place = (42,121);
type = Stem;
},
{
place = (400,126);
type = Stem;
},
{
place = (23,108);
type = Stem;
}
);
layerId = "A9E4958E-7403-43B5-BF37-1066C62E679F";
name = "27 mars 23 à 11:32";
shapes = (
{
closed = 1;
nodes = (
(150,654,o),
(41,570,o),
(41,435,cs),
(41,317,o),
(127,210,o),
(275,210,cs),
(313,210,o),
(351,216,o),
(386,232,c),
(366,126,o),
(315,30,o),
(200,30,cs),
(167,30,o),
(129,40,o),
(129,82,cs),
(129,98,o),
(135,118,o),
(149,144,cs),
(151,149,o),
(152,153,o),
(152,156,cs),
(152,160,o),
(151,163,o),
(147,163,cs),
(144,163,o),
(128,159,o),
(50,142,cs),
(26,136,o),
(22,115,o),
(22,93,cs),
(22,30,o),
(95,-30,o),
(203,-30,cs),
(471,-30,o),
(525,244,o),
(525,393,cs),
(525,532,o),
(459,654,o),
(286,654,cs)
);
},
{
closed = 1;
nodes = (
(356,587,o),
(400,472,o),
(400,406,cs),
(400,346,o),
(378,277,o),
(290,277,cs),
(194,277,o),
(163,399,o),
(163,468,cs),
(163,532,o),
(190,587,o),
(264,587,cs)
);
}
);
width = 543;
},
{
associatedMasterId = "6AD408C6-91F3-4F0B-A103-73D10F5280D9";
background = {
shapes = (
{
closed = 1;
nodes = (
(150,654,o),
(41,570,o),
(41,435,cs),
(41,317,o),
(127,210,o),
(275,210,cs),
(313,210,o),
(351,216,o),
(386,232,c),
(366,126,o),
(315,30,o),
(200,30,cs),
(167,30,o),
(129,40,o),
(129,82,cs),
(129,98,o),
(135,118,o),
(149,144,cs),
(151,149,o),
(152,153,o),
(152,156,cs),
(152,160,o),
(151,163,o),
(147,163,cs),
(144,163,o),
(128,159,o),
(50,142,cs),
(26,136,o),
(22,115,o),
(22,93,cs),
(22,30,o),
(95,-30,o),
(203,-30,cs),
(471,-30,o),
(525,244,o),
(525,393,cs),
(525,532,o),
(459,654,o),
(286,654,cs)
);
},
{
closed = 1;
nodes = (
(356,587,o),
(400,472,o),
(400,406,cs),
(400,346,o),
(378,277,o),
(290,277,cs),
(194,277,o),
(163,399,o),
(163,468,cs),
(163,532,o),
(190,587,o),
(264,587,cs)
);
}
);
};
hints = (
{
horizontal = 1;
place = (-30,59);
type = Stem;
},
{
horizontal = 1;
place = (210,67);
type = Stem;
},
{
horizontal = 1;
place = (587,67);
type = Stem;
},
{
place = (42,121);
type = Stem;
},
{
place = (400,126);
type = Stem;
},
{
place = (38,93);
type = Stem;
}
);
layerId = "0C8C966E-3967-4DBA-96A7-9FF9FD1AB124";
name = "27 mars 23 à 11:41";
shapes = (
{
closed = 1;
nodes = (
(408,161,o),
(360,30,o),
(238,30,cs),
(171,30,o),
(136,81,o),
(127,152,cs),
(126,159,o),
(125,168,o),
(123,170,cs),
(121,172,o),
(119,171,o),
(116,168,cs),
(39,97,ls),
(16,76,o),
(84,-30,o),
(225,-30,cs),
(442,-30,o),
(525,138,o),
(525,358,cs),
(525,514,o),
(451,654,o),
(286,654,cs),
(150,654,o),
(41,570,o),
(41,435,cs),
(41,317,o),
(127,210,o),
(275,210,cs),
(318,210,o),
(382,217,o),
(423,260,c),
(400,406,l),
(402,348,o),
(378,277,o),
(290,277,cs),
(194,277,o),
(163,399,o),
(163,468,cs),
(163,532,o),
(190,587,o),
(264,587,cs),
(356,587,o),
(397,473,o),
(400,406,cs)
);
}
);
width = 543;
}
);
note = nine;
unicode = 57;
},
{
glyphname = zero.zero;
kernLeft = zero;
kernRight = zero;
lastChange = "2025-01-07 12:07:45 +0000";
layers = (
{
layerId = "6AD408C6-91F3-4F0B-A103-73D10F5280D9";
shapes = (
{
ref = zero;
},
{
closed = 1;
nodes = (
(167,54,l),
(226,30,l),
(369,428,l),
(309,450,l)
);
}
);
width = 530;
}
);
metricLeft = zero;
metricRight = zero;
},
{
glyphname = zero.blackCircled;
lastChange = "2025-01-07 12:07:45 +0000";
layers = (
{
layerId = "6AD408C6-91F3-4F0B-A103-73D10F5280D9";
shapes = (
{
locked = 1;
ref = _part.blackCircle;
scale = (0.9882,0.9882);
},
{
closed = 1;
nodes = (
(625,62,o),
(711,149,o),
(710,325,cs),
(709,502,o),
(625,590,o),
(500,590,cs),
(375,590,o),
(289,502,o),
(289,325,cs),
(290,149,o),
(375,62,o),
(500,62,cs)
);
},
{
closed = 1;
nodes = (
(392,464,o),
(419,531,o),
(500,531,cs),
(580,531,o),
(608,464,o),
(608,325,cs),
(608,187,o),
(580,120,o),
(500,120,cs),
(419,120,o),
(392,187,o),
(392,325,cs)
);
}
);
width = 1000;
}
);
metricLeft = "=40";
metricRight = "=|";
unicode = 9471;
},
{
glyphname = one.blackCircled;
lastChange = "2025-01-07 12:07:45 +0000";
layers = (
{
layerId = "6AD408C6-91F3-4F0B-A103-73D10F5280D9";
shapes = (
{
locked = 1;
ref = _part.blackCircle;
scale = (0.9882,0.9882);
},
{
closed = 1;
nodes = (
(634,68,ls),
(643,68,o),
(648,73,o),
(648,82,cs),
(648,103,ls),
(648,111,o),
(643,116,o),
(634,116,cs),
(617,116,ls),
(584,116,o),
(556,123,o),
(556,176,cs),
(556,575,ls),
(556,581,o),
(549,587,o),
(540,580,c),
(483,544,o),
(424,514,o),
(367,489,c),
(360,487,o),
(353,484,o),
(353,475,cs),
(353,452,ls),
(353,441,o),
(360,434,o),
(369,438,cs),
(440,463,ls),
(450,466,o),
(454,464,o),
(454,452,cs),
(454,176,ls),
(454,123,o),
(426,116,o),
(393,116,cs),
(374,116,ls),
(366,116,o),
(360,111,o),
(360,103,cs),
(360,82,ls),
(360,73,o),
(366,68,o),
(374,68,cs)
);
}
);
width = 1000;
}
);
metricLeft = "=40";
metricRight = "=|";
unicode = 10102;
},
{
glyphname = two.blackCircled;
lastChange = "2025-01-07 12:07:45 +0000";
layers = (
{
hints = (
{
horizontal = 1;
place = (65.835,21);
target = up;
type = BottomGhost;
}
);
layerId = "6AD408C6-91F3-4F0B-A103-73D10F5280D9";
shapes = (
{
locked = 1;
ref = _part.blackCircle;
scale = (0.9882,0.9882);
},
{
closed = 1;
nodes = (
(644,62,o),
(648,64,o),
(652,70,c),
(715,203,ls),
(716,205,o),
(717,208,o),
(717,212,cs),
(717,216,o),
(714,219,o),
(709,222,cs),
(687,235,l),
(686,236,o),
(683,237,o),
(680,237,cs),
(675,237,o),
(670,234,o),
(667,230,c),
(665,225,ls),
(629,151,o),
(593,136,o),
(510,136,cs),
(399,136,l),
(449,187,o),
(685,268,o),
(685,428,cs),
(685,538,o),
(596,591,o),
(482,591,cs),
(338,591,o),
(286,472,o),
(286,442,cs),
(286,433,o),
(291,427,o),
(300,425,c),
(381,396,ls),
(385,394,o),
(389,393,o),
(395,393,cs),
(403,393,o),
(407,397,o),
(407,403,cs),
(407,409,o),
(406,414,o),
(406,426,cs),
(406,487,o),
(436,530,o),
(487,530,cs),
(535,530,o),
(560,490,o),
(560,429,cs),
(560,277,o),
(348,233,o),
(287,117,c),
(286,114,o),
(285,110,o),
(285,104,cs),
(285,85,ls),
(285,76,o),
(290,71,o),
(299,71,cs),
(617,71,ls),
(625,71,o),
(627,69,o),
(627,69,c),
(631,65,l),
(634,64,o),
(638,62,o),
(639,62,cs)
);
}
);
width = 1000;
}
);
metricLeft = "=40";
metricRight = "=|";
unicode = 10103;
},
{
glyphname = three.blackCircled;
lastChange = "2025-01-07 12:07:45 +0000";
layers = (
{
layerId = "6AD408C6-91F3-4F0B-A103-73D10F5280D9";
shapes = (
{
locked = 1;
ref = _part.blackCircle;
scale = (0.9882,0.9882);
},
{
closed = 1;
nodes = (
(605,62,o),
(706,115,o),
(706,217,cs),
(706,290,o),
(659,330,o),
(594,342,c),
(650,359,o),
(689,395,o),
(689,455,cs),
(689,542,o),
(613,590,o),
(501,590,cs),
(358,590,o),
(299,471,o),
(299,441,cs),
(299,432,o),
(304,426,o),
(313,424,c),
(394,395,ls),
(398,393,o),
(402,392,o),
(408,392,cs),
(416,392,o),
(420,396,o),
(420,402,cs),
(420,408,o),
(419,413,o),
(419,425,cs),
(419,486,o),
(455,529,o),
(507,529,cs),
(541,529,o),
(574,507,o),
(574,456,cs),
(574,382,o),
(512,364,o),
(421,345,cs),
(415,344,o),
(406,339,o),
(406,331,c),
(412,306,l),
(412,299,o),
(418,294,o),
(427,294,cs),
(440,294,o),
(460,300,o),
(483,300,cs),
(548,300,o),
(590,276,o),
(590,213,cs),
(590,157,o),
(553,115,o),
(481,115,cs),
(418,115,o),
(381,157,o),
(374,212,cs),
(372,224,o),
(365,226,o),
(357,218,cs),
(301,165,l),
(298,163,o),
(295,157,o),
(295,153,cs),
(295,124,o),
(369,62,o),
(478,62,cs)
);
}
);
width = 1000;
}
);
metricLeft = "=40";
metricRight = "=|";
unicode = 10104;
},
{
glyphname = four.blackCircled;
lastChange = "2025-01-07 12:07:45 +0000";
layers = (
{
hints = (
{
horizontal = 1;
place = (74,21);
target = up;
type = BottomGhost;
}
);
layerId = "6AD408C6-91F3-4F0B-A103-73D10F5280D9";
shapes = (
{
locked = 1;
ref = _part.blackCircle;
scale = (0.9882,0.9882);
},
{
closed = 1;
nodes = (
(666,70,ls),
(675,70,o),
(680,75,o),
(680,84,cs),
(680,105,ls),
(680,113,o),
(675,118,o),
(666,118,cs),
(648,118,ls),
(616,118,o),
(587,125,o),
(587,178,cs),
(587,212,l),
(654,212,ls),
(663,212,o),
(668,217,o),
(668,226,cs),
(668,264,ls),
(668,273,o),
(663,278,o),
(654,278,cs),
(587,278,l),
(587,569,ls),
(587,573,o),
(586,576,o),
(584,578,c),
(585,579,l),
(583,579,l),
(582,580,o),
(578,582,o),
(575,582,cs),
(498,582,ls),
(493,582,o),
(489,579,o),
(487,576,cs),
(481,569,l),
(282,282,ls),
(278,277,o),
(278,273,o),
(278,267,cs),
(278,226,ls),
(278,217,o),
(283,212,o),
(292,212,cs),
(485,212,l),
(485,178,ls),
(485,125,o),
(458,118,o),
(425,118,cs),
(406,118,ls),
(397,118,o),
(392,113,o),
(392,105,cs),
(392,84,ls),
(392,75,o),
(397,70,o),
(406,70,cs)
);
},
{
closed = 1;
nodes = (
(485,440,l),
(485,278,l),
(369,278,l)
);
}
);
width = 1000;
}
);
metricLeft = "=40";
metricRight = "=|";
unicode = 10105;
},
{
glyphname = five.blackCircled;
lastChange = "2025-01-07 12:07:45 +0000";
layers = (
{
layerId = "6AD408C6-91F3-4F0B-A103-73D10F5280D9";
shapes = (
{
locked = 1;
ref = _part.blackCircle;
scale = (0.9882,0.9882);
},
{
closed = 1;
nodes = (
(607,44,o),
(695,111,o),
(695,206,cs),
(695,359,o),
(526,389,o),
(424,370,c),
(446,498,l),
(600,498,ls),
(606,498,o),
(607,498,o),
(609,496,cs),
(615,490,o),
(619,490,o),
(622,490,cs),
(626,490,o),
(631,492,o),
(633,497,c),
(682,575,ls),
(684,578,o),
(685,579,o),
(685,582,cs),
(685,586,o),
(681,591,o),
(677,594,c),
(657,605,l),
(653,608,o),
(651,608,o),
(648,608,cs),
(644,608,o),
(641,605,o),
(637,601,cs),
(626,588,ls),
(607,564,o),
(589,564,o),
(509,564,cs),
(390,564,ls),
(381,564,o),
(375,559,o),
(374,553,cs),
(338,313,ls),
(336,303,o),
(342,295,o),
(349,298,c),
(453,324,o),
(576,319,o),
(576,202,cs),
(576,137,o),
(543,97,o),
(483,97,cs),
(422,97,o),
(392,139,o),
(386,194,c),
(383,209,o),
(376,207,o),
(368,200,cs),
(313,147,l),
(310,145,o),
(307,139,o),
(307,135,cs),
(307,107,o),
(366,44,o),
(484,44,cs)
);
}
);
width = 1000;
}
);
metricLeft = "=40";
metricRight = "=|";
unicode = 10106;
},
{
glyphname = six.blackCircled;
lastChange = "2025-01-07 12:07:45 +0000";
layers = (
{
layerId = "6AD408C6-91F3-4F0B-A103-73D10F5280D9";
shapes = (
{
locked = 1;
ref = _part.blackCircle;
scale = (0.9882,0.9882);
},
{
closed = 1;
nodes = (
(601,62,o),
(687,127,o),
(687,233,cs),
(687,325,o),
(620,408,o),
(505,408,cs),
(480,408,o),
(447,405,o),
(418,390,c),
(432,485,o),
(469,529,o),
(533,529,cs),
(582,529,o),
(607,501,o),
(614,448,cs),
(614,444,o),
(616,435,o),
(618,433,c),
(620,429,o),
(625,429,o),
(629,433,cs),
(688,488,ls),
(690,490,o),
(692,495,o),
(692,499,cs),
(692,528,o),
(639,590,o),
(542,590,cs),
(388,590,o),
(309,461,o),
(309,291,cs),
(309,170,o),
(374,62,o),
(496,62,cs)
);
},
{
closed = 1;
nodes = (
(418,312,o),
(439,349,o),
(493,349,cs),
(563,349,o),
(586,259,o),
(586,207,cs),
(586,159,o),
(566,120,o),
(513,120,cs),
(452,120,o),
(421,188,o),
(414,239,c)
);
}
);
width = 1000;
}
);
metricLeft = "=40";
metricRight = "=|";
unicode = 10107;
},
{
glyphname = seven.blackCircled;
lastChange = "2025-01-07 12:07:45 +0000";
layers = (
{
layerId = "6AD408C6-91F3-4F0B-A103-73D10F5280D9";
shapes = (
{
locked = 1;
ref = _part.blackCircle;
scale = (0.9882,0.9882);
},
{
closed = 1;
nodes = (
(624,65,ls),
(633,65,o),
(638,70,o),
(638,79,cs),
(638,100,ls),
(638,108,o),
(633,113,o),
(624,113,cs),
(606,113,ls),
(573,113,o),
(525,123,o),
(546,171,cs),
(690,510,l),
(691,515,o),
(693,518,o),
(693,524,cs),
(693,563,ls),
(693,572,o),
(688,577,o),
(679,577,cs),
(406,577,ls),
(399,577,o),
(399,577,o),
(396,579,c),
(393,583,l),
(391,584,o),
(387,586,o),
(384,586,cs),
(379,586,o),
(375,585,o),
(372,578,cs),
(308,444,l),
(309,442,o),
(307,441,o),
(307,436,cs),
(307,432,o),
(309,429,o),
(315,426,cs),
(323,421,l),
(350,413,o),
(333,416,o),
(353,415,c),
(355,417,o),
(356,418,o),
(356,419,c),
(358,423,ls),
(395,497,o),
(430,512,o),
(521,512,cs),
(592,512,l),
(443,175,ls),
(418,118,o),
(402,113,o),
(369,113,cs),
(351,113,ls),
(342,113,o),
(337,108,o),
(337,100,cs),
(337,79,ls),
(337,70,o),
(342,65,o),
(351,65,cs)
);
}
);
width = 1000;
}
);
metricLeft = "=40";
metricRight = "=|";
unicode = 10108;
},
{
glyphname = eight.blackCircled;
lastChange = "2025-01-07 12:07:45 +0000";
layers = (
{
layerId = "6AD408C6-91F3-4F0B-A103-73D10F5280D9";
shapes = (
{
locked = 1;
ref = _part.blackCircle;
scale = (0.9882,0.9882);
},
{
closed = 1;
nodes = (
(597,62,o),
(672,117,o),
(672,204,cs),
(672,268,o),
(636,311,o),
(582,342,c),
(625,367,o),
(658,412,o),
(658,461,cs),
(658,535,o),
(596,589,o),
(503,589,cs),
(410,589,o),
(340,535,o),
(340,454,cs),
(340,393,o),
(376,351,o),
(417,323,c),
(367,301,o),
(329,264,o),
(329,204,cs),
(329,115,o),
(397,62,o),
(496,62,cs)
);
},
{
closed = 1;
nodes = (
(483,383,o),
(434,417,o),
(434,462,cs),
(434,502,o),
(462,528,o),
(503,528,cs),
(553,528,o),
(575,494,o),
(575,461,cs),
(575,421,o),
(558,386,o),
(513,373,c)
);
},
{
closed = 1;
nodes = (
(410,241,o),
(430,271,o),
(486,288,c),
(517,279,o),
(575,248,o),
(575,194,cs),
(575,148,o),
(546,124,o),
(496,124,cs),
(437,124,o),
(410,163,o),
(410,204,cs)
);
}
);
width = 1000;
}
);
metricLeft = "=40";
metricRight = "=|";
unicode = 10109;
},
{
glyphname = nine.blackCircled;
lastChange = "2025-01-07 12:07:45 +0000";
layers = (
{
layerId = "6AD408C6-91F3-4F0B-A103-73D10F5280D9";
shapes = (
{
locked = 1;
ref = _part.blackCircle;
scale = (0.9882,0.9882);
},
{
closed = 1;
nodes = (
(614,62,o),
(692,190,o),
(692,360,cs),
(692,482,o),
(627,590,o),
(505,590,cs),
(400,590,o),
(314,524,o),
(314,418,cs),
(314,327,o),
(382,243,o),
(497,243,cs),
(521,243,o),
(553,246,o),
(582,261,c),
(569,168,o),
(532,122,o),
(469,122,cs),
(419,122,o),
(395,150,o),
(388,204,cs),
(387,209,o),
(385,218,o),
(384,219,cs),
(381,223,o),
(379,222,o),
(373,218,c),
(315,164,l),
(312,162,o),
(309,156,o),
(309,152,cs),
(309,123,o),
(363,62,o),
(459,62,cs)
);
},
{
closed = 1;
nodes = (
(415,492,o),
(435,531,o),
(489,531,cs),
(547,531,o),
(577,469,o),
(586,418,c),
(584,339,o),
(563,303,o),
(508,303,cs),
(438,303,o),
(415,392,o),
(415,444,cs)
);
}
);
width = 1000;
}
);
metricLeft = "=40";
metricRight = "=|";
unicode = 10110;
},
{
glyphname = zero.circled;
lastChange = "2025-01-07 12:07:45 +0000";
layers = (
{
layerId = "6AD408C6-91F3-4F0B-A103-73D10F5280D9";
shapes = (
{
locked = 1;
ref = _part.circle;
scale = (0.9882,0.9882);
},
{
closed = 1;
nodes = (
(709,502,o),
(625,590,o),
(500,590,cs),
(375,590,o),
(289,502,o),
(289,325,cs),
(290,149,o),
(375,62,o),
(500,62,cs),
(625,62,o),
(711,149,o),
(710,325,cs)
);
},
{
closed = 1;
nodes = (
(608,187,o),
(580,120,o),
(500,120,cs),
(419,120,o),
(392,187,o),
(392,325,cs),
(392,464,o),
(419,531,o),
(500,531,cs),
(580,531,o),
(608,464,o),
(608,325,cs)
);
}
);
width = 1000;
}
);
metricLeft = "=40";
metricRight = "=|";
unicode = 9450;
},
{
glyphname = one.circled;
lastChange = "2025-01-07 12:07:45 +0000";
layers = (
{
layerId = "6AD408C6-91F3-4F0B-A103-73D10F5280D9";
shapes = (
{
locked = 1;
ref = _part.circle;
scale = (0.9882,0.9882);
},
{
closed = 1;
nodes = (
(556,575,ls),
(556,581,o),
(549,587,o),
(540,580,c),
(483,544,o),
(424,514,o),
(367,489,c),
(360,487,o),
(353,484,o),
(353,475,cs),
(353,452,ls),
(353,441,o),
(360,434,o),
(369,438,cs),
(440,463,ls),
(450,466,o),
(454,464,o),
(454,452,cs),
(454,176,ls),
(454,123,o),
(426,116,o),
(393,116,cs),
(374,116,ls),
(366,116,o),
(360,111,o),
(360,103,cs),
(360,82,ls),
(360,73,o),
(366,68,o),
(374,68,cs),
(634,68,ls),
(643,68,o),
(648,73,o),
(648,82,cs),
(648,103,ls),
(648,111,o),
(643,116,o),
(634,116,cs),
(617,116,ls),
(584,116,o),
(556,123,o),
(556,176,cs)
);
}
);
width = 1000;
}
);
metricLeft = "=40";
metricRight = "=|";
unicode = 9312;
},
{
glyphname = two.circled;
lastChange = "2025-01-07 12:07:45 +0000";
layers = (
{
hints = (
{
horizontal = 1;
place = (65.835,21);
target = up;
type = BottomGhost;
}
);
layerId = "6AD408C6-91F3-4F0B-A103-73D10F5280D9";
shapes = (
{
locked = 1;
ref = _part.circle;
scale = (0.9882,0.9882);
},
{
closed = 1;
nodes = (
(399,136,l),
(449,187,o),
(685,268,o),
(685,428,cs),
(685,538,o),
(596,591,o),
(482,591,cs),
(338,591,o),
(286,472,o),
(286,442,cs),
(286,433,o),
(291,427,o),
(300,425,c),
(381,396,ls),
(385,394,o),
(389,393,o),
(395,393,cs),
(403,393,o),
(407,397,o),
(407,403,cs),
(407,409,o),
(406,414,o),
(406,426,cs),
(406,487,o),
(436,530,o),
(487,530,cs),
(535,530,o),
(560,490,o),
(560,429,cs),
(560,277,o),
(348,233,o),
(287,117,c),
(286,114,o),
(285,110,o),
(285,104,cs),
(285,85,ls),
(285,76,o),
(290,71,o),
(299,71,cs),
(617,71,ls),
(625,71,o),
(626,70,o),
(627,69,cs),
(631,65,l),
(634,64,o),
(638,62,o),
(639,62,cs),
(644,62,o),
(648,64,o),
(652,70,c),
(715,203,ls),
(716,205,o),
(717,208,o),
(717,212,cs),
(717,216,o),
(714,219,o),
(709,222,cs),
(687,235,l),
(686,236,o),
(683,237,o),
(680,237,cs),
(675,237,o),
(670,234,o),
(667,230,c),
(665,225,ls),
(629,151,o),
(593,136,o),
(510,136,cs)
);
}
);
width = 1000;
}
);
metricLeft = "=40";
metricRight = "=|";
unicode = 9313;
},
{
glyphname = three.circled;
lastChange = "2025-01-07 12:07:45 +0000";
layers = (
{
layerId = "6AD408C6-91F3-4F0B-A103-73D10F5280D9";
shapes = (
{
locked = 1;
ref = _part.circle;
scale = (0.9882,0.9882);
},
{
closed = 1;
nodes = (
(418,115,o),
(381,157,o),
(374,212,cs),
(372,224,o),
(365,226,o),
(357,218,cs),
(301,165,l),
(298,163,o),
(295,157,o),
(295,153,cs),
(295,124,o),
(369,62,o),
(478,62,cs),
(605,62,o),
(706,115,o),
(706,217,cs),
(706,290,o),
(659,330,o),
(594,342,c),
(650,359,o),
(689,395,o),
(689,455,cs),
(689,542,o),
(613,590,o),
(501,590,cs),
(358,590,o),
(299,471,o),
(299,441,cs),
(299,432,o),
(304,426,o),
(313,424,c),
(394,395,ls),
(398,393,o),
(402,392,o),
(408,392,cs),
(416,392,o),
(420,396,o),
(420,402,cs),
(420,408,o),
(419,413,o),
(419,425,cs),
(419,486,o),
(455,529,o),
(507,529,cs),
(541,529,o),
(574,507,o),
(574,456,cs),
(574,382,o),
(512,364,o),
(421,345,cs),
(415,344,o),
(406,339,o),
(406,331,c),
(412,306,l),
(412,299,o),
(418,294,o),
(427,294,cs),
(440,294,o),
(460,300,o),
(483,300,cs),
(548,300,o),
(590,276,o),
(590,213,cs),
(590,157,o),
(553,115,o),
(481,115,cs)
);
}
);
width = 1000;
}
);
metricLeft = "=40";
metricRight = "=|";
unicode = 9314;
},
{
glyphname = four.circled;
lastChange = "2025-01-07 12:07:45 +0000";
layers = (
{
hints = (
{
horizontal = 1;
place = (74,21);
target = up;
type = BottomGhost;
}
);
layerId = "6AD408C6-91F3-4F0B-A103-73D10F5280D9";
shapes = (
{
locked = 1;
ref = _part.circle;
scale = (0.9882,0.9882);
},
{
closed = 1;
nodes = (
(569,212,l),
(636,212,ls),
(645,212,o),
(650,217,o),
(650,226,cs),
(650,264,ls),
(650,273,o),
(645,278,o),
(636,278,cs),
(569,278,l),
(569,569,ls),
(569,577,o),
(564,582,o),
(557,582,cs),
(480,582,ls),
(471,582,o),
(467,575,o),
(467,567,cs),
(467,278,l),
(351,278,l),
(567,579,l),
(480,582,ls),
(473,582,o),
(468,575,o),
(463,569,cs),
(264,282,ls),
(260,277,o),
(260,273,o),
(260,267,cs),
(260,226,ls),
(260,217,o),
(265,212,o),
(274,212,cs),
(467,212,l),
(467,178,ls),
(467,125,o),
(440,118,o),
(407,118,cs),
(388,118,ls),
(379,118,o),
(374,113,o),
(374,105,cs),
(374,84,ls),
(374,75,o),
(379,70,o),
(388,70,cs),
(648,70,ls),
(657,70,o),
(662,75,o),
(662,84,cs),
(662,105,ls),
(662,113,o),
(657,118,o),
(648,118,cs),
(630,118,ls),
(598,118,o),
(569,125,o),
(569,178,cs)
);
}
);
width = 1000;
}
);
metricLeft = "=40";
metricRight = "=|";
unicode = 9315;
},
{
glyphname = five.circled;
lastChange = "2025-01-07 12:07:45 +0000";
layers = (
{
layerId = "6AD408C6-91F3-4F0B-A103-73D10F5280D9";
shapes = (
{
locked = 1;
ref = _part.circle;
scale = (0.9882,0.9882);
},
{
closed = 1;
nodes = (
(422,97,o),
(392,139,o),
(386,194,c),
(383,209,o),
(376,207,o),
(368,200,cs),
(313,147,l),
(310,145,o),
(307,139,o),
(307,135,cs),
(307,107,o),
(366,44,o),
(484,44,cs),
(607,44,o),
(695,111,o),
(695,206,cs),
(695,359,o),
(526,389,o),
(424,370,c),
(446,498,l),
(600,498,ls),
(606,498,o),
(607,498,o),
(609,496,cs),
(615,490,o),
(619,490,o),
(622,490,cs),
(626,490,o),
(631,492,o),
(633,497,c),
(682,575,ls),
(684,578,o),
(685,579,o),
(685,582,cs),
(685,586,o),
(681,591,o),
(677,594,c),
(657,605,l),
(653,608,o),
(651,608,o),
(648,608,cs),
(644,608,o),
(641,605,o),
(637,601,cs),
(626,588,ls),
(607,564,o),
(589,564,o),
(509,564,cs),
(390,564,ls),
(381,564,o),
(375,559,o),
(374,553,cs),
(338,313,ls),
(336,303,o),
(342,295,o),
(349,298,c),
(453,324,o),
(576,319,o),
(576,202,cs),
(576,137,o),
(543,97,o),
(483,97,cs)
);
}
);
width = 1000;
}
);
metricLeft = "=40";
metricRight = "=|";
unicode = 9316;
},
{
glyphname = six.circled;
lastChange = "2025-01-07 12:07:45 +0000";
layers = (
{
layerId = "6AD408C6-91F3-4F0B-A103-73D10F5280D9";
shapes = (
{
locked = 1;
ref = _part.circle;
scale = (0.9882,0.9882);
},
{
closed = 1;
nodes = (
(412,269,o),
(412,283,o),
(412,295,cs),
(412,455,o),
(450,529,o),
(533,529,cs),
(582,529,o),
(607,501,o),
(614,448,cs),
(614,444,o),
(615,436,o),
(618,433,c),
(620,429,o),
(625,429,o),
(629,433,cs),
(688,488,ls),
(690,490,o),
(692,495,o),
(692,499,cs),
(692,528,o),
(639,590,o),
(542,590,cs),
(388,590,o),
(309,461,o),
(309,291,cs),
(309,170,o),
(374,62,o),
(496,62,cs),
(601,62,o),
(687,127,o),
(687,233,cs),
(687,325,o),
(620,408,o),
(505,408,cs),
(471,408,o),
(420,403,o),
(387,367,c),
(414,197,l),
(412,297,o),
(429,349,o),
(493,349,cs),
(563,349,o),
(586,259,o),
(586,207,cs),
(586,159,o),
(566,120,o),
(513,120,cs),
(445,120,o),
(415,204,o),
(413,255,cs)
);
}
);
width = 1000;
}
);
metricLeft = "=40";
metricRight = "=|";
unicode = 9317;
},
{
glyphname = seven.circled;
lastChange = "2025-01-07 12:07:45 +0000";
layers = (
{
layerId = "6AD408C6-91F3-4F0B-A103-73D10F5280D9";
shapes = (
{
locked = 1;
ref = _part.circle;
scale = (0.9882,0.9882);
},
{
closed = 1;
nodes = (
(592,512,l),
(443,175,ls),
(418,118,o),
(402,113,o),
(369,113,cs),
(351,113,ls),
(342,113,o),
(337,108,o),
(337,100,cs),
(337,79,ls),
(337,70,o),
(342,65,o),
(351,65,cs),
(624,65,ls),
(633,65,o),
(638,70,o),
(638,79,cs),
(638,100,ls),
(638,108,o),
(633,113,o),
(624,113,cs),
(606,113,ls),
(573,113,o),
(525,123,o),
(546,171,cs),
(690,510,l),
(691,515,o),
(693,518,o),
(693,524,cs),
(693,563,ls),
(693,572,o),
(688,577,o),
(679,577,cs),
(406,577,ls),
(399,577,o),
(399,577,o),
(396,579,c),
(393,583,l),
(391,584,o),
(387,586,o),
(384,586,cs),
(379,586,o),
(375,585,o),
(372,578,cs),
(308,444,l),
(309,442,o),
(307,441,o),
(307,436,cs),
(307,432,o),
(309,429,o),
(315,426,cs),
(323,421,l),
(350,413,o),
(333,416,o),
(353,415,c),
(355,417,o),
(356,418,o),
(356,419,c),
(358,423,ls),
(395,497,o),
(430,512,o),
(521,512,cs)
);
}
);
width = 1000;
}
);
metricLeft = "=40";
metricRight = "=|";
unicode = 9318;
},
{
glyphname = eight.circled;
lastChange = "2025-01-07 12:07:45 +0000";
layers = (
{
layerId = "6AD408C6-91F3-4F0B-A103-73D10F5280D9";
shapes = (
{
locked = 1;
ref = _part.circle;
scale = (0.9882,0.9882);
},
{
closed = 1;
nodes = (
(410,589,o),
(340,535,o),
(340,454,cs),
(340,393,o),
(376,351,o),
(417,323,c),
(367,301,o),
(329,264,o),
(329,204,cs),
(329,115,o),
(397,62,o),
(496,62,cs),
(597,62,o),
(672,117,o),
(672,204,cs),
(672,268,o),
(636,311,o),
(582,342,c),
(625,367,o),
(658,412,o),
(658,461,cs),
(658,535,o),
(596,589,o),
(503,589,cs)
);
},
{
closed = 1;
nodes = (
(553,528,o),
(575,494,o),
(575,461,cs),
(575,421,o),
(558,386,o),
(513,373,c),
(483,383,o),
(434,417,o),
(434,462,cs),
(434,502,o),
(462,528,o),
(503,528,cs)
);
},
{
closed = 1;
nodes = (
(517,279,o),
(575,248,o),
(575,194,cs),
(575,148,o),
(546,124,o),
(496,124,cs),
(437,124,o),
(410,163,o),
(410,204,cs),
(410,241,o),
(430,271,o),
(486,288,c)
);
}
);
width = 1000;
}
);
metricLeft = "=40";
metricRight = "=|";
unicode = 9319;
},
{
glyphname = nine.circled;
lastChange = "2025-01-07 12:07:45 +0000";
layers = (
{
layerId = "6AD408C6-91F3-4F0B-A103-73D10F5280D9";
shapes = (
{
locked = 1;
ref = _part.circle;
scale = (0.9882,0.9882);
},
{
closed = 1;
nodes = (
(588,384,o),
(588,368,o),
(588,356,cs),
(588,197,o),
(551,122,o),
(469,122,cs),
(419,122,o),
(395,150,o),
(388,204,cs),
(387,209,o),
(385,218,o),
(384,219,cs),
(381,223,o),
(379,222,o),
(373,218,c),
(315,164,l),
(312,162,o),
(309,156,o),
(309,152,cs),
(309,123,o),
(363,62,o),
(459,62,cs),
(614,62,o),
(692,190,o),
(692,360,cs),
(692,482,o),
(627,590,o),
(505,590,cs),
(400,590,o),
(314,524,o),
(314,418,cs),
(314,327,o),
(382,243,o),
(497,243,cs),
(531,243,o),
(582,249,o),
(614,285,c),
(585,464,l),
(590,354,o),
(573,303,o),
(508,303,cs),
(438,303,o),
(415,392,o),
(415,444,cs),
(415,492,o),
(435,531,o),
(489,531,cs),
(556,531,o),
(586,447,o),
(588,396,cs)
);
}
);
width = 1000;
}
);
metricLeft = "=40";
metricRight = "=|";
unicode = 9320;
},
{
glyphname = zero.lf;
kernLeft = zero.lf;
kernRight = zero.lf;
lastChange = "2025-01-07 12:07:45 +0000";
layers = (
{
layerId = "6AD408C6-91F3-4F0B-A103-73D10F5280D9";
shapes = (
{
closed = 1;
nodes = (
(566,559,o),
(458,671,o),
(297,671,cs),
(136,671,o),
(26,559,o),
(26,329,cs),
(27,100,o),
(136,-11,o),
(297,-11,cs),
(458,-11,o),
(568,100,o),
(567,329,cs)
);
},
{
closed = 1;
nodes = (
(444,147,o),
(406,55,o),
(297,55,cs),
(187,55,o),
(150,147,o),
(150,329,cs),
(150,512,o),
(187,604,o),
(297,604,cs),
(406,604,o),
(444,512,o),
(444,329,cs)
);
}
);
width = 593;
}
);
},
{
glyphname = one.lf;
lastChange = "2025-01-07 12:07:45 +0000";
layers = (
{
layerId = "6AD408C6-91F3-4F0B-A103-73D10F5280D9";
shapes = (
{
closed = 1;
nodes = (
(281,658,ls),
(281,664,o),
(275,666,o),
(268,661,cs),
(194,614,o),
(115,574,o),
(40,541,cs),
(31,538,o),
(26,536,o),
(26,528,cs),
(26,497,ls),
(26,488,o),
(31,481,o),
(40,484,cs),
(133,517,ls),
(150,523,o),
(158,516,o),
(158,497,cs),
(158,136,ls),
(158,63,o),
(118,53,o),
(73,53,cs),
(49,53,ls),
(40,53,o),
(36,48,o),
(36,40,cs),
(36,13,ls),
(36,4,o),
(40,0,o),
(49,0,cs),
(389,0,ls),
(398,0,o),
(402,4,o),
(402,13,cs),
(402,40,ls),
(402,48,o),
(398,53,o),
(389,53,cs),
(366,53,ls),
(322,53,o),
(281,63,o),
(281,136,cs)
);
}
);
width = 429;
}
);
},
{
glyphname = two.lf;
lastChange = "2025-01-07 12:07:45 +0000";
layers = (
{
hints = (
{
horizontal = 1;
place = (-12,21);
target = up;
type = BottomGhost;
}
);
layerId = "6AD408C6-91F3-4F0B-A103-73D10F5280D9";
shapes = (
{
closed = 1;
nodes = (
(155,75,l),
(202,143,o),
(535,248,o),
(535,462,cs),
(535,602,o),
(421,671,o),
(275,671,cs),
(91,671,o),
(23,519,o),
(23,480,cs),
(23,472,o),
(28,466,o),
(38,463,cs),
(145,425,ls),
(150,423,o),
(155,422,o),
(161,422,cs),
(168,422,o),
(172,424,o),
(172,430,cs),
(172,437,o),
(170,444,o),
(170,459,cs),
(170,542,o),
(211,601,o),
(282,601,cs),
(348,601,o),
(382,546,o),
(382,463,cs),
(382,260,o),
(104,202,o),
(25,52,cs),
(23,48,o),
(22,45,o),
(22,38,cs),
(22,13,ls),
(22,4,o),
(26,0,o),
(35,0,cs),
(452,0,ls),
(463,0,o),
(466,-1,o),
(469,-4,cs),
(473,-9,ls),
(476,-11,o),
(479,-12,o),
(481,-12,cs),
(486,-12,o),
(489,-10,o),
(492,-4,cs),
(575,170,ls),
(576,173,o),
(577,176,o),
(577,179,cs),
(577,183,o),
(574,186,o),
(569,188,cs),
(541,205,ls),
(539,207,o),
(537,207,o),
(534,207,cs),
(529,207,o),
(525,204,o),
(523,200,cs),
(520,194,ls),
(471,96,o),
(422,75,o),
(311,75,cs)
);
}
);
width = 595;
},
{
associatedMasterId = "6AD408C6-91F3-4F0B-A103-73D10F5280D9";
hints = (
{
horizontal = 1;
place = (0,74);
type = Stem;
},
{
horizontal = 1;
place = (429,51);
type = Stem;
},
{
place = (32,108);
type = Stem;
},
{
place = (272,127);
type = Stem;
},
{
horizontal = 1;
place = (-12,21);
target = up;
type = BottomGhost;
}
);
layerId = "CBBC072F-006C-41D1-9765-64BE22D4647E";
name = "27 mars 23 à 12:20";
shapes = (
{
closed = 1;
nodes = (
(488,138,ls),
(486,140,o),
(483,141,o),
(481,141,cs),
(477,141,o),
(473,138,o),
(471,133,cs),
(468,128,ls),
(436,75,o),
(331,75,o),
(270,75,cs),
(128,75,l),
(199,196,o),
(473,283,o),
(473,471,cs),
(473,611,o),
(390,671,o),
(235,671,cs),
(80,671,o),
(18,601,o),
(18,512,cs),
(18,502,o),
(20,491,o),
(25,480,cs),
(28,471,o),
(33,466,o),
(47,464,cs),
(139,443,ls),
(144,442,o),
(147,445,o),
(147,451,cs),
(147,469,o),
(126,484,o),
(126,524,cs),
(126,578,o),
(157,620,o),
(231,620,cs),
(304,620,o),
(346,576,o),
(346,472,cs),
(346,285,o),
(103,202,o),
(24,52,cs),
(22,48,o),
(21,45,o),
(21,38,cs),
(21,13,ls),
(21,4,o),
(26,0,o),
(34,0,cs),
(416,0,ls),
(422,0,o),
(428,0,o),
(432,-4,cs),
(439,-11,o),
(442,-11,o),
(444,-11,cs),
(449,-11,o),
(452,-9,o),
(455,-4,cs),
(521,104,ls),
(524,108,o),
(524,110,o),
(524,113,cs),
(524,117,o),
(521,120,o),
(516,122,cs)
);
}
);
width = 551;
},
{
associatedMasterId = "6AD408C6-91F3-4F0B-A103-73D10F5280D9";
hints = (
{
horizontal = 1;
place = (0,74);
type = Stem;
},
{
horizontal = 1;
place = (429,51);
type = Stem;
},
{
place = (32,108);
type = Stem;
},
{
place = (272,127);
type = Stem;
},
{
horizontal = 1;
place = (-12,21);
target = up;
type = BottomGhost;
}
);
layerId = "BF9BA135-552A-4A7A-B257-8ACA8EE788CD";
name = "27 mars 23 à 12:22";
shapes = (
{
closed = 1;
nodes = (
(355,601,o),
(390,549,o),
(390,463,cs),
(390,276,o),
(103,202,o),
(24,52,cs),
(22,48,o),
(21,45,o),
(21,38,cs),
(21,13,ls),
(21,4,o),
(26,0,o),
(34,0,cs),
(469,0,ls),
(475,0,o),
(480,0,o),
(485,-4,cs),
(492,-11,o),
(495,-11,o),
(497,-11,cs),
(502,-11,o),
(505,-9,o),
(508,-4,cs),
(574,104,ls),
(576,108,o),
(577,110,o),
(577,113,cs),
(577,117,o),
(574,120,o),
(568,122,cs),
(541,138,ls),
(539,140,o),
(536,141,o),
(534,141,cs),
(530,141,o),
(526,138,o),
(524,133,cs),
(521,128,ls),
(489,75,o),
(384,75,o),
(323,75,cs),
(128,75,l),
(199,196,o),
(543,275,o),
(543,462,cs),
(543,602,o),
(429,671,o),
(274,671,cs),
(72,671,o),
(13,519,o),
(13,480,cs),
(13,472,o),
(18,466,o),
(28,463,cs),
(136,425,ls),
(141,423,o),
(145,422,o),
(151,422,cs),
(158,422,o),
(162,424,o),
(162,430,cs),
(162,437,o),
(160,447,o),
(160,459,cs),
(160,522,o),
(189,601,o),
(281,601,cs)
);
}
);
width = 551;
}
);
},
{
glyphname = three.lf;
lastChange = "2025-01-07 12:07:45 +0000";
layers = (
{
layerId = "6AD408C6-91F3-4F0B-A103-73D10F5280D9";
shapes = (
{
closed = 1;
nodes = (
(180,48,o),
(128,107,o),
(119,179,cs),
(117,194,o),
(112,191,o),
(106,185,cs),
(31,115,ls),
(28,113,o),
(26,108,o),
(26,104,cs),
(26,69,o),
(121,-11,o),
(261,-11,cs),
(426,-11,o),
(554,58,o),
(554,187,cs),
(554,290,o),
(480,342,o),
(385,349,c),
(469,367,o),
(532,414,o),
(532,499,cs),
(532,609,o),
(435,671,o),
(291,671,cs),
(107,671,o),
(31,519,o),
(31,480,cs),
(31,472,o),
(36,466,o),
(46,463,cs),
(153,425,ls),
(158,423,o),
(163,422,o),
(169,422,cs),
(176,422,o),
(180,424,o),
(180,430,cs),
(180,437,o),
(178,444,o),
(178,459,cs),
(178,542,o),
(228,601,o),
(298,601,cs),
(346,601,o),
(391,571,o),
(391,500,cs),
(391,399,o),
(306,374,o),
(187,349,cs),
(179,348,o),
(172,344,o),
(172,337,cs),
(179,304,ls),
(180,297,o),
(185,293,o),
(194,293,cs),
(209,293,o),
(236,301,o),
(267,301,cs),
(354,301,o),
(412,269,o),
(412,182,cs),
(412,106,o),
(362,48,o),
(265,48,cs)
);
}
);
width = 580;
}
);
},
{
glyphname = four.lf;
lastChange = "2025-01-07 12:07:45 +0000";
layers = (
{
hints = (
{
horizontal = 1;
place = (0,21);
target = up;
type = BottomGhost;
}
);
layerId = "6AD408C6-91F3-4F0B-A103-73D10F5280D9";
shapes = (
{
closed = 1;
nodes = (
(413,186,l),
(506,186,ls),
(515,186,o),
(519,190,o),
(519,199,cs),
(519,249,ls),
(519,258,o),
(515,262,o),
(506,262,cs),
(413,262,l),
(413,648,ls),
(413,656,o),
(409,660,o),
(402,660,cs),
(301,660,ls),
(293,660,o),
(290,654,o),
(290,646,cs),
(290,262,l),
(122,262,l),
(404,656,l),
(301,660,l),
(293,660,o),
(289,654,o),
(283,646,cs),
(22,270,ls),
(18,265,o),
(18,260,o),
(18,253,cs),
(18,199,ls),
(18,190,o),
(22,186,o),
(31,186,cs),
(290,186,l),
(290,136,ls),
(290,63,o),
(250,53,o),
(205,53,cs),
(181,53,ls),
(172,53,o),
(168,48,o),
(168,40,cs),
(168,13,ls),
(168,4,o),
(172,0,o),
(181,0,cs),
(521,0,ls),
(530,0,o),
(534,4,o),
(534,13,cs),
(534,40,ls),
(534,48,o),
(530,53,o),
(521,53,cs),
(498,53,ls),
(454,53,o),
(413,63,o),
(413,136,cs)
);
}
);
width = 552;
}
);
},
{
glyphname = five.lf;
lastChange = "2025-01-07 12:07:45 +0000";
layers = (
{
layerId = "6AD408C6-91F3-4F0B-A103-73D10F5280D9";
shapes = (
{
closed = 1;
nodes = (
(155,48,o),
(114,107,o),
(106,179,cs),
(104,194,o),
(99,191,o),
(92,185,cs),
(18,115,ls),
(15,113,o),
(13,108,o),
(13,104,cs),
(13,69,o),
(88,-11,o),
(239,-11,cs),
(398,-11,o),
(510,75,o),
(510,197,cs),
(510,396,o),
(285,432,o),
(155,404,c),
(186,584,l),
(391,584,ls),
(398,584,o),
(402,585,o),
(407,580,cs),
(414,573,o),
(417,573,o),
(420,573,cs),
(423,573,o),
(428,576,o),
(430,580,cs),
(495,682,ls),
(496,685,o),
(497,686,o),
(497,689,cs),
(497,693,o),
(495,697,o),
(490,700,cs),
(463,715,ls),
(460,717,o),
(458,718,o),
(455,718,cs),
(451,718,o),
(449,715,o),
(444,710,cs),
(429,692,ls),
(405,661,o),
(377,660,o),
(272,660,cs),
(116,660,ls),
(107,660,o),
(102,656,o),
(101,649,cs),
(54,335,ls),
(53,327,o),
(55,320,o),
(62,322,cs),
(198,356,o),
(365,350,o),
(365,191,cs),
(365,103,o),
(320,48,o),
(238,48,cs)
);
}
);
width = 536;
},
{
associatedMasterId = "6AD408C6-91F3-4F0B-A103-73D10F5280D9";
hints = (
{
horizontal = 1;
place = (13,60);
type = Stem;
},
{
horizontal = 1;
place = (391,58);
type = Stem;
},
{
horizontal = 1;
place = (585,74);
type = Stem;
},
{
place = (284,144);
type = Stem;
}
);
layerId = "161CF57C-9256-4FB7-98B9-70AD69BC6559";
name = "27 mars 23 à 13:48";
shapes = (
{
closed = 1;
nodes = (
(174,584,l),
(362,584,ls),
(369,584,o),
(373,585,o),
(378,580,cs),
(385,573,o),
(388,573,o),
(391,573,cs),
(394,573,o),
(399,576,o),
(401,580,cs),
(457,673,ls),
(458,676,o),
(459,678,o),
(459,680,cs),
(459,685,o),
(457,688,o),
(452,691,cs),
(425,707,ls),
(422,708,o),
(420,709,o),
(417,709,cs),
(414,709,o),
(409,707,o),
(407,701,cs),
(404,697,ls),
(384,663,o),
(277,660,o),
(234,660,cs),
(105,660,ls),
(96,660,o),
(92,656,o),
(90,649,cs),
(42,395,ls),
(40,387,o),
(44,382,o),
(51,382,cs),
(59,382,o),
(102,392,o),
(131,392,cs),
(202,392,o),
(283,365,o),
(283,251,cs),
(283,123,o),
(203,73,o),
(103,73,cs),
(78,73,o),
(53,76,o),
(26,82,cs),
(18,84,o),
(13,78,o),
(13,71,cs),
(13,61,o),
(15,51,o),
(18,31,cs),
(18,23,o),
(24,19,o),
(32,18,cs),
(59,15,o),
(86,13,o),
(114,13,cs),
(283,13,o),
(428,85,o),
(428,248,cs),
(428,380,o),
(323,450,o),
(195,450,cs),
(179,450,o),
(162,449,o),
(144,446,c)
);
}
);
width = 486;
}
);
},
{
glyphname = six.lf;
lastChange = "2025-01-07 12:07:45 +0000";
layers = (
{
layerId = "6AD408C6-91F3-4F0B-A103-73D10F5280D9";
shapes = (
{
closed = 1;
nodes = (
(151,255,o),
(151,274,o),
(151,290,cs),
(151,501,o),
(202,601,o),
(314,601,cs),
(381,601,o),
(416,561,o),
(425,490,cs),
(426,483,o),
(427,474,o),
(429,473,cs),
(430,471,o),
(433,472,o),
(436,474,cs),
(513,546,ls),
(516,548,o),
(517,553,o),
(517,557,cs),
(517,592,o),
(450,671,o),
(326,671,cs),
(128,671,o),
(26,504,o),
(26,284,cs),
(26,128,o),
(110,-11,o),
(266,-11,cs),
(401,-11,o),
(510,72,o),
(510,208,cs),
(510,326,o),
(425,432,o),
(277,432,cs),
(234,432,o),
(170,425,o),
(128,382,c),
(152,237,l),
(150,295,o),
(174,365,o),
(262,365,cs),
(358,365,o),
(389,244,o),
(389,174,cs),
(389,110,o),
(362,55,o),
(288,55,cs),
(195,55,o),
(155,170,o),
(152,237,cs)
);
}
);
width = 544;
}
);
},
{
glyphname = seven.lf;
lastChange = "2025-01-07 12:07:45 +0000";
layers = (
{
layerId = "6AD408C6-91F3-4F0B-A103-73D10F5280D9";
shapes = (
{
closed = 1;
nodes = (
(385,585,l),
(187,136,ls),
(153,59,o),
(130,53,o),
(85,53,cs),
(62,53,ls),
(53,53,o),
(48,48,o),
(48,40,cs),
(48,13,ls),
(48,4,o),
(53,0,o),
(62,0,cs),
(419,0,ls),
(428,0,o),
(432,4,o),
(432,13,cs),
(432,40,ls),
(432,48,o),
(428,53,o),
(419,53,cs),
(396,53,ls),
(352,53,o),
(281,67,o),
(311,136,cs),
(500,579,ls),
(502,585,o),
(504,589,o),
(504,596,cs),
(504,647,ls),
(504,656,o),
(500,660,o),
(491,660,cs),
(134,660,ls),
(123,660,o),
(121,661,o),
(117,664,cs),
(113,669,ls),
(110,671,o),
(107,672,o),
(105,672,cs),
(100,672,o),
(97,670,o),
(94,664,cs),
(11,490,ls),
(10,487,o),
(9,484,o),
(9,481,cs),
(9,477,o),
(12,474,o),
(17,472,cs),
(45,455,ls),
(48,453,o),
(49,453,o),
(52,453,cs),
(57,453,o),
(61,456,o),
(63,460,cs),
(66,466,ls),
(115,564,o),
(164,585,o),
(284,585,cs)
);
}
);
width = 513;
},
{
associatedMasterId = "6AD408C6-91F3-4F0B-A103-73D10F5280D9";
hints = (
{
horizontal = 1;
place = (586,74);
type = Stem;
},
{
place = (65,162);
type = Stem;
}
);
layerId = "EE136EDB-8EAA-49B3-995E-D953F48DABED";
name = "27 mars 23 à 13:59";
shapes = (
{
closed = 1;
nodes = (
(124,660,ls),
(117,660,o),
(113,661,o),
(107,665,cs),
(100,672,o),
(98,672,o),
(95,672,cs),
(92,672,o),
(87,670,o),
(84,665,cs),
(20,570,ls),
(18,568,o),
(18,565,o),
(18,563,cs),
(18,559,o),
(20,555,o),
(25,553,cs),
(52,537,ls),
(55,535,o),
(57,534,o),
(60,534,cs),
(65,534,o),
(68,536,o),
(73,546,cs),
(93,581,o),
(200,584,o),
(243,584,cs),
(419,584,l),
(356,510,o),
(65,173,o),
(65,50,cs),
(65,25,o),
(70,0,o),
(90,0,cs),
(234,0,ls),
(240,0,o),
(243,3,o),
(243,9,cs),
(243,11,o),
(242,13,o),
(240,18,cs),
(231,39,o),
(227,48,o),
(227,72,cs),
(227,230,o),
(409,454,o),
(490,579,cs),
(494,584,o),
(495,589,o),
(495,596,cs),
(495,648,ls),
(495,656,o),
(490,661,o),
(481,661,cs)
);
},
{
closed = 0;
nodes = (
(231,136,ls),
(231,63,o),
(272,53,o),
(316,53,cs),
(339,53,ls),
(348,53,o),
(352,48,o),
(352,40,cs),
(352,13,ls),
(352,4,o),
(348,0,o),
(339,0,cs),
(-1,0,ls),
(-10,0,o),
(-14,4,o),
(-14,13,cs),
(-14,40,ls),
(-14,48,o),
(-10,53,o),
(-1,53,cs),
(23,53,ls),
(68,53,o),
(107,63,o),
(107,136,cs)
);
}
);
width = 503;
},
{
associatedMasterId = "6AD408C6-91F3-4F0B-A103-73D10F5280D9";
hints = (
{
horizontal = 1;
origin = (1,0);
place = (585,74);
type = Stem;
},
{
place = (65,162);
type = Stem;
}
);
layerId = "0DC29132-FD7E-4A09-A761-AE195344FBD0";
name = "27 mars 23 à 14:02";
shapes = (
{
closed = 1;
nodes = (
(104,299,ls),
(104,290,o),
(108,286,o),
(117,286,cs),
(481,286,ls),
(490,286,o),
(495,290,o),
(495,299,cs),
(495,349,ls),
(495,358,o),
(490,363,o),
(481,363,cs),
(117,363,ls),
(108,363,o),
(104,358,o),
(104,349,cs)
);
},
{
closed = 1;
nodes = (
(375,585,l),
(178,136,ls),
(143,59,o),
(121,53,o),
(76,53,cs),
(52,53,ls),
(43,53,o),
(39,48,o),
(39,40,cs),
(39,13,ls),
(39,4,o),
(43,0,o),
(52,0,cs),
(409,0,ls),
(418,0,o),
(422,4,o),
(422,13,cs),
(422,40,ls),
(422,48,o),
(418,53,o),
(409,53,cs),
(386,53,ls),
(342,53,o),
(271,67,o),
(301,136,cs),
(490,579,ls),
(493,585,o),
(495,589,o),
(495,596,cs),
(495,648,ls),
(495,656,o),
(490,661,o),
(481,661,cs),
(124,660,ls),
(114,660,o),
(111,661,o),
(107,664,cs),
(103,669,ls),
(100,671,o),
(98,672,o),
(95,672,cs),
(91,672,o),
(87,670,o),
(84,664,cs),
(2,490,ls),
(0,487,o),
(-1,484,o),
(-1,481,cs),
(-1,477,o),
(3,474,o),
(7,472,cs),
(35,455,ls),
(38,453,o),
(40,453,o),
(42,453,cs),
(48,453,o),
(51,456,o),
(54,460,cs),
(56,466,ls),
(106,564,o),
(154,585,o),
(275,585,cs)
);
}
);
width = 503;
}
);
},
{
glyphname = eight.lf;
lastChange = "2025-01-07 12:07:45 +0000";
layers = (
{
layerId = "6AD408C6-91F3-4F0B-A103-73D10F5280D9";
shapes = (
{
closed = 1;
nodes = (
(130,671,o),
(40,602,o),
(40,499,cs),
(40,416,o),
(92,362,o),
(146,326,c),
(78,298,o),
(26,251,o),
(26,171,cs),
(26,58,o),
(112,-9,o),
(240,-9,cs),
(369,-9,o),
(465,60,o),
(465,171,cs),
(465,257,o),
(416,312,o),
(342,352,c),
(399,382,o),
(446,442,o),
(446,508,cs),
(446,602,o),
(368,671,o),
(249,671,cs)
);
},
{
closed = 1;
nodes = (
(318,601,o),
(348,554,o),
(348,508,cs),
(348,454,o),
(323,405,o),
(262,387,c),
(221,401,o),
(153,447,o),
(153,509,cs),
(153,564,o),
(193,601,o),
(249,601,cs)
);
},
{
closed = 1;
nodes = (
(268,275,o),
(348,233,o),
(348,159,cs),
(348,95,o),
(308,61,o),
(240,61,cs),
(158,61,o),
(122,115,o),
(122,171,cs),
(122,222,o),
(150,264,o),
(226,287,c)
);
}
);
width = 491;
}
);
},
{
glyphname = nine.lf;
lastChange = "2025-01-07 12:07:45 +0000";
layers = (
{
layerId = "6AD408C6-91F3-4F0B-A103-73D10F5280D9";
shapes = (
{
closed = 1;
nodes = (
(392,404,o),
(392,385,o),
(392,369,cs),
(392,158,o),
(342,58,o),
(230,58,cs),
(163,58,o),
(128,98,o),
(119,169,cs),
(118,176,o),
(117,185,o),
(115,187,cs),
(114,188,o),
(111,187,o),
(108,185,cs),
(31,114,ls),
(28,111,o),
(26,106,o),
(26,102,cs),
(26,67,o),
(94,-11,o),
(217,-11,cs),
(416,-11,o),
(517,155,o),
(517,375,cs),
(517,531,o),
(434,671,o),
(278,671,cs),
(143,671,o),
(33,587,o),
(33,451,cs),
(33,334,o),
(119,227,o),
(267,227,cs),
(310,227,o),
(374,234,o),
(415,277,c),
(392,422,l),
(394,364,o),
(370,294,o),
(282,294,cs),
(186,294,o),
(155,415,o),
(155,485,cs),
(155,549,o),
(182,604,o),
(256,604,cs),
(348,604,o),
(389,489,o),
(392,422,cs)
);
}
);
width = 544;
}
);
},
{
glyphname = zero.lf.zero;
kernLeft = zero.lf;
kernRight = zero.lf;
lastChange = "2025-01-07 12:07:45 +0000";
layers = (
{
layerId = "6AD408C6-91F3-4F0B-A103-73D10F5280D9";
shapes = (
{
ref = zero.lf;
},
{
closed = 1;
nodes = (
(160,58,l),
(219,34,l),
(424,603,l),
(364,625,l)
);
}
);
width = 593;
}
);
metricLeft = zero.lf;
metricRight = zero.lf;
},
{
glyphname = zero.tf.zero;
kernLeft = zero.tf;
kernRight = zero.tf;
lastChange = "2025-01-07 12:07:45 +0000";
layers = (
{
layerId = "6AD408C6-91F3-4F0B-A103-73D10F5280D9";
shapes = (
{
ref = zero.tf;
},
{
closed = 1;
nodes = (
(160,58,l),
(219,34,l),
(424,603,l),
(364,625,l)
);
}
);
width = 572;
}
);
metricLeft = zero.tf;
metricRight = zero.tf;
},
{
glyphname = zero.tosf.zero;
kernLeft = zero.tosf;
kernRight = zero.tosf;
lastChange = "2025-01-07 12:07:45 +0000";
layers = (
{
layerId = "6AD408C6-91F3-4F0B-A103-73D10F5280D9";
shapes = (
{
ref = zero.tosf;
},
{
closed = 1;
nodes = (
(167,54,l),
(226,30,l),
(369,428,l),
(309,450,l)
);
}
);
width = 546;
}
);
metricLeft = zero.tosf;
metricRight = zero.tosf;
},
{
glyphname = three.dnom;
kernLeft = three.dnom;
kernRight = three.dnom;
lastChange = "2025-01-07 12:07:45 +0000";
layers = (
{
layerId = "6AD408C6-91F3-4F0B-A103-73D10F5280D9";
shapes = (
{
closed = 1;
nodes = (
(109,226,ls),
(114,225,o),
(115,228,o),
(115,231,cs),
(115,238,o),
(99,259,o),
(99,282,cs),
(99,313,o),
(128,324,o),
(152,324,cs),
(181,324,o),
(199,305,o),
(199,270,cs),
(199,226,o),
(157,210,o),
(81,189,cs),
(77,187,o),
(73,186,o),
(74,179,cs),
(78,150,ls),
(79,146,o),
(82,143,o),
(88,143,cs),
(97,143,o),
(121,156,o),
(148,156,cs),
(185,156,o),
(208,136,o),
(208,105,cs),
(208,57,o),
(164,39,o),
(118,39,cs),
(81,39,o),
(49,50,o),
(28,58,cs),
(22,60,o),
(17,55,o),
(18,50,cs),
(22,15,ls),
(23,10,o),
(26,7,o),
(33,5,cs),
(55,-4,o),
(87,-11,o),
(124,-11,cs),
(224,-11,o),
(311,23,o),
(311,103,cs),
(311,169,o),
(255,192,o),
(206,194,c),
(250,204,o),
(295,219,o),
(295,269,cs),
(295,329,o),
(246,359,o),
(156,359,cs),
(73,359,o),
(18,318,o),
(18,274,cs),
(18,266,o),
(18,259,o),
(22,252,cs),
(26,246,o),
(29,242,o),
(39,240,cs)
);
}
);
width = 337;
}
);
},
{
glyphname = four.dnom;
kernLeft = four.dnom;
kernRight = four.dnom;
lastChange = "2025-01-07 12:07:45 +0000";
layers = (
{
hints = (
{
horizontal = 1;
place = (-141,21);
target = up;
type = BottomGhost;
}
);
layerId = "6AD408C6-91F3-4F0B-A103-73D10F5280D9";
shapes = (
{
closed = 1;
nodes = (
(367,40,ls),
(367,48,o),
(363,51,o),
(356,51,cs),
(282,51,l),
(282,132,ls),
(282,138,o),
(279,143,o),
(274,142,cs),
(212,129,ls),
(206,128,o),
(203,125,o),
(203,119,cs),
(203,51,l),
(84,51,l),
(130,105,o),
(253,226,o),
(253,305,cs),
(253,312,o),
(253,320,o),
(250,326,cs),
(247,334,o),
(244,337,o),
(233,340,cs),
(137,360,ls),
(134,361,o),
(130,359,o),
(130,355,cs),
(130,352,o),
(131,349,o),
(133,346,cs),
(143,323,o),
(148,304,o),
(148,285,cs),
(148,204,o),
(68,144,o),
(10,56,cs),
(7,53,o),
(7,48,o),
(7,44,cs),
(7,3,ls),
(7,-4,o),
(10,-7,o),
(17,-7,cs),
(203,-7,l),
(203,-103,ls),
(203,-110,o),
(207,-114,o),
(213,-114,cs),
(272,-114,ls),
(279,-114,o),
(282,-110,o),
(282,-103,cs),
(282,-7,l),
(356,-7,ls),
(363,-7,o),
(367,-4,o),
(367,3,cs)
);
}
);
width = 384;
}
);
note = four.dnom;
},
{
glyphname = five.dnom;
kernLeft = five.dnom;
kernRight = five.dnom;
lastChange = "2025-01-07 12:07:45 +0000";
layers = (
{
layerId = "6AD408C6-91F3-4F0B-A103-73D10F5280D9";
shapes = (
{
closed = 1;
nodes = (
(116,-68,o),
(85,-23,o),
(79,31,cs),
(77,42,o),
(74,40,o),
(69,35,cs),
(12,-17,ls),
(10,-18,o),
(9,-23,o),
(9,-26,cs),
(9,-53,o),
(65,-114,o),
(180,-114,cs),
(291,-114,o),
(376,-56,o),
(376,36,cs),
(376,169,o),
(215,196,o),
(116,175,c),
(134,266,l),
(295,266,ls),
(300,266,o),
(304,267,o),
(307,263,cs),
(313,257,o),
(315,257,o),
(317,257,cs),
(319,257,o),
(323,260,o),
(325,263,cs),
(373,340,ls),
(375,342,o),
(376,343,o),
(376,345,cs),
(376,348,o),
(374,352,o),
(370,354,cs),
(349,365,ls),
(348,366,o),
(346,367,o),
(343,367,cs),
(341,367,o),
(339,365,o),
(335,362,cs),
(324,348,ls),
(304,324,o),
(284,323,o),
(205,323,cs),
(87,323,ls),
(80,323,o),
(77,320,o),
(76,315,cs),
(40,123,ls),
(39,117,o),
(40,112,o),
(46,114,cs),
(149,138,o),
(267,135,o),
(267,32,cs),
(267,-26,o),
(232,-68,o),
(179,-68,cs)
);
}
);
width = 411;
}
);
},
{
glyphname = six.dnom;
kernLeft = six.dnom;
kernRight = six.dnom;
lastChange = "2025-01-07 12:07:45 +0000";
layers = (
{
layerId = "6AD408C6-91F3-4F0B-A103-73D10F5280D9";
shapes = (
{
closed = 1;
nodes = (
(112,175,o),
(112,189,o),
(112,202,cs),
(112,326,o),
(150,407,o),
(235,407,cs),
(286,407,o),
(312,368,o),
(319,313,cs),
(320,308,o),
(320,302,o),
(322,300,cs),
(323,299,o),
(325,300,o),
(327,302,cs),
(386,356,ls),
(388,357,o),
(389,361,o),
(389,364,cs),
(389,391,o),
(338,451,o),
(245,451,cs),
(94,451,o),
(18,346,o),
(18,197,cs),
(18,79,o),
(90,-10,o),
(208,-10,cs),
(310,-10,o),
(384,45,o),
(384,139,cs),
(384,229,o),
(319,291,o),
(208,291,cs),
(175,291,o),
(126,286,o),
(95,245,c),
(113,143,l),
(111,187,o),
(129,241,o),
(196,241,cs),
(268,241,o),
(292,175,o),
(292,131,cs),
(292,83,o),
(271,41,o),
(216,41,cs),
(145,41,o),
(114,110,o),
(113,161,cs)
);
}
);
width = 407;
}
);
},
{
glyphname = seven.dnom;
kernLeft = seven.dnom;
kernRight = seven.dnom;
lastChange = "2025-01-07 12:07:45 +0000";
layers = (
{
layerId = "6AD408C6-91F3-4F0B-A103-73D10F5280D9";
shapes = (
{
closed = 1;
nodes = (
(87,318,ls),
(82,318,o),
(78,318,o),
(75,321,cs),
(70,326,o),
(68,326,o),
(65,326,cs),
(62,326,o),
(59,325,o),
(57,321,cs),
(9,249,ls),
(7,247,o),
(7,246,o),
(7,244,cs),
(7,241,o),
(9,238,o),
(12,236,cs),
(33,224,ls),
(34,224,o),
(37,222,o),
(39,222,cs),
(42,222,o),
(45,224,o),
(48,231,cs),
(64,257,o),
(144,260,o),
(178,260,cs),
(311,260,l),
(262,204,o),
(42,27,o),
(42,-66,cs),
(42,-79,o),
(45,-90,o),
(62,-93,cs),
(171,-114,ls),
(175,-114,o),
(178,-112,o),
(178,-107,cs),
(178,-105,o),
(177,-104,o),
(175,-100,cs),
(168,-84,o),
(165,-68,o),
(165,-49,cs),
(165,70,o),
(304,161,o),
(364,256,cs),
(367,260,o),
(368,263,o),
(368,268,cs),
(368,308,ls),
(368,315,o),
(364,318,o),
(358,318,cs)
);
}
);
width = 381;
}
);
},
{
glyphname = eight.dnom;
kernLeft = eight.dnom;
kernRight = eight.dnom;
lastChange = "2025-01-07 12:07:45 +0000";
layers = (
{
layerId = "6AD408C6-91F3-4F0B-A103-73D10F5280D9";
shapes = (
{
closed = 1;
nodes = (
(125,221,l),
(66,202,o),
(20,170,o),
(20,111,cs),
(20,34,o),
(84,-11,o),
(182,-11,cs),
(279,-11,o),
(352,36,o),
(352,111,cs),
(352,188,o),
(299,228,o),
(224,253,cs),
(144,278,o),
(116,305,o),
(116,340,cs),
(116,384,o),
(146,409,o),
(188,409,cs),
(240,409,o),
(264,371,o),
(264,339,cs),
(264,298,o),
(240,260,o),
(182,253,c)
);
},
{
closed = 1;
nodes = (
(247,228,l),
(295,246,o),
(338,290,o),
(338,339,cs),
(338,402,o),
(279,451,o),
(188,451,cs),
(99,451,o),
(31,402,o),
(31,334,cs),
(31,260,o),
(89,217,o),
(141,197,cs),
(201,173,o),
(264,160,o),
(264,103,cs),
(264,57,o),
(240,31,o),
(182,31,cs),
(120,31,o),
(92,71,o),
(92,111,cs),
(92,149,o),
(120,180,o),
(192,194,c)
);
}
);
width = 372;
}
);
},
{
glyphname = nine.dnom;
kernLeft = nine.dnom;
kernRight = nine.dnom;
lastChange = "2025-01-07 12:07:45 +0000";
layers = (
{
layerId = "6AD408C6-91F3-4F0B-A103-73D10F5280D9";
shapes = (
{
closed = 1;
nodes = (
(295,267,o),
(295,253,o),
(295,240,cs),
(295,116,o),
(257,35,o),
(172,35,cs),
(121,35,o),
(94,74,o),
(87,128,cs),
(86,134,o),
(86,140,o),
(84,142,cs),
(84,143,o),
(82,142,o),
(79,140,cs),
(20,86,ls),
(18,84,o),
(18,81,o),
(18,77,cs),
(18,51,o),
(69,-10,o),
(162,-10,cs),
(312,-10,o),
(389,96,o),
(389,245,cs),
(389,363,o),
(317,451,o),
(199,451,cs),
(97,451,o),
(23,397,o),
(23,303,cs),
(23,213,o),
(87,150,o),
(199,150,cs),
(231,150,o),
(281,156,o),
(312,197,c),
(294,298,l),
(296,254,o),
(277,201,o),
(210,201,cs),
(138,201,o),
(114,267,o),
(114,311,cs),
(114,359,o),
(136,400,o),
(191,400,cs),
(261,400,o),
(292,332,o),
(294,281,cs)
);
}
);
width = 407;
}
);
},
{
glyphname = fraction;
kernLeft = fraction;
kernRight = fraction;
lastChange = "2025-01-07 12:07:45 +0000";
layers = (
{
hints = (
{
horizontal = 1;
place = (-10,21);
target = up;
type = BottomGhost;
}
);
layerId = "6AD408C6-91F3-4F0B-A103-73D10F5280D9";
shapes = (
{
closed = 1;
nodes = (
(85,-10,ls),
(92,-10,o),
(95,-7,o),
(99,-2,cs),
(586,631,ls),
(589,634,o),
(590,637,o),
(590,640,cs),
(590,644,o),
(585,647,o),
(578,647,cs),
(541,647,ls),
(534,647,o),
(530,644,o),
(525,639,cs),
(39,6,ls),
(36,3,o),
(35,1,o),
(35,-2,cs),
(35,-7,o),
(40,-10,o),
(47,-10,cs)
);
}
);
width = 625;
}
);
note = fraction;
unicode = 8260;
},
{
glyphname = zero.dnom.zero;
kernLeft = zero.dnom;
kernRight = zero.dnom;
lastChange = "2025-01-07 12:07:45 +0000";
layers = (
{
layerId = "6AD408C6-91F3-4F0B-A103-73D10F5280D9";
shapes = (
{
ref = zero;
scale = (0.7576,0.7576);
},
{
closed = 1;
nodes = (
(124,36,l),
(169,18,l),
(276,319,l),
(231,336,l)
);
}
);
width = 401;
}
);
},
{
glyphname = zero.numr.zero;
kernLeft = zero.numr;
kernRight = zero.numr;
lastChange = "2025-01-07 12:07:45 +0000";
layers = (
{
layerId = "6AD408C6-91F3-4F0B-A103-73D10F5280D9";
shapes = (
{
pos = (0,348);
ref = zero.dnom;
},
{
closed = 1;
nodes = (
(124,384,l),
(169,366,l),
(276,667,l),
(231,684,l)
);
}
);
width = 401;
}
);
},
{
glyphname = .notdef;
lastChange = "2025-01-07 12:07:44 +0000";
layers = (
{
layerId = "6AD408C6-91F3-4F0B-A103-73D10F5280D9";
shapes = (
{
closed = 1;
nodes = (
(0,13,ls),
(0,6,o),
(6,0,o),
(13,0,cs),
(427,0,ls),
(434,0,o),
(440,6,o),
(440,13,cs),
(440,603,ls),
(440,610,o),
(434,616,o),
(427,616,cs),
(13,616,ls),
(6,616,o),
(0,610,o),
(0,603,cs)
);
},
{
closed = 1;
nodes = (
(233,367,ls),
(227,357,o),
(213,357,o),
(207,367,cs),
(88,546,ls),
(80,558,o),
(87,572,o),
(102,572,cs),
(338,572,ls),
(353,572,o),
(360,558,o),
(352,546,cs)
);
},
{
closed = 1;
nodes = (
(251,301,ls),
(248,304,o),
(248,312,o),
(251,315,cs),
(356,472,ls),
(368,491,o),
(396,481,o),
(396,459,cs),
(396,157,ls),
(396,135,o),
(368,125,o),
(356,144,cs)
);
},
{
closed = 1;
nodes = (
(102,44,ls),
(87,44,o),
(80,58,o),
(88,70,cs),
(207,249,ls),
(213,259,o),
(227,259,o),
(233,249,cs),
(352,70,ls),
(360,58,o),
(353,44,o),
(338,44,cs)
);
},
{
closed = 1;
nodes = (
(44,460,ls),
(44,482,o),
(72,491,o),
(84,472,cs),
(189,315,ls),
(192,312,o),
(192,304,o),
(189,301,cs),
(84,144,ls),
(72,125,o),
(44,135,o),
(44,157,cs)
);
}
);
width = 440;
}
);
note = .notdef;
},
{
glyphname = period;
kernLeft = period;
kernRight = period;
lastChange = "2025-01-07 12:07:44 +0000";
layers = (
{
hints = (
{
horizontal = 1;
place = (0,21);
target = up;
type = BottomGhost;
}
);
layerId = "6AD408C6-91F3-4F0B-A103-73D10F5280D9";
shapes = (
{
closed = 1;
nodes = (
(69,103,ls),
(58,92,o),
(53,80,o),
(53,69,cs),
(53,57,o),
(57,46,o),
(69,34,cs),
(104,0,ls),
(115,-11,o),
(126,-17,o),
(137,-17,cs),
(150,-17,o),
(160,-11,o),
(172,0,cs),
(206,34,ls),
(218,47,o),
(223,57,o),
(223,69,cs),
(223,80,o),
(218,91,o),
(206,103,cs),
(172,137,ls),
(159,150,o),
(150,154,o),
(137,154,cs),
(126,154,o),
(115,149,o),
(104,137,cs)
);
}
);
width = 275;
}
);
note = period;
unicode = 46;
},
{
glyphname = comma;
kernLeft = period;
kernRight = period;
lastChange = "2025-01-07 12:07:44 +0000";
layers = (
{
layerId = "6AD408C6-91F3-4F0B-A103-73D10F5280D9";
shapes = (
{
closed = 1;
nodes = (
(172,137,ls),
(161,149,o),
(150,154,o),
(138,154,cs),
(127,154,o),
(115,149,o),
(104,137,cs),
(70,103,ls),
(58,92,o),
(53,80,o),
(53,69,cs),
(53,57,o),
(58,46,o),
(70,34,cs),
(104,0,ls),
(109,-5,o),
(111,-11,o),
(111,-19,cs),
(111,-48,o),
(84,-90,o),
(41,-122,c),
(67,-134,o),
(72,-136,o),
(77,-136,cs),
(97,-136,o),
(208,-41,o),
(223,28,cs),
(224,38,o),
(225,47,o),
(225,55,cs),
(225,77,o),
(217,92,o),
(207,103,cs)
);
}
);
width = 278;
}
);
note = comma;
unicode = 44;
},
{
glyphname = exclam;
kernLeft = exclam;
kernRight = exclam;
lastChange = "2025-01-07 12:07:44 +0000";
layers = (
{
hints = (
{
horizontal = 1;
place = (0,21);
target = up;
type = BottomGhost;
},
{
horizontal = 1;
place = (665,-20);
target = down;
type = TopGhost;
}
);
layerId = "6AD408C6-91F3-4F0B-A103-73D10F5280D9";
shapes = (
{
closed = 1;
nodes = (
(69,630,ls),
(58,620,o),
(53,608,o),
(53,597,cs),
(53,551,o),
(87,429,o),
(94,308,cs),
(99,229,o),
(99,222,o),
(99,214,cs),
(99,207,o),
(103,203,o),
(110,203,cs),
(165,203,ls),
(172,203,o),
(177,207,o),
(177,214,cs),
(177,222,o),
(177,229,o),
(181,308,cs),
(188,428,o),
(223,551,o),
(223,598,cs),
(223,608,o),
(216,619,o),
(206,630,cs),
(172,665,ls),
(161,676,o),
(150,682,o),
(137,682,cs),
(126,682,o),
(114,676,o),
(104,665,cs)
);
},
{
ref = period;
}
);
width = 328;
}
);
note = exclam;
unicode = 33;
},
{
glyphname = question;
kernLeft = question;
kernRight = question;
lastChange = "2025-01-07 12:07:44 +0000";
layers = (
{
hints = (
{
horizontal = 1;
place = (0,21);
target = up;
type = BottomGhost;
}
);
layerId = "6AD408C6-91F3-4F0B-A103-73D10F5280D9";
shapes = (
{
closed = 1;
nodes = (
(142,464,ls),
(147,466,o),
(150,466,o),
(150,472,cs),
(150,474,o),
(150,478,o),
(148,481,cs),
(136,503,o),
(131,523,o),
(131,539,cs),
(131,581,o),
(159,607,o),
(208,607,cs),
(255,607,o),
(291,575,o),
(291,514,cs),
(291,362,o),
(127,382,o),
(127,255,cs),
(127,236,o),
(127,219,o),
(128,211,cs),
(128,204,o),
(136,203,o),
(143,203,cs),
(198,203,ls),
(205,203,o),
(209,207,o),
(209,214,cs),
(210,222,o),
(210,232,o),
(210,255,cs),
(210,341,o),
(422,333,o),
(422,522,cs),
(422,594,o),
(359,682,o),
(204,682,cs),
(102,682,o),
(18,620,o),
(18,524,cs),
(18,492,o),
(29,465,o),
(43,446,cs),
(49,438,o),
(54,436,o),
(67,440,cs)
);
},
{
pos = (33,0);
ref = period;
}
);
width = 475;
},
{
associatedMasterId = "6AD408C6-91F3-4F0B-A103-73D10F5280D9";
hints = (
{
horizontal = 1;
place = (0,21);
target = up;
type = BottomGhost;
},
{
horizontal = 1;
place = (656,48);
type = Stem;
},
{
place = (21,113);
type = Stem;
},
{
place = (251,126);
type = Stem;
},
{
place = (113,83);
type = Stem;
},
{
place = (88,137);
type = Stem;
},
{
horizontal = 1;
place = (0,154);
type = Stem;
}
);
layerId = "58432C2B-C30F-4BED-A724-AA708BC8D23A";
name = "24 mars 23 à 12:48";
shapes = (
{
closed = 1;
nodes = (
(145,530,ls),
(150,529,o),
(154,532,o),
(154,538,cs),
(154,540,o),
(153,544,o),
(151,547,cs),
(140,569,o),
(135,589,o),
(135,605,cs),
(135,638,o),
(163,656,o),
(185,656,cs),
(215,656,o),
(251,641,o),
(251,571,cs),
(251,454,o),
(106,457,o),
(113,308,cs),
(115,255,o),
(117,248,o),
(117,240,cs),
(117,233,o),
(121,230,o),
(128,230,cs),
(184,230,ls),
(191,230,o),
(195,233,o),
(195,240,cs),
(195,248,o),
(196,255,o),
(196,308,cs),
(196,451,o),
(378,416,o),
(378,570,cs),
(378,642,o),
(319,704,o),
(181,704,cs),
(88,704,o),
(21,664,o),
(21,611,cs),
(21,597,o),
(25,583,o),
(31,567,cs),
(34,558,o),
(40,553,o),
(53,550,cs)
);
},
{
pos = (18,0);
ref = period;
}
);
width = 466;
}
);
note = question;
unicode = 63;
},
{
glyphname = asterisk;
lastChange = "2025-01-07 12:07:44 +0000";
layers = (
{
hints = (
{
horizontal = 1;
place = (671,-20);
target = down;
type = TopGhost;
}
);
layerId = "6AD408C6-91F3-4F0B-A103-73D10F5280D9";
shapes = (
{
closed = 1;
nodes = (
(372,440,ls),
(345,451,o),
(323,456,o),
(306,462,c),
(323,469,o),
(345,474,o),
(372,485,cs),
(451,516,ls),
(457,517,o),
(459,521,o),
(459,525,cs),
(459,528,o),
(458,531,o),
(457,533,cs),
(419,600,ls),
(416,605,o),
(412,607,o),
(407,607,cs),
(406,607,o),
(403,606,o),
(400,605,cs),
(334,551,ls),
(312,532,o),
(296,517,o),
(282,505,c),
(284,523,o),
(290,545,o),
(295,574,cs),
(308,658,ls),
(309,666,o),
(304,671,o),
(295,671,cs),
(218,671,ls),
(209,671,o),
(204,666,o),
(205,658,cs),
(218,574,ls),
(223,545,o),
(229,523,o),
(232,505,c),
(218,517,o),
(202,532,o),
(180,551,cs),
(113,605,ls),
(111,606,o),
(108,607,o),
(106,607,cs),
(101,607,o),
(98,605,o),
(95,600,cs),
(56,533,ls),
(55,531,o),
(54,528,o),
(54,525,cs),
(54,521,o),
(56,517,o),
(62,516,cs),
(142,485,ls),
(169,474,o),
(190,469,o),
(208,462,c),
(190,456,o),
(169,451,o),
(142,440,cs),
(62,409,ls),
(56,407,o),
(53,405,o),
(53,400,cs),
(53,399,o),
(54,395,o),
(56,391,cs),
(95,325,ls),
(98,320,o),
(100,316,o),
(105,316,cs),
(108,316,o),
(111,318,o),
(113,319,cs),
(180,373,ls),
(202,392,o),
(218,408,o),
(232,420,c),
(229,401,o),
(223,380,o),
(218,351,cs),
(205,267,ls),
(203,258,o),
(210,253,o),
(218,253,cs),
(295,253,ls),
(303,253,o),
(310,257,o),
(308,267,cs),
(295,351,ls),
(290,380,o),
(284,401,o),
(282,420,c),
(296,408,o),
(311,392,o),
(334,373,cs),
(400,319,ls),
(403,318,o),
(406,317,o),
(407,317,cs),
(412,317,o),
(415,319,o),
(419,325,cs),
(457,391,ls),
(458,393,o),
(459,396,o),
(459,399,cs),
(459,403,o),
(457,407,o),
(451,408,cs)
);
}
);
width = 512;
},
{
associatedMasterId = "6AD408C6-91F3-4F0B-A103-73D10F5280D9";
hints = (
{
horizontal = 1;
place = (671,-20);
target = down;
type = TopGhost;
},
{
place = (66,405);
type = Stem;
},
{
place = (244,49);
type = Stem;
}
);
layerId = "0761BE54-FF95-4FE0-AC7D-BE75A750D9D1";
name = "24 mars 23 à 12:57";
shapes = (
{
closed = 1;
nodes = (
(384,440,l),
(356,449,o),
(334,456,o),
(318,462,c),
(334,469,o),
(356,476,o),
(384,485,c),
(463,516,ls),
(468,517,o),
(471,521,o),
(471,525,cs),
(471,528,o),
(470,531,o),
(468,533,cs),
(430,600,ls),
(427,605,o),
(423,607,o),
(419,607,cs),
(417,607,o),
(414,606,o),
(412,605,cs),
(346,551,l),
(323,532,o),
(307,517,o),
(293,505,c),
(296,523,o),
(300,545,o),
(306,574,c),
(319,658,ls),
(321,666,o),
(315,671,o),
(306,671,cs),
(230,671,ls),
(223,671,o),
(216,667,o),
(216,660,c),
(216,658,l),
(230,574,l),
(236,545,o),
(240,523,o),
(244,505,c),
(230,517,o),
(213,532,o),
(191,551,c),
(124,605,ls),
(122,606,o),
(120,607,o),
(117,607,cs),
(113,607,o),
(109,605,o),
(106,600,cs),
(68,533,ls),
(67,531,o),
(66,528,o),
(66,525,cs),
(66,521,o),
(68,517,o),
(73,516,cs),
(153,485,l),
(181,476,o),
(202,469,o),
(219,462,c),
(202,456,o),
(181,449,o),
(153,440,c),
(73,409,ls),
(68,407,o),
(66,403,o),
(66,399,cs),
(66,397,o),
(67,393,o),
(68,391,cs),
(106,325,ls),
(109,320,o),
(113,317,o),
(117,317,cs),
(120,317,o),
(122,318,o),
(124,319,c),
(191,373,l),
(213,393,o),
(230,408,o),
(244,420,c),
(240,401,o),
(236,380,o),
(230,351,c),
(216,267,ls),
(216,258,o),
(222,253,o),
(230,253,cs),
(306,253,ls),
(314,253,o),
(319,257,o),
(319,264,c),
(319,267,l),
(306,351,l),
(300,380,o),
(296,401,o),
(293,420,c),
(307,408,o),
(323,393,o),
(346,373,c),
(412,319,ls),
(414,318,o),
(417,317,o),
(419,317,cs),
(423,317,o),
(427,319,o),
(430,325,cs),
(468,391,ls),
(470,393,o),
(471,396,o),
(471,399,cs),
(471,403,o),
(468,407,o),
(463,408,cs)
);
}
);
width = 528;
}
);
note = asterisk;
unicode = 42;
},
{
glyphname = numbersign;
lastChange = "2025-01-07 12:07:44 +0000";
layers = (
{
layerId = "6AD408C6-91F3-4F0B-A103-73D10F5280D9";
shapes = (
{
closed = 1;
nodes = (
(564,601,o),
(558,605,o),
(550,605,cs),
(490,605,ls),
(482,605,o),
(478,601,o),
(476,593,cs),
(441,451,l),
(317,451,l),
(352,595,ls),
(354,601,o),
(348,605,o),
(340,605,cs),
(280,605,ls),
(272,605,o),
(268,601,o),
(266,593,cs),
(231,451,l),
(108,451,ls),
(100,451,o),
(96,448,o),
(94,440,cs),
(81,386,ls),
(79,380,o),
(85,376,o),
(93,376,cs),
(211,376,l),
(170,210,l),
(48,210,ls),
(40,210,o),
(35,207,o),
(33,199,cs),
(20,144,ls),
(19,138,o),
(25,135,o),
(33,135,cs),
(151,135,l),
(121,11,ls),
(119,4,o),
(125,0,o),
(133,0,cs),
(193,0,ls),
(201,0,o),
(205,4,o),
(207,11,cs),
(238,135,l),
(362,135,l),
(331,11,ls),
(329,4,o),
(335,0,o),
(343,0,cs),
(403,0,ls),
(411,0,o),
(415,4,o),
(417,11,cs),
(448,135,l),
(561,135,ls),
(569,135,o),
(574,138,o),
(576,146,cs),
(589,200,ls),
(590,206,o),
(584,210,o),
(576,210,cs),
(467,210,l),
(509,376,l),
(621,376,ls),
(629,376,o),
(634,380,o),
(636,387,c),
(649,442,ls),
(650,448,o),
(644,451,o),
(637,451,cs),
(527,451,l),
(562,595,ls)
);
},
{
closed = 1;
nodes = (
(422,376,l),
(380,210,l),
(257,210,l),
(298,376,l)
);
}
);
width = 669;
}
);
note = numbersign;
unicode = 35;
},
{
glyphname = slash;
lastChange = "2025-01-07 12:07:44 +0000";
layers = (
{
layerId = "6AD408C6-91F3-4F0B-A103-73D10F5280D9";
shapes = (
{
closed = 1;
nodes = (
(43,-105,ls),
(40,-114,o),
(44,-120,o),
(54,-120,cs),
(126,-120,ls),
(133,-120,o),
(138,-117,o),
(141,-109,cs),
(422,673,ls),
(426,683,o),
(422,688,o),
(412,688,cs),
(340,688,ls),
(332,688,o),
(327,686,o),
(325,678,cs)
);
}
);
width = 440;
}
);
note = slash;
unicode = 47;
},
{
glyphname = backslash;
lastChange = "2025-01-07 12:07:44 +0000";
layers = (
{
layerId = "6AD408C6-91F3-4F0B-A103-73D10F5280D9";
shapes = (
{
closed = 1;
nodes = (
(120,686,o),
(114,688,o),
(107,688,cs),
(35,688,ls),
(26,688,o),
(21,683,o),
(25,673,cs),
(306,-109,ls),
(309,-117,o),
(313,-120,o),
(321,-120,cs),
(393,-120,ls),
(403,-120,o),
(407,-114,o),
(404,-105,cs),
(122,678,ls)
);
}
);
width = 440;
}
);
note = backslash;
unicode = 92;
},
{
glyphname = hyphen;
kernLeft = hyphen;
kernRight = hyphen;
lastChange = "2025-01-07 12:07:44 +0000";
layers = (
{
layerId = "6AD408C6-91F3-4F0B-A103-73D10F5280D9";
shapes = (
{
closed = 1;
nodes = (
(55,203,ls),
(55,194,o),
(60,190,o),
(69,190,cs),
(381,190,ls),
(390,190,o),
(394,194,o),
(394,203,cs),
(394,261,ls),
(394,270,o),
(390,275,o),
(381,275,cs),
(69,275,ls),
(60,275,o),
(55,270,o),
(55,261,cs)
);
}
);
width = 450;
},
{
associatedMasterId = "6AD408C6-91F3-4F0B-A103-73D10F5280D9";
hints = (
{
horizontal = 1;
place = (181,103);
type = Stem;
},
{
place = (20,418);
type = Stem;
}
);
layerId = "46F43548-7DE5-48B2-84CD-8B65145B4C6A";
name = "27 mars 23 à 14:19";
shapes = (
{
closed = 1;
nodes = (
(20,194,ls),
(20,186,o),
(25,181,o),
(33,181,cs),
(425,181,ls),
(434,181,o),
(438,186,o),
(438,194,cs),
(438,270,ls),
(438,279,o),
(434,283,o),
(425,283,cs),
(33,283,ls),
(25,283,o),
(20,279,o),
(20,270,cs)
);
}
);
width = 458;
}
);
note = hyphen;
unicode = 45;
},
{
glyphname = endash;
kernLeft = hyphen;
kernRight = hyphen;
lastChange = "2025-01-07 12:07:44 +0000";
layers = (
{
layerId = "6AD408C6-91F3-4F0B-A103-73D10F5280D9";
shapes = (
{
closed = 1;
nodes = (
(55,203,ls),
(55,194,o),
(60,190,o),
(69,190,cs),
(414,190,ls),
(423,190,o),
(428,194,o),
(428,203,cs),
(428,261,ls),
(428,270,o),
(423,275,o),
(414,275,cs),
(69,275,ls),
(60,275,o),
(55,270,o),
(55,261,cs)
);
}
);
width = 483;
}
);
note = endash;
unicode = 8211;
},
{
glyphname = emdash;
kernLeft = hyphen;
kernRight = hyphen;
lastChange = "2025-01-07 12:07:44 +0000";
layers = (
{
layerId = "6AD408C6-91F3-4F0B-A103-73D10F5280D9";
shapes = (
{
closed = 1;
nodes = (
(55,203,ls),
(55,194,o),
(60,190,o),
(69,190,cs),
(592,190,ls),
(601,190,o),
(605,194,o),
(605,203,cs),
(605,261,ls),
(605,270,o),
(601,275,o),
(592,275,cs),
(69,275,ls),
(60,275,o),
(55,270,o),
(55,261,cs)
);
}
);
width = 661;
}
);
note = emdash;
unicode = 8212;
},
{
glyphname = horizontalbar;
kernLeft = hyphen;
kernRight = hyphen;
lastChange = "2025-01-07 12:07:44 +0000";
layers = (
{
layerId = "6AD408C6-91F3-4F0B-A103-73D10F5280D9";
shapes = (
{
closed = 1;
nodes = (
(-18,203,ls),
(-18,194,o),
(-13,190,o),
(-4,190,cs),
(660,190,ls),
(669,190,o),
(673,194,o),
(673,203,cs),
(673,261,ls),
(673,270,o),
(669,275,o),
(660,275,cs),
(-4,275,ls),
(-13,275,o),
(-18,270,o),
(-18,261,cs)
);
}
);
width = 656;
}
);
unicode = 8213;
},
{
glyphname = underscore;
lastChange = "2025-01-07 12:07:44 +0000";
layers = (
{
layerId = "6AD408C6-91F3-4F0B-A103-73D10F5280D9";
shapes = (
{
closed = 1;
nodes = (
(18,-92,ls),
(18,-101,o),
(22,-106,o),
(31,-106,cs),
(495,-106,ls),
(504,-106,o),
(509,-101,o),
(509,-92,cs),
(509,-34,ls),
(509,-26,o),
(504,-21,o),
(495,-21,cs),
(31,-21,ls),
(22,-21,o),
(18,-26,o),
(18,-34,cs)
);
}
);
width = 526;
}
);
note = underscore;
unicode = 95;
},
{
glyphname = parenleft;
kernRight = parenleft;
lastChange = "2025-01-07 12:07:44 +0000";
layers = (
{
layerId = "6AD408C6-91F3-4F0B-A103-73D10F5280D9";
shapes = (
{
closed = 1;
nodes = (
(337,-70,o),
(338,-68,o),
(338,-66,cs),
(338,-62,o),
(336,-59,o),
(332,-55,cs),
(255,5,o),
(183,159,o),
(183,292,cs),
(183,424,o),
(255,578,o),
(332,639,cs),
(336,642,o),
(338,645,o),
(338,649,cs),
(338,651,o),
(337,655,o),
(335,657,cs),
(319,681,ls),
(316,686,o),
(312,688,o),
(308,688,cs),
(305,688,o),
(304,688,o),
(301,686,cs),
(159,612,o),
(70,447,o),
(70,292,cs),
(70,136,o),
(161,-27,o),
(302,-100,cs),
(304,-102,o),
(307,-103,o),
(310,-103,cs),
(313,-103,o),
(317,-100,o),
(320,-96,cs),
(335,-73,ls)
);
}
);
width = 400;
}
);
note = parenleft;
unicode = 40;
},
{
glyphname = braceleft;
lastChange = "2025-01-07 12:07:44 +0000";
layers = (
{
layerId = "6AD408C6-91F3-4F0B-A103-73D10F5280D9";
shapes = (
{
closed = 1;
nodes = (
(79,272,o),
(84,268,o),
(92,268,cs),
(148,265,o),
(199,249,o),
(199,187,cs),
(199,144,o),
(161,98,o),
(161,23,cs),
(161,-93,o),
(288,-115,o),
(317,-115,cs),
(321,-115,o),
(322,-114,o),
(322,-111,cs),
(322,-92,ls),
(322,-86,o),
(319,-84,o),
(314,-83,cs),
(260,-63,o),
(243,-48,o),
(243,-20,cs),
(243,33,o),
(314,96,o),
(314,161,cs),
(314,249,o),
(253,277,o),
(177,296,c),
(253,314,o),
(314,342,o),
(314,430,cs),
(314,495,o),
(243,558,o),
(243,612,cs),
(243,639,o),
(260,655,o),
(314,674,cs),
(319,676,o),
(322,678,o),
(322,683,cs),
(322,702,ls),
(322,706,o),
(321,707,o),
(317,707,cs),
(288,707,o),
(161,685,o),
(161,568,cs),
(161,494,o),
(199,447,o),
(199,404,cs),
(199,342,o),
(148,326,o),
(92,324,cs),
(84,324,o),
(79,319,o),
(79,311,cs),
(79,281,ls)
);
}
);
width = 401;
}
);
note = braceleft;
unicode = 123;
},
{
glyphname = bracketleft;
kernRight = bracketleft;
lastChange = "2025-01-07 12:07:44 +0000";
layers = (
{
layerId = "6AD408C6-91F3-4F0B-A103-73D10F5280D9";
shapes = (
{
closed = 1;
nodes = (
(173,-47,l),
(173,671,l),
(275,671,ls),
(283,671,o),
(288,675,o),
(288,684,cs),
(288,725,ls),
(288,733,o),
(283,738,o),
(275,738,cs),
(84,738,ls),
(75,738,o),
(70,733,o),
(70,725,cs),
(70,-101,ls),
(70,-110,o),
(75,-114,o),
(84,-114,cs),
(275,-114,ls),
(283,-114,o),
(288,-110,o),
(288,-101,cs),
(288,-60,ls),
(288,-52,o),
(283,-47,o),
(275,-47,cs)
);
}
);
width = 349;
}
);
note = bracketleft;
unicode = 91;
},
{
glyphname = guilsinglleft;
kernLeft = guilsinglleft;
kernRight = guilsinglleft;
lastChange = "2025-01-07 12:07:44 +0000";
layers = (
{
layerId = "6AD408C6-91F3-4F0B-A103-73D10F5280D9";
shapes = (
{
closed = 1;
nodes = (
(70,276,o),
(72,274,o),
(75,270,c),
(246,94,ls),
(249,91,o),
(251,90,o),
(255,90,cs),
(259,90,o),
(261,92,o),
(264,94,cs),
(288,116,ls),
(292,121,o),
(293,123,o),
(293,126,cs),
(293,128,o),
(291,131,o),
(289,135,cs),
(176,280,l),
(289,425,ls),
(291,429,o),
(293,431,o),
(293,434,cs),
(293,436,o),
(292,439,o),
(288,444,cs),
(264,466,ls),
(261,468,o),
(259,470,o),
(255,470,cs),
(251,470,o),
(249,469,o),
(246,466,cs),
(75,290,l),
(72,286,o),
(70,283,o),
(70,280,cs)
);
}
);
width = 355;
}
);
note = guilsinglleft;
unicode = 8249;
},
{
glyphname = quotesingle;
lastChange = "2025-01-07 12:07:44 +0000";
layers = (
{
layerId = "6AD408C6-91F3-4F0B-A103-73D10F5280D9";
shapes = (
{
closed = 1;
nodes = (
(48,686,ls),
(40,686,o),
(34,682,o),
(35,672,cs),
(56,473,ls),
(57,464,o),
(62,459,o),
(70,459,cs),
(109,459,ls),
(118,459,o),
(122,464,o),
(123,473,cs),
(144,672,ls),
(145,682,o),
(140,686,o),
(131,686,cs)
);
}
);
width = 188;
}
);
note = quotesingle;
unicode = 39;
},
